<mxfile host="app.diagrams.net" modified="2024-01-26T21:50:07.040Z" agent="Mozilla/5.0 (Windows NT 10.0; Win64; x64) AppleWebKit/537.36 (KHTML, like Gecko) Chrome/120.0.0.0 Safari/537.36" etag="mtxl4OYsr9HcwUW_JwdL" version="23.0.2" type="google">
  <diagram id="prtHgNgQTEPvFCAcTncT" name="Page-1">
    <mxGraphModel grid="1" page="1" gridSize="10" guides="1" tooltips="1" connect="1" arrows="1" fold="1" pageScale="1" pageWidth="827" pageHeight="1169" math="0" shadow="0">
      <root>
        <mxCell id="0" />
        <mxCell id="1" parent="0" />
        <mxCell id="5WxAIkpqzA0BmYz_Pild-1" value="ورود و احراز هویت" style="swimlane;html=1;childLayout=stackLayout;resizeParent=1;resizeParentMax=0;horizontal=0;startSize=20;horizontalStack=0;" vertex="1" parent="1">
          <mxGeometry x="76" y="120" width="1110" height="300" as="geometry" />
        </mxCell>
        <mxCell id="5WxAIkpqzA0BmYz_Pild-2" value="کاربر" style="swimlane;html=1;startSize=20;horizontal=0;" vertex="1" parent="5WxAIkpqzA0BmYz_Pild-1">
          <mxGeometry x="20" width="1090" height="150" as="geometry">
            <mxRectangle x="20" width="490" height="30" as="alternateBounds" />
          </mxGeometry>
        </mxCell>
        <mxCell id="5WxAIkpqzA0BmYz_Pild-3" style="edgeStyle=orthogonalEdgeStyle;rounded=0;orthogonalLoop=1;jettySize=auto;html=1;" edge="1" parent="5WxAIkpqzA0BmYz_Pild-2" source="5WxAIkpqzA0BmYz_Pild-4" target="5WxAIkpqzA0BmYz_Pild-15">
          <mxGeometry relative="1" as="geometry">
            <mxPoint x="110" y="82" as="targetPoint" />
          </mxGeometry>
        </mxCell>
        <mxCell id="5WxAIkpqzA0BmYz_Pild-4" value="" style="ellipse;fillColor=strokeColor;html=1;" vertex="1" parent="5WxAIkpqzA0BmYz_Pild-2">
          <mxGeometry x="45" y="67" width="30" height="30" as="geometry" />
        </mxCell>
        <mxCell id="5WxAIkpqzA0BmYz_Pild-15" value="&lt;font style=&quot;font-size: 14px;&quot;&gt;درخواست ورود&lt;/font&gt;" style="html=1;align=center;verticalAlign=top;rounded=1;absoluteArcSize=1;arcSize=13;dashed=0;whiteSpace=wrap;" vertex="1" parent="5WxAIkpqzA0BmYz_Pild-2">
          <mxGeometry x="108" y="62" width="140" height="40" as="geometry" />
        </mxCell>
        <mxCell id="5WxAIkpqzA0BmYz_Pild-14" value="&lt;font style=&quot;font-size: 14px;&quot;&gt;وارد کردن اطلاعات&lt;/font&gt;" style="shape=mxgraph.uml25.action;html=1;align=center;verticalAlign=middle;absoluteArcSize=1;arcSize=10;dashed=0;spacingRight=10;whiteSpace=wrap;" vertex="1" parent="5WxAIkpqzA0BmYz_Pild-2">
          <mxGeometry x="298" y="57" width="150" height="50" as="geometry" />
        </mxCell>
        <mxCell id="5WxAIkpqzA0BmYz_Pild-7" value="" style="ellipse;html=1;shape=endState;fillColor=strokeColor;" vertex="1" parent="5WxAIkpqzA0BmYz_Pild-2">
          <mxGeometry x="1044" y="67" width="30" height="30" as="geometry" />
        </mxCell>
        <mxCell id="19SGyCJ3r2KK5GjObrPu-4" style="edgeStyle=orthogonalEdgeStyle;rounded=0;orthogonalLoop=1;jettySize=auto;html=1;" edge="1" parent="5WxAIkpqzA0BmYz_Pild-2" source="19SGyCJ3r2KK5GjObrPu-2" target="5WxAIkpqzA0BmYz_Pild-7">
          <mxGeometry relative="1" as="geometry" />
        </mxCell>
        <mxCell id="19SGyCJ3r2KK5GjObrPu-2" value="&lt;span style=&quot;font-size: 14px;&quot;&gt;ورود کاربر به سامانه&lt;/span&gt;" style="html=1;align=center;verticalAlign=top;rounded=1;absoluteArcSize=1;arcSize=13;dashed=0;whiteSpace=wrap;" vertex="1" parent="5WxAIkpqzA0BmYz_Pild-2">
          <mxGeometry x="835" y="62" width="140" height="40" as="geometry" />
        </mxCell>
        <mxCell id="5WxAIkpqzA0BmYz_Pild-6" value="سامانه" style="swimlane;html=1;startSize=20;horizontal=0;" vertex="1" parent="5WxAIkpqzA0BmYz_Pild-1">
          <mxGeometry x="20" y="150" width="1090" height="150" as="geometry" />
        </mxCell>
        <mxCell id="5WxAIkpqzA0BmYz_Pild-16" value="&lt;font style=&quot;font-size: 14px;&quot;&gt;درخواست اطلاعات برای ورود&lt;/font&gt;" style="html=1;align=center;verticalAlign=top;rounded=1;absoluteArcSize=1;arcSize=13;dashed=0;whiteSpace=wrap;" vertex="1" parent="5WxAIkpqzA0BmYz_Pild-6">
          <mxGeometry x="108" y="30" width="140" height="40" as="geometry" />
        </mxCell>
        <mxCell id="5WxAIkpqzA0BmYz_Pild-27" style="edgeStyle=orthogonalEdgeStyle;rounded=0;orthogonalLoop=1;jettySize=auto;html=1;" edge="1" parent="5WxAIkpqzA0BmYz_Pild-6" source="5WxAIkpqzA0BmYz_Pild-38" target="5WxAIkpqzA0BmYz_Pild-26">
          <mxGeometry relative="1" as="geometry">
            <Array as="points" />
          </mxGeometry>
        </mxCell>
        <mxCell id="5WxAIkpqzA0BmYz_Pild-26" value="" style="rhombus;" vertex="1" parent="5WxAIkpqzA0BmYz_Pild-6">
          <mxGeometry x="665" y="84" width="30" height="30" as="geometry" />
        </mxCell>
        <mxCell id="5WxAIkpqzA0BmYz_Pild-32" style="edgeStyle=orthogonalEdgeStyle;rounded=0;orthogonalLoop=1;jettySize=auto;html=1;" edge="1" parent="5WxAIkpqzA0BmYz_Pild-6" source="5WxAIkpqzA0BmYz_Pild-28" target="5WxAIkpqzA0BmYz_Pild-16">
          <mxGeometry relative="1" as="geometry">
            <Array as="points">
              <mxPoint x="178" y="99" />
            </Array>
          </mxGeometry>
        </mxCell>
        <mxCell id="5WxAIkpqzA0BmYz_Pild-28" value="&lt;font style=&quot;font-size: 14px;&quot;&gt;اعلام نامعتبر بودن اطلاعات&lt;/font&gt;" style="html=1;align=center;verticalAlign=top;rounded=1;absoluteArcSize=1;arcSize=13;dashed=0;whiteSpace=wrap;" vertex="1" parent="5WxAIkpqzA0BmYz_Pild-6">
          <mxGeometry x="298" y="79" width="140" height="40" as="geometry" />
        </mxCell>
        <mxCell id="5WxAIkpqzA0BmYz_Pild-29" style="edgeStyle=orthogonalEdgeStyle;rounded=0;orthogonalLoop=1;jettySize=auto;html=1;" edge="1" parent="5WxAIkpqzA0BmYz_Pild-6" source="5WxAIkpqzA0BmYz_Pild-26" target="5WxAIkpqzA0BmYz_Pild-28">
          <mxGeometry relative="1" as="geometry" />
        </mxCell>
        <mxCell id="5WxAIkpqzA0BmYz_Pild-40" value="&lt;font style=&quot;font-size: 12px;&quot;&gt;وگرنه&lt;/font&gt;" style="edgeLabel;html=1;align=center;verticalAlign=middle;resizable=0;points=[];" connectable="0" vertex="1" parent="5WxAIkpqzA0BmYz_Pild-29">
          <mxGeometry x="-0.2205" y="-2" relative="1" as="geometry">
            <mxPoint x="47" y="-7" as="offset" />
          </mxGeometry>
        </mxCell>
        <mxCell id="5WxAIkpqzA0BmYz_Pild-38" value="&lt;font style=&quot;font-size: 14px;&quot;&gt;بررسی اطلاعات&lt;/font&gt;" style="shape=mxgraph.uml25.action;html=1;align=center;verticalAlign=middle;absoluteArcSize=1;arcSize=10;dashed=0;spacingLeft=10;flipH=1;whiteSpace=wrap;" vertex="1" parent="5WxAIkpqzA0BmYz_Pild-6">
          <mxGeometry x="498" y="25" width="150" height="50" as="geometry" />
        </mxCell>
        <mxCell id="19SGyCJ3r2KK5GjObrPu-1" value="&lt;span style=&quot;font-size: 14px;&quot;&gt;تایید اطلاعات توسط سامانه&lt;/span&gt;" style="html=1;align=center;verticalAlign=top;rounded=1;absoluteArcSize=1;arcSize=13;dashed=0;whiteSpace=wrap;" vertex="1" parent="5WxAIkpqzA0BmYz_Pild-6">
          <mxGeometry x="835" y="79" width="140" height="40" as="geometry" />
        </mxCell>
        <mxCell id="5WxAIkpqzA0BmYz_Pild-31" style="edgeStyle=orthogonalEdgeStyle;rounded=0;orthogonalLoop=1;jettySize=auto;html=1;" edge="1" parent="5WxAIkpqzA0BmYz_Pild-6" source="5WxAIkpqzA0BmYz_Pild-26" target="19SGyCJ3r2KK5GjObrPu-1">
          <mxGeometry relative="1" as="geometry">
            <mxPoint x="731" y="98.63999999999999" as="sourcePoint" />
            <mxPoint x="824" y="98.63999999999999" as="targetPoint" />
          </mxGeometry>
        </mxCell>
        <mxCell id="5WxAIkpqzA0BmYz_Pild-33" value="&lt;span style=&quot;font-size: 12px;&quot;&gt;[اطلاعات وارد شده صحیح است]&lt;/span&gt;" style="edgeLabel;html=1;align=center;verticalAlign=middle;resizable=0;points=[];" connectable="0" vertex="1" parent="5WxAIkpqzA0BmYz_Pild-31">
          <mxGeometry x="-0.362" y="1" relative="1" as="geometry">
            <mxPoint x="18" y="-8" as="offset" />
          </mxGeometry>
        </mxCell>
        <mxCell id="5WxAIkpqzA0BmYz_Pild-17" style="edgeStyle=orthogonalEdgeStyle;rounded=0;orthogonalLoop=1;jettySize=auto;html=1;" edge="1" parent="5WxAIkpqzA0BmYz_Pild-1" source="5WxAIkpqzA0BmYz_Pild-15" target="5WxAIkpqzA0BmYz_Pild-16">
          <mxGeometry relative="1" as="geometry">
            <Array as="points" />
          </mxGeometry>
        </mxCell>
        <mxCell id="5WxAIkpqzA0BmYz_Pild-19" style="edgeStyle=orthogonalEdgeStyle;rounded=0;orthogonalLoop=1;jettySize=auto;html=1;" edge="1" parent="5WxAIkpqzA0BmYz_Pild-1" source="5WxAIkpqzA0BmYz_Pild-16" target="5WxAIkpqzA0BmYz_Pild-14">
          <mxGeometry relative="1" as="geometry">
            <Array as="points">
              <mxPoint x="288" y="200" />
              <mxPoint x="288" y="82" />
            </Array>
          </mxGeometry>
        </mxCell>
        <mxCell id="5WxAIkpqzA0BmYz_Pild-21" style="edgeStyle=orthogonalEdgeStyle;rounded=0;orthogonalLoop=1;jettySize=auto;html=1;" edge="1" parent="5WxAIkpqzA0BmYz_Pild-1" source="5WxAIkpqzA0BmYz_Pild-14" target="5WxAIkpqzA0BmYz_Pild-38">
          <mxGeometry relative="1" as="geometry">
            <mxPoint x="558.0256410256411" y="210" as="targetPoint" />
            <Array as="points">
              <mxPoint x="498" y="82" />
              <mxPoint x="498" y="200" />
            </Array>
          </mxGeometry>
        </mxCell>
        <mxCell id="5WxAIkpqzA0BmYz_Pild-41" value="&lt;font style=&quot;font-size: 12px;&quot;&gt;اطلاعات وارد شده&lt;/font&gt;" style="edgeLabel;html=1;align=center;verticalAlign=middle;resizable=0;points=[];" connectable="0" vertex="1" parent="5WxAIkpqzA0BmYz_Pild-21">
          <mxGeometry x="-0.8356" y="-1" relative="1" as="geometry">
            <mxPoint x="24" y="-10" as="offset" />
          </mxGeometry>
        </mxCell>
        <mxCell id="19SGyCJ3r2KK5GjObrPu-3" style="edgeStyle=orthogonalEdgeStyle;rounded=0;orthogonalLoop=1;jettySize=auto;html=1;" edge="1" parent="5WxAIkpqzA0BmYz_Pild-1" source="19SGyCJ3r2KK5GjObrPu-1" target="19SGyCJ3r2KK5GjObrPu-2">
          <mxGeometry relative="1" as="geometry" />
        </mxCell>
        <mxCell id="5WxAIkpqzA0BmYz_Pild-12" value="" style="shape=image;verticalLabelPosition=bottom;labelBackgroundColor=default;verticalAlign=top;aspect=fixed;imageAspect=0;image=data:image/png,iVBORw0KGgoAAAANSUhEUgAAAscAAALECAYAAADkYp2AAAAAAXNSR0IArs4c6QAAAARnQU1BAACxjwv8YQUAAAAJcEhZcwAADsMAAA7DAcdvqGQAAP+lSURBVHhe7J0HYBzF2f6f63fqcu8FbIyxMc2YajqEAAFCCiGFQAhppP3TyJeeL/m+tC+kkEIIgdAh9F5NNQYXjLGxce+9qEvX9vb+7zO7K53OJ1tnS3LR+5Nfz9yW2d2Z2ZlnZmdnfVkBiqIoiqIoiqLA77qKoiiKoiiK0utRcawoiqIoiqIoLiqOFUVRFEVRFMVFxbGiKIqiKIqiuKg4VhRFURRFURQXFceKoiiKoiiK4qLiWFEURVEURVFcVBwriqIoiqIoiouKY0VRFEVRFEVxUXGsKIqiKIqiKC4qjhVFURRFURTFRcWxoiiKoiiKorioOFYURVEURVEUFxXHiqIoiqIoiuKi4lhRFEVRFEVRXFQcK4qiKIqi7Adk7KzryyGVwKvrU8i4P3eHHW/Grx5ahW8v7fw+xZGFZbvegxQVx4qiKIqiKPuULGrXbsaZ/1yPRxPuIi7buANX/ns5PvZ2HGl36S7JpnDrE6vxo8WN+MPDq/CDdV2rYu3mZgl3Ga5etJ+o46yFmcuasLaLT0fFsaIoiqIoyj6kaeM2fOyhrZi+vR5/ey8Fo/USdfj83Rtw5zYbWZ/ZbPf4QrjkxH44o8yHsUcMwBeHdpXMy2Ljqi24+LaV+Pb7FiJRd/E+JYPZb67BhQ+swgefrUdXtgNUHCuKoiiK0jVk0pi/MYlG96fSGWw8O3MbXm6hBLXxyjs1mMvxEAHRuu4oi85qY27Zf8RAPH3N4Xj9omoc0lUqT4T6dQ9swVP1WRHqAfSPFTijnk57O4nnl8ZRm81i+epGzI0XGJKyh6g4VhRFURSlC8hiw7vrMfW2pZhw7xa81tx1YmX/wsa6HSk0G28aS2osp6d3j/HhhGFRhN1f/ZDCrBqJO58f5SF3YWfJWnhtxmqceNsynHL7GvxiRbprxh0Hg+jn9Rb7guhf6vpb2Qdp7y/Bf31sJH40vhp//dgQXFLa+SbE7lBxrCiKoijK3mMncfeCJjSKUFq3cgsu/s9mTOtIJImIe+OttTj5n8tw7pPbMH1vxFRXhrVbslg+fx1O/+dyfHRmA+57diWOu3UV/mvV3ghkHwYPLcVYo8gCOOe0YfhKfwq9AMpccdw52ZfFtiUb8clXGjCvwcLyjfX46UOr8dP1XTDewB/CiDLH6/MH0L8k74yKSfsuxF9ajp9fNhyf79+1clbFsaIoiqIouyWxvRmzGjsWPNbWOty7MSvyyKF+4zZ84rEdWLhT16WIuKWb8MmX6vDm1jhefHcTLpXtluxSw2WRyhQ6dhFhZZKYs3kve3mzaby9qgUbMhZmL67HYxvTiCeTeGFlAg3uJntCsF8U4/N7iX1+lBbsOc5g1do63DxzK343cwceXOf1Yqdwx6x6tPSvwFUTyzCBPb3pOP78ei02FKlTrYzdPp6MOPYZke6PBtA3Tz12Pu09smhJZpByfxXCTiTwzLvb8H+zavFqfQepJqKcLyD+cl3Xzsuh4lhRFEVRlF2S2lGDz9y7Eh+eVo9tVhIPimBZkKdsfNFSXPeBYfjdcaUYHnCWbV+1GV+cGYfl/HQQQXPbW3VYlyPYdqzeit+u6EjgZLF63hqMuXkd7qvPU3m7Cytr4dV3ajAjbuONV9fg9LtW47/3Rkj5wrj8wtG47YyhePzy4bj78pG44byRePqsMlS5m+wRwSiO7OP6PXw+hD2VJn5iNzbgB3ctweF3rsUXX9yM7724AR+7YwkmPS5x0NSIZzf5cdqxg/Cr80bgqcv64/gw0LS+ES8lze6dIlNXg4/9dSmuWpg7FZwPw8qDRjT6Y0Hkd9R2Ou2JFceN/1mMvv+3EANuWoM/b9w5PeyGOlxz2zJc+OQmfPeFdTj7lpX4+U7plsXKeRtx/fwG/OLZbZi9F8maj4pjRVEURVE6JFNfhy/8ZwOmlffH3efE8NyTq3DljFq8nidUA1Xl+PyxffCd8w/B/M8OxdUD/CIybLw5ezuezBFn1rY63LcpiA+dOhQ3nVGNKSUirkTEPrmoyekBzSNTV4tvvNyAdTV1+NZL9diac9jdhWU3NeGW6Rvw4Ye3I3tYNU4JtOCXD63FX7Z2rv84Y9k7926KkP3kKX1xclREVHk5vnF8OQZ1btyDg5zfgs1JtM7YRvxhHF7N+GpPwF3gBJ/FuiXb8Zc1Vt45ZbFmVSPeqU1jfSaDx55disE3LMKoe7ZhlmyYtdJY2ZDXqOgIO4V/P78JjzemcI+I74dah0aIOK4MmfPzRUUc511vZ9Oe5zrvzfX4/rK0uf76HfX4zqOb8Gy7yLAxY+Zm3FWTRdXwfvjT6VU4wm7B/z69BdNzL9xqxo0zG7FDvCnJB/ds2KtnAu1QcawoiqIoSkHYU/n1+9fjiVh/PPzRamyYtgrXLg/iux8Z6Y6LlW2aE1jQkCtMfKga3Be3fvZQ/G18GKHmZry6xVufxfLljVgYjOCsI6rw+VOG4/kP98VYCapmc0vBIRjz5+/Aiy3Or81LduCuOk+w7T4sf3kVbvnkUJzbsBWfmOHDzy4ZgOOsRnz7gfW4tzWcDhDx9cPb1+C2Qoq9U2SxeW0NHtjcXrSlNm7DJ/+zFS+061L1YYQrPtvwIdRugQ8jjxuBF8+vxqSIu0gIxWK45uwBOK9fCaaUcat8bCR36r4tjLW1FjetypghFZmmevz1Pa/32IehFUHwsMFYEP3cgxSX9kKqEX95Jw43OQ3p2lr8dn5OL7U0Ht7enDY9zqNHVeMrpw7Hw2eUoWT7DnxnZrytYRAsw88uHoQzpUHE4S7zNnXyIjuBimNFURRFUXbGjuO3D6/FTXUx/OhD/ZB8YzU+/74PV10yEj/1np2LjHrrzTU494V6bMvXmuEYvvihYbi2SgRQqz6yMWtjEulkE75580LEfvMeRvynBitlX7spjfU76VUfjpk6Ck9OLTW9s9lMC6at9mRU58KK9O2D268YguM3bsJn5kfw54v64JDGOlz7wCZMizvbFCK1sR4P1/hQ7k0jURQZvDt3LU6/dzOeqncXERFxT8ypw/tNTXh4Rfvxz2Vhf56wbRtW0dichun89QUx5djB+MNRETO7RaC8AjdfPQb/mBhBtLQSt14zFk9ePAR/OHswfnfWIPxkfAQxBNGXArITBAcNwJOXD8CZpTx6FnNWNaHGXReuCGGgnGB1SQDOUOhi0x5oWlWHpxIl+NGnx2H5VcPx/4YGRIhm8ZY0clqfCNgWNrU4P1ZsimN71ocxR/fHJyqzmD1zI27IEduVQ/vj3g9UYYgvi6bcA+0lKo4VRVEURdkZfwSXHVWGoZlm/OrZWpSPr8KJYQvvrE3kiKEsltWksHXxBpxwx2p87pmN+M6LG/Gt5zfg2sdW49zb1+Jf9X709ebFzWawPW7LXg5py0ZDOmt6CbN2Fql8kUV8IZx52mg8c1YZ+smeGxqcXsXOh2Vhxrs1eCUexFEjYhhVJiIv7MPwwaUYm9MDm09zTRJr00m8ndfzuzsat9XjZw8ux6nP1GOpZeHp6WvxxefX4sK7V+NTdy3HZ95LIyMi+Y4nVuCSJzfgqsfW4ivPrMXVc+KwfD5EvHaHP4CqiPMSXJwf4LhvFS55ZC0+eMsSnD8raXpQM40NuPZfS3DWQ6tx/j1r8PU3a/HS5hSWb2/By0tqcOMSaTxUxnB8eXvZ3TE+DBw1CE98YjDOjkmcNqbhjVYIVIRFhFIcBzkFs1Bk2rMxs6oZ2+0MlqxpwgxZd/LEcowRJZrcXIPvvSDX9u8VuPg/63DTdmePhpXb8Ju10hgKleKiUUHZsBk/uW8lPvXsOom3Dfh/z67Hl2c2iYD2m57trsKXFVy/oiiKoihKDjbefmsVzn+pBVVHDscjRybw+Qe3Iz5hOB7/QCVG+jO47f5FuGZ520wF+fhLqvDgdSPwYdMDm8Wi2atw5gtN7cYOE39JNR752nBc3JHGseP46a3L8eRhYzDzNPaHdiYsG/NminB8OYmTzxuNvw+oxxUPbMXa0cPw/MW7/khG3burMPjJRtiV5fjRuYNx3dgo+hTaPmtjk4jRGSL4nllaj4fXJFErgtIfDqCfCMGt7tN+vlPnKS5PLvJnQMRjxv2AhS9Yij996RB8rZJb2Jj+wlKcOSvlNAZkL16zGxwqBpZgxI4WvFcg/DZ8mHzaGLw5lfFVDFm8++oynLS8AjOvHoQjed3pOnziT+uwaeo4vHxCGH4UmfbSILjx7sX4+pqOti5MqLwcPzl/AIa/vwbXyMV6zw36i0Lf5v7whcrwly+OxldMvO092nOsKIqiKEoH+HHcCSPxnxOj2LpgPb6wphx3XVIN/5JtuNM83vZjyrCYGYtaGB8mTOqLD7QOTfDhiONHY/7VI/HX0/vja8dU43OTqvGJYUGEykLY1deO7ZYkljQDgypCrtDbfVh2Yz1++VYSJ507qlUYrxg+BE904utxJX2jGC1aK1XfiJ88uBSDfr8IY/6xFMfdugwn3LYMk29ZivF/XYQ+v30PQ29eiY8+txX/WuUJ4xi+ddmhuHGc18vahi8QwzdPLi84u8WQcX1xeYUn8Pw4fnwlDitwnj5/BJ87ZyT+cExkF3EPDBszGP88sVhhLGQtvL/Dgr80jCHe8f0hDC/zoW8Jh0KYBUWnfWnY6QnfHaVD+uN3R4XN8I10YyN+/MAKXPVeFof3Dxa4FskHxwzAZ7pIGJPAzwTXryiKoiiK0h6fH6NHVeDw5jhWV1bgyiOrceVRVTinOiCyxIcBg2MY2BjHO7UWGr2ePJ+IqKoSXHrCUNx6WnnrC1wOPpSVR3H8iHJ8cGwlLhkbxaZFO/BGRR/88ohoQbFlNTTgvx5aj1tqI7ji9H44o/VraLsOKxqJ4YKjqnH5iBA2rqzF45k+Iu77YWLB+YPbExCB3bSqFtPcmR7sjI3aFgubmixsaBS32cL2hA35147yflX47WUj8MNRYRwxIoaS+gQW1llokmBipVF87Kzh+OOJlTgyHcfs7WnUS1z5fUEcM34g/n1+X4zLObdgRQmmRNOYszmJrWmRo7Jtv75luPbc4fifwyIYN7IMY9NJzN+eQq3EPc80FglizOAyXHmyxP3ZVRhbrDK2U3jq5bX4/LwkxkwciK+OdF8U9PtRt6EZ1iHVONsI+CLTXvLRhEFhtNQmsLwhg46+9lw5qA9uvnQwvnBEGQbUNGHa9ozpLR88dgie+mg/jKxtwRy5WD/DjUVwznFDcccZFRi0m8ZOMeiwCkVRFEVR9g1ZCy+9tAoffiuBE88/HM8clzdjg6yft2ALvvaSCN5mIDR4IOZcNdB5zJ/P7sLaA6zaOnyVonyL3TabQgdUVpXiI8f0w/cmV2Jca2/pgUQWtZtr8dPnNuOm9RYsfww/v2YMfjygXcumS7CtDDY3plGTsvH+3HX47JZqzLtyQIFechur1jViZksIU8eUYGh+N3w3oeJYURRFUZQex4634B/PrcP3FibRHC7HTV8chS94QwpsC/OX7MDv3tyB+zdZSHOZL4grLh2Lu47YWfTuMqy9xU5jzpI6PLSyBe/VWahJZ5H1+VAaCWBgeRhj+sUwZUQZzhgcQicnhdjPyKJmSz3+9tY2/GVRHN5kEEOOGIG5l1aZGSq6C/PBkdvXY9aYUVhxYcUuh4j0JCqOFUVRFEXpOUT4zlqwFd9/dQdeaXRe5hpx1Ci8e1EFqpDB2+9swvdm1OHVuva9tSMnjMAbl1RhaK5Y22VY+xmZJO5+eh1urxyEe4+x8cuHt6JlyggzH3APdYjuROOmHfjetG24Z23KmSrOJVRRhTs/Ozxn/HPXk6qtw3UPrMO/tvnx0UsPx38m7KtY2BkVx4qiKIqidDupxmY8OL8Wd86vwws1bcLXX1qBW68eic/yhaqshdkLtuPm5XEsr09jSzyDpowP/Yf2xT8u6o/J7nCFToW1X5HFhnmrceRTjajzhXDC4Cxmb7SQLanEHdeOwKfK9sX5ZlG7sRa/f6cR79SksLE5g7pUFoHSEnztg8PwjSHdJVYzWLRwC774wnYzVMZXWoUHvjQCl0Xd1fsBKo4VRVEURelmslj49lp88o1GLGm04X1R2BeM4CuXHYI/jy1mfHBXhtWD2Gk8OW0dbo4OxL8nA399fAtqjhmO/zsstM96jnuWLLaKGP/tq1vx95Up9yt5Phx36qGYcXqJ+ajJ/oKKY0VRFEVRegwrlcbq2hTWNWZgV5TgzAHBPRazXRmW0l1ksW75Vnx3eg2e3JBG7te4YwP649krB+O0/WWwsYuKY0VRFEVRFKWbyGLz6u345TtNmL8jiZUcLpPIIlhVib9ePhyf67f/NWdUHCuKoiiKoig9hm3ZSPn9iO6n3fwqjhVFURRFURTFRYfmKIqiKIqiKIqLimNFURRFURRFcVFxrCiKoiiKoiguKo4VRVEURVEUxUXFsaIoiqIoiqK4qDhWFEVRFEVRFBcVx4qiKIqiKIriouJYURRFURRFUVxUHCuKoiiKoiiKi4pjRVEURVEURXFRcawoiqIoiqIoLiqOFUVRFEVRFMVFxbGiKIqiKIqiuKg4VhRFURRFURQXFceKoiiKoiiK4qLiWFEURVEURVFcVBwriqIoiqIoiouKY0VRFEVRFEVxUXGsKIqiKIqiKC4qjhVFURRFURTFRcWxoiiKoiiKorioOFYURVEURVEUFxXHiqIoiqIoiuKi4lhRFEVRFEVRXFQcK4qiKIqiKIqLimNFURRFURRFcfFlBdevCLbdCMvKIBCIwM5A3LBxfT6fWe/3+2BnZQGyxp+1/a3rPLwYzVvswGWFliuKoihKL8KTH14d6v2mm0olEY1GpD62zHpnG5/UyUGzjaJ0JyqO87CsRnPz+eBHPJ5EJFIiSwMikDPujSuiOOAXvyXimB3vNLlpZR3/vBuYjvwv/vaYyN55saIoiqL0KjJSr7IedbUx7Kxt6tl02kIkHDLrCetci8siMfmlFajS/ag4zsNKtxg3EAwgY7HnOCiubUSvbQRxAMlUAosXL8JL017EnDlzkUwmzA2dydiwba/l66Ne3hmKZh3MoiiKovRybJtPY03fEkKhAI4/fjLOO+88HHHEeERFCPv87GJyeo0zdgbBYFh+Bdy9FaX7UHGcRyaTFDFsIRjicArbtFwDvHvFtm3djDfemI4HHrwf9fW1OPHEE3HkkRPMo59AMCjbBVpbwBTRTi9ye0xka8NXURRF6eWEQk7vMHuMW5rjeH/RYsyb9y5aWuI455xzcckll6KyolLq2KgIZfYwB6Se5bAKrUSV7kXFcR4ZK216gSmIM2zWipy1bQtvvz0HDz/8ILaIQD7jzNMwSURxKp2UbTOmdeuIYYYg/8n+tlih25dDLxRFURSlt8PxxE7dyaGKXOJHKBjCps1b8PyzL8h62wjks846U+pZCuOQ6T1Wcax0NyqO82BvMUmnUghHgmYIxdIlS/Dfv/gpjj56EqZMOQ4VleXc0ghj80iIf240UiCzdcv1iqIoiqIUhsLYtp3hiKbeNMMR+bJ7EC0tCSx8bxHefHOmCORLcNllH5X1AQRDEdlTxbHSvag4ziOT5vhiadFm0ggEfZg5cwZuuOF3OP/8czFh4nikRCxHomGk00nzSIi9yhyLHI1EzQ2esdNm7HFQWr8UyHyxz7uPM5aZ9gJ+89u7uRn99HvJUIyfLtlTP11SjJ8u2VM/XVKMny7ZUz9dUoyfLtlTP11SjJ8u2VM/XVKMny7ZUz9dUoyfLtlTP11SjJ8u2VM/XVKMny7ZUz9dUoyfLtlTP11SjJ8u2VM/XVKMny7ZUz9dUoyfLtlTP11SjJ8u2VM/XVKMny7ZUz9d0lm//BJRTD//+MzVL0KZvcnJZAa1NbW44447cO3nv4hTTj0DsRg7pxwRzaGLgYCOQVa6Hn01LA8K42zWlhvOjy2bN+KBB+7HUUcfiYlHHiGiN4WS0pgRyCUlJSKG2XPsQzgcFjFtoampUfwRhIKc7QJmDDJfIkin07DEWCAEHGVs/G0FhOeSYvx098bvUYyf7t74PYrx090bv0cxfrp74/coxk93b/wexfjp7o3foxg/3b3xexTjp7s3fo9i/HT3xu9RjJ/u3vg9ivHT3Ru/RzF+unvj9yjGT3dv/B7F+Onujd+jGD/dvfF7dNZPkcu61/WLZW3LdCJJNYz+/frgw5dejDvvuh2rVq10e5adKVQLvdejKF2B9hznwSnbMiJ0OXXMgw/eiyeeeBSfufKT6NOnQpanzfjixsZGVFRUmHkYgyKE6VIg8xGRZaUkFGemCueG9yMUCppHR8mkbC83tXnBT1EURVF6M0YQG4/jmJ9+8xSW9WkkHEVjU5PUoWE899wLCARL8LWvfQelpWVmc6I9x0p3oCotD44jDgT9SCXjeOSRB3HW2aejvLwEiUQC4QhfBMiKMC43QteZ59iHWKxERHHGCGCfLyg3a8hMAcdl3CYeT4iAtswNzbFUTkGgpqampqbWiy0rdagx+r3lMJ1O7KRKpuIIhwNSn2ZxzDFHYeWKFdi8ebOpa1m3at+e0l1oz3Ee/LiHLTflu+/OxS9++TN857v/T25CZ6oZ3qwcZ8xHOWvXrseGDRswefJkZz/ObCHLI5GIGUbBWzxWUoImafX6ZbmZvULcaDiMrPvSn6IoiqL0XvJ6jl3SVtoMXYy3xBGNRZFIxGWLAB577HkcfezJ+PjHLzfb6dAKpbtQcZyHnUmbF+z++Iffo6GpBhdccJ7cfLbcws6Xe9iibW5uwfbtO/DkE0/hsssuQ79+/TBz5kzMmTMHX//610VEO+OMN23ahFGjRuGJJ56QfZrxiU98ghEuNzn/FEVRFKU3ky+O+ZvTp/Kl9qCpRznEkUMTE4kUli5dj3nzl+CGG/7gTgPnN09pFaWr0WEVefj8QWMLFi7E4ePHI+vjRG22abkGAj6kk0lYqTTKS8swYthwM2Sqqb4JNdtrsOT9pcikMggHw+b3rLdmYdvmbYg3xTFv7rsI+gLOYyDupKampqam1quNlS6t/W8/v1CbtY0LH7+O57yEN2LkMMye/aZsJOsCrJst8StK16PiuBBZH+LxJEpLS70FKCsrNeORw+Eg5s6di+995yeY/toMZOWmjcViqNlRh40bNpteY07ZNmjgIMSiMfNln61ba7B+3XakUil3WIYEqaampqamppZn/I+OM2SCxk4lX8CPYCho3vfJImOGK+qQCqW7UHGcB29CWkpuQPPJSnO3QsRy3LRcKXCnHD8ZP/7xt/GNb1xnhlesW7dOxHMJJkw43AylWLZsGf75z1uwdu1a1NbWoqKiBFOmHGnC5aMgRVEURVGKw8+ZKaRK5rCLLH9Lnawo3YHmrA6wrCwikbDcgM7jnLIyzjThN1O29e3XD/3798fgwYMxcsQILFy40IjiK664woyRmjZtmmwXwgUXXIA33ngD27Ztw+WXX27C0GlnFEVRFKV42FtMdWyGJxLXUZSuRl/Iy4PzK3I808UXX4TvXv81hMJAMJBFPN4iYjmETDojt2YApSVlSCXTlM5yo9pm2jaKaT7mccJwZqdg9JqZKmQJ38ANBv0isvVRkKIoiqJ0FlOrZsP46te+gxkzZki9HDR1a8DPz0krSteiPcd5eE0FNlD56MbOOLNUxGJR03NcXl7uCF53nkV+1cfmWORIEMFQwHx22sqk4JOYpXEdX+Tzi/GrezRFURRFUfYC0xGl06Iq3YMqtTzMUxuBUxFzbmN+Ec/rXOd4YX4MhFPMcJlnHCpBly8K0M+X7iicvfHFfEmP67yeZEXZF3gVCfMmjTBPeuYtZx5l3mW+VRSld8JyIFd8euXDvi4XpFpuLafoKkp3oMMq8mBscFaKiz50Eb793S+jJEahy8KAhQQHUcjN6H7RR+SELJEdCoySYDhO77IjOrxlHIIh/5vfitKTeE87iFfxeQ02usRbxrH19GvxoCi9G5YZbCznlhP74t0ZlkRZhHHdV76LWbPfkl9uwx4hs15RuhIVx3kwNooTx7K8gDj2hAULFq9A8aJaW7vKvoT5kPmTMC96+ZRwOc3Lt17eVRSld8Fywauzcv376qVyHl3FsdJTqErrJnIFR26rW8WGsq9gHsztDfYEMH9zlhXzNSpZxmFBxNtOUZTeB8sGrw7jUEKWCzrbktJb0J7jPBgbXdFzTEHMAoVQkLBgYVTrOE5lX+H1Fuc20ry8yXzJPJtbIRJvO0VRehfeve/VZSwjaPTnlhE9hfYcKz2JiuM8ukocU3SwlU2XNzALlNraOmzbug3JVMrdysNLAhUibfREtuxt8e3EqVOh+GBJRceP2jQ2NqK0pARlZiYW2/QgM+/6ON2Ksh/Q24poLQf3C6Qy5EvprBP57gzLhVAojAED+qNfv77uRj0H7wIVx0pPoeI4j64Sx8QTxoTumjVrcdut92DZstVm6je2yJ3jsfDh9mbTNpgyvbSeYLTtlDHd+GCUtK5zl3lTR5v4FJef5LeYbK0bKgbGq8RJKMgeIS6w0dTUJJVeBBUVpUilJdL40qgkgG0zj2sE7mtYNvCBk1dGsM1i/Mzf7s3gl/zOe4BpatJX9AL38do33Jb3lJle0vVzu2DIGVZj3hPmdlzGe0fCYZgMIxKRhlSaQkk2MPu4xxa8Y/AhmROuT5ZJOSn7emHyODwez51hJZMcYuYs84zbmPKPfnc/Llf2HUxuJgzzSIb5SsoKvy+ICy86B5df/nFJIG7BxKJrtpYasfsSzTlKnjjmn0/FsdL1qDjOg7HRVeKYj6ByHz+tXLEK//O/f5TlPkydOtUchy1yS0oezpfsBMTagVu37WeO3csqCsaHkzO9eOEyzhUdkPhzXhhLJhMIh6NmuS01Mz++Ul5eitraGjPbAns+vaEETvoxHIbnxW3vilTb5phiTjtI8RQyFd6SpUswe9ZcjBgxFFNPO1XiTGIoa1SzuG0vkyr7DuZ1GtOCDWr24LFsYRrGYjH5bcl94UyxxSdUiURS3ICZPpLbcF+nXHPuG95DfGLA+6iiohzNzY0mbK7jPWRZaRGxUXNsJ7wWs20kEjHHd56ImdXm+ITHbmlpaT1P3n88vgMFjM98JIn3bDAYNufCsELSSvOqIP4uKSkRl08vUpr39hP4tVem95Ytm/Haa2/g4os/iC9+8VpZw3rJrRtN/SV5VerF7sI5QgRfue47mDVLxbHSvag4zsOpRLpOHLMiIYzmlStX49e//hPGH3Ek/t83v2E+ECJ1iakoaJxT2QRmChgKOLrOcTs6xsGIyZJutnQqSFpbNuUqVsIUCayEX3nlFZx22ulmP37JkJVsXV0thg0bKttJ/Ju4Yzx6eJHpieTeQNs0TFkRQIzDcDiGRx55GH//2z9x1tmn4dvf/pYrqhIIiMscLlvKHl58KT2ORD/LkZqaWqxYscKIx1QqiUGDBkuDZgSamhpFYIaNSG1sbJDGYYW5D5qbm822vEf4OxqNoqGhQUTFHJx66slGNFMg8z6i+GlpaZLtS80yDwpufvnT25/bMtxYjALWGX/Kxj0bofF4HH369DGCmPls0aKFGDfucPEzJB82bdpslg8dOsTsR+NxOaQnIfmtb5++8Mvx4hTYUmY6w3o03+1TJO+x04GJyEbSwvcW4le/+i2mTj0F1157jWzAuo91o2zoc8pXFcfKwUJvUgd7hxQQLKyLtVz4y4hpZEQI81aXSsJOywpLfnMIhiw3xp5kWjpnWW8yxoWJcqfyZVyxZ4LLJMfSGI/hcNB8jfDRR5+Qyjpteowff/xR/POWf2D7jm2msmUPtBNernnHyD/uwWwcA89H3pKnJP5s2xJjT3LW5EHLolDKSnympdHG4T4iiphPe1087X/GvP7WzJl45dVX8O677+D99xdi/fq1IowbUFFZLqI2atIzGg27jcM0yspK3DR2BCx7Yrdv34r77rtPto+Z9C0tLZF1LJiyCIlQZR7gJ/IDQafRn8lYiEiY0VjY3GdpWR+Sey6VYuPJ2Y95KRjym3OIJ5pNeDyvu+++34TD3xTzGzeux9atFMjsIU6b7RnOmrWrMGPGdDm/hJyTLC+NinBn2an5bl8b6yWmM9MilYqb8oPdQxnJU6Z8lrQtVOd1p5lKVFF6ABaNSg/g3disLBwxkpTCRYoaEcUZOyWCJG3EiMgTZKVQyoowbjP5zeW9wVqFGXslHBHMXnUOj/Aqe1aqXqXO3icW4mvWrMLf/v4XJKUi/tSnPoUjj5woG8i+jFOGx955E79O2K1x3YssmWwxcREU0RIMBUXMtLh5UwSLiOKMxC8bE9Eon5awUVE4HLWeNPawBlFfX4djjjkaF1x4Pi6+5EM4bvIxqKndgTvvvAN33XUH/n7TX7FNxO+9996NRx59GDt27MCrr76KN9+cgX//+zY88cTjpteXQofDKLZs2SLb3oMbb7wRc+fOEXGaxIvTXsDmLZuMf9WqFXhv4QLZbhNuv/3f+Mc/bjLCnPfevHfnyu9/4LHHHpHjbJdtV0qD9GYT3vuLFyEsArtGGqq8R9krzDxFcc67+dVXXzbne+tt/zJi+vnnX8C0aa/JOT+E5pZG2S5uykPZIycO1PaFsVz1B2xJTxa2IoilTAiHnTqsTaR6ntYFinJQwGyudAJpt0ohv+dmwhCHY7f4uJIv5LHS4FN/jrtzRl9wrKdnfFzVC429FtJgcMSZY0bkimhmzxb97CFzeqTiZlkqZZtKuKKiAscddxz69etjhgdwW2MiCJzHfrQCx+wlxgovIsKX4odxEQxKhpT45YuLzJvOo2xpOkgmpVA2vfUFwlHrQZP7ISWCkekzc+ZMvPTSNBGUz2Lt2tVia/Dssy9jyNBBqKurwW9+8zscNu5QvPLKq9i0eSNmzZ6NV197DRMmHoF358/DzFlvyb3lE1Eax+13/Nv0Cp869RQJ43ls2rTRhDdz5iyTB/gEhmHeJiJ29OiROPbYo/HMM8/grbdmyPGfw8knn2juvX/961bcc89dGDZsCA47bAwaGurcxivHDSeNsGdv9LJly3D//ffhyaeexOTjJ2PIkCHmRdCBAwegb98KjD5kBMrKYuY+5fa8/wvGh1qPGTsUmJZMRz4dYHonkyKcpYHtlM05dZypH53x5t1q8qcoPYGK407jfCGos5Y7UwV/ezc3xbH8NOGxFzRjUQhTJMt6SQ3nUVV742PR3mRsPHB8Ix/rMq6ceMti8eLFWLBggfnNsZHBYEgq37DEnw9HHHEEzj77bDz33HN47733zPABxjvj1QmXYea6vc+M+JXY4nhPEzemC8jJY4xHxju3SST40lTArC8UjlrPGtOFL8NVV1di8OCBZiqtsrJSaVT7MXLkEJx22lRMmHCENAwniWg9CRMnjsf69eulERnBWWedgcmTJ+OYY47F5s2bJW1TxmV4J5xwgiw/BuXllVi1ajWOOuporFu3zuxbX19v8sSaNZuwaNFizJkzR7ZZhWnTXjK92G+99ZbpnV66dJkcpxTvv7/EjB8eN26c/HZe5vPyGMV4NutDaVmFuXdnzZqFqqoKacT2w6GHjsYAEchTpkxxe7ade5sUigu1njMOo2DZwHRkecC04XL+bm/ONj1i8qcoPYGK4wKwEPBcz/YE3szE259vfFMI8zdFMlvafGEslUojlUyZqZCMybpc49RIvclSKUcUh8MR3HHHHVi2bLkIg2rMmzcf27ZtN/H26KOPYfbsOSbuAgEbiXgCxx57LD7+8Y/jqaeeMi8wsXJnnDvGl4A8t/BxD3aj8OXcxnwZy8uTjuvMgsC4ZCOEccQZD/i7UDhqPWk2Av6gSZdJk47CqadOxZlnnoWBAwfJPcK0y0raZURsVps04/YUmUxjpiuN9wGNjUkvrSlamR/oMhzOTnHooYeIP4O77rpLGprniGgux9Chg+S+Ogbnn3++eWGTL90deuhYOY9Tcckll8iyb+Cyyy4127BR+tBDj0q+4UwYPvccOONF2CybOHEirrvuOhH4g2W7R4wg53WJ5JJzYQ8zxxvzPJ3rLRwfaj1nfGLn1H+cEYV5JRx2Oi7a4wlWFa7KwYOK426CBQpFBnuQnQqILV+OmxVXBK9TsbGwiSEWLZHKISLb8XGiZ/wKUS80XxBBiQsggIyVRXlZJW699U7cf99D2LhxEw45ZIyJu379BmDFilUmDkePHm1eynvi8aexaOH7Uslyeimf6SVjeI5RCPAYjFvP37ssa/ulEcYnFeJKA4TxkrFsiSlpNIjAcqa+yxoBFA5FjagpFI5aD5ovhKamFvMCG2e7mTVzLqZPf0v8a9DSzKkMOTwrIAUKe/YCIi6jqKiolHsohMaGRqxZvQYvvvCy3BeLMHzYcFRWlKK/3DsUpLNmzsYrL78q4deaHt9AIIyysgosXrwMJ554ighwzvbix/ZtdWhoiGPp0pU4/fSzpIFaI/vEsXr1emzYsAlr127AwAGDRfQOlfNhwytoxre/+uobeOutOZg1a7bpqX5vwUIsWbwUI0eMRGVlH9P4okDfsWMbpr8+w9zviXgKVppP3XrnPbo/GdPRKwOytlNfJRIUzeIVv4MriM0QLEU5eFBx3I14vXOeSGbvSFAqg4BUXEGpiOyMD8lEWlrlUrBI5eYYZ9OnhYxlM1IwZQJSOPUeY++5lc6gvr4R27fXSoVejbq6Zpx7zgdw6CFjjSjYvGkrykorjMD7yGUfMz0dW7bswObN2/GhD10s4nkgotGYhMfHgGyciIk4bG+Fj3+wGis15j0KD4pgfvjD6R1ylrMSTItotkSkpM3HQAqHo9aT5kdpSbk0CseitLQSCxcuwfJlq+S+qMHIkaNx6imnmXtgxIhROPaYyUZgTpwwCcOHj5D0jIhw3WgE7JQpJ5je4AsvvAgDBgw0bmNjE9av34Dzzj0fJbEyVIlg7dd3AM499wOIRkowaNAQfPKTn8bWrTVYsmSZCOqACOyROPOMM7F8+UoR3usREvFEQTt//kIzxdvpp59p7t2zzz4Ly5YuFzG8HOvkHI4++mgzTrmurt6EdfzkyXLOIzFx4iQcdtjhsmy5lJQsGzlMimKsUFyo9aSxLmIdlbH49KHENLy8Xn7tJFYOdnSe4zyc2LBx4UUX4jvf+8pefT6aUCB7fj5G/N3vbsSYMePx5S9/2byMx54Zfl2KjzzZs+wE5rTSeQznRbLelUQ7dtTg5ZdfNRPOn3LKCbjoog/hjTemY+jQYXjvvQV4++23MXjwEHz+85+XCjkqBXdYxBzHGHN6N05n5YxdZLxz3KVDbhx6Cdab2obuZ6ElszHntrQkRGyV49lnn8Hf/vYPnHTSCfjmN78hFZ/PvKhlpS3zeNspHgpkcKXHYEPGaWfzEbfjchwyywzOXcwp2bxeWDbE6XL5XXfdLWXNGJx33rnmfuCY4LKyMpMPSkv5sZxaBgbnwxscUgMzKwXHKJ900ikSJmea8JkxxJblfHyEDU5+FMR7+Yown3DYBIdR8PhczjB5PN6D9PMpTigUMOEwTzFMupynmefilJHOuxocTuWVmcq+he99ME1ZDCxa9D7+/OcbccIJU/I+AiIrTT0lJSrrrG6CJRG/kPeVr+g8x0r3o+I4Dyc29l4cs0DxxAULevrnzH4bv/r1n6XSSGDUqFGm8uGsABwj6L0AZQIz55Ar3Aof42CFj/iTyZQRAOzR5Je1OBSiubnJVLz8QEWf6r7mpSFuY2ZWkEjjeEWOmWRFzQ8aMA28l3uc9GMkMnLdeO5liGYy8cg87tz2AWzfViMiqc7MFDB27Bik0kkRQXG3UpQczhacsk9hg49lCKdDoyBmvqaYJeztZ9lB4UpxyhemKKa5PYUnvyDJBmRLSxxVVZWS7rb5kp3TGIdpPPIe4fYMi2USh0DE40mzjsMkGuqbEAo7X6ZkOeYIZo4j5lMv57g8N95/hGFw6FNpaZl7/znnQ5HMfMWx0RTwDIdinfOTMwxuyyEh/JgJn2642lvZRziNn6zJP0xPpg+fRJxxxsn46U9/LOukXjTimPUTy1dPHHdPwrHEUnGs9BQqjvNwhIPzhby97TlmBUAYxSxo5syZi9/85kZs21aH6uoqESIcMygVmxn3KQdurQ3EzUkVs66XwXYCo0OisRWmjZmIXtyMCADRAWY7/qYrmsHs46Rhm19xyEoF5sVnUBoVnAKPEcTH6xTK/QdUI5Hkp4fZMynxye/TtOZJZV9j0sTN416yMD29e8DL8x5czmn6eJ94cD0blPxEs9xCZh3388Jw7i++H+H8JtwuJHnCWZaVe69tP+94ucdi/jFDxVy88+X23C73niZcx2Wiu6UsZN50fnvHV/YdbExxqlEOs2Kjq662EWefMxU//dlPZK1bL7YKZElf1o2FKsQugNlBxbHSU6g4zoOx4Ynj737vOpSUOOKYy3hrdlYce4KYvcEUyrSlS5bhN7/9M/r3H4zLP/FxqQycIRX8jLRTuPDgDIzmFjISjoRQ8BiKUgxp83U8J+/GYmVoqG/E22/PwyOPPIIjjhiPz3zmCgRDfIJBcWJJdmTFw3yoKEpvg3UYnwzw5U6yYsVqPPjgw5gy5Xh8/evXcQsxbz50t45ScawcJKg4zqOrxDHFMGHvMf0UyStWrMQvfnEDJk48Ct//r+9KwZNAItlixEggyJtcdjCpQQ8LGR5HxbHSNWT9nK80hOamFkSjZSavPfjgI/j732/Bueeejuuv/46ZFzqZjMuqDEJ8SU/FsaL0Sti5Q+PLzpFwBO+++x5++cvf4tRTT8SXv8wxx6ysXHHsDqtQcawcLGjN10m8gqKzRjHsjCFuw5nXWNaLSEkmOY+sM66vpCRmHnU6G/E/o5AVpUux+TxccMawZpCRRhvHgfJFKT4+5ZAKbwwpx516w4IURel9sN+M49vZuROPOy9nyj8zDj2/vusxcypIRel2VBx3E4XEMQUIx8pSAXMcV0hECuGnj/lCi9z7rnmFgfiNmPZ+q6ntufmlAcZGGfMlxS8rPX4NL512XrTiMrpczpdvWDEWCkdNTe3gN4pjWsTUU3zq5Lz8aZmvuirKwY2K405SqPDYlVFg0HbCFDhcxy+1cUYAC1ERJRQmbVBAc1/PVVPbezM9wZL/2DvM2QvYQ8wptZhf2WBjRciKj40xr0e5UDhqamoHv7Fvh2WE03ucNQ1pfo2R5Nd3PWWK0lOoOO4kXiu6s0YojunPvak5hJPCWLZqHUrB6bNYADliWMxs7vqNKcrew8qNjTAKYuYr5jkKZVaEzJPEEdDOtvxkrKIovRNWY+YJktRjnM6NZYfzgm5br3JPm6L0FCqOu4mdh1Q4N7bfFcrsPXaW8VOpZolrLq3LFKVr4GNRSwQxe4e9YT9Ow83XuoxINWS21Z4aRem98PZ3hlJIueF+vIVVVn7d1qPIOWmxpPQEKo73CZ4QFjM3uveb5Kwz5P5WU9sbK5ZCYaipqfUeU5TeiYrjfYJX6OQXPlooKYqiKIqi7EtUHO9zcoVyvijmixEqlBVFURRFUXoKFcf7Mzq2Suk2vMZYbuOr0DJFUXovueXBLsoFLTKUgwwVx53Ae1O2WOscooBN+UNXksO4/N1mDEptV5b7w4s3xmOuecu5jZdGrT97hcn/OeaR/9tD4of/y39qamq90+R/Me8JpllgcNazDPVmrvCWecu7x3JOQVG6FRXHeeS+Cet8zS5nQRfA8APyX0CiPuD+8ZPU/PNJQdNmsi1ddz+lE7DgNEYxTGNjw2tw0Nz1vR1mrp0iI3dZ7nJFUXovbnngy5lqtBWvdqLrlrGKcpCg4ni/YFeFihY4ncYto50WTp5xmfdT2RmNF0VRisIrNLTwUA4+VBx3FhFX3ld69txYjHRUkORvq1aMyX9FWaEwDnYrFu5RKBw1NbXeYR1RaNueMNXhSk+h4rib2Ommdpa6rqIoiqIoirI/ouK4k4jE3Unw7soKYRZ3oI+5rlA4ars3+Q/ZnczvmuuXiM9dz30KhXUwW7EUCkNNTa23mFsQFKDw9j1gHVWgitLFqDjuJnZ6y9Ysy7XcFxuUzmLbfHPagXHo/BbBy9+m4BQ/X8ITQWzbXE8hLOI4y+XOdlLK8v9WWOgyHE0TRVGU/R8tq5XuRsXxbmBLNRAI5OuponFuZhHKbdrOfKOewfr9AWeBslsymUyrmKWfbkDiz+8PStyydyGIJUuW4aVpL+Peex/A/fc/iOeefQELFy6WbULIWBIIxTNT1k1UpgPDOtjh9XIGFpPvxL8rUxSlt+OVB0492Orfh8WDM3uUcwKmnNqH56Ic3Kg4Vg4Y2MAIhUIIBoNIJpOm0UJ/JmPDsmzU1jbgzjvvxS9+8Vv89rd/xN///k/c+JebcMMNN+J/f/173PKvf2NHTT0CwbAE5pSqFNcMi+FSNGqPhKIoiqL0blQcKwcMFK7e8IdwOGzEMXt8M3YW69ZuEhH8F9x88+1YuXIV6hsa4Q8ERTRnxd+MNavX4o7b78df//oPLFy4BJYI6nQ6bQQxhTF7IXRohaIoiqIoKo6VAwqK2Hg8boSxGVIhbtrK4O677sXLL78uy7KyTQABfxjJhIWgCORQMAIrbZt10158HQ899ChSiZQRxYQCmb3H3nADRVEURVF6LyqOlQMGilcaRTFhrzF/L1y4ENOmvQw7kxWT7XzsCQ7KOo5FDsuWzst4GRHRHPf9wvMv4d35890hGRlj7DFWcawoiqIoiorjHsR5Yu+8mGd87iN8fZTfORhPlmWZIRUUthSzqVQKL730MpqaUiJyOTMIZFka6bRlhlSkkmkxy/QmM7unUxnE40m8NG2a6S324j4SiZiwPeF9MMJr9SyX/N+KoiiK0ptRcdwDsDeytUfSc1p/01Vx0lkYbxwOkUgkzJAKitr5775nopUzMezUCyz/AkFnCAbFL5dRC7733mLjN8My0mkjtvnb7HMQU1gcu54cekNcKIqiKEohVBx3M50XGCpEdocXlxTAhIKXPceNTSkj8DyRx+0oeL1Oevq9fb3tkkmKab8Rx3S5zcHca9yG5jNFURRF2RUqjnsQCjRKE+OKxxNsSnGw59MbL0z69Cnhdz4M3jqKXieend5hLvN6TDlVZnl50IhhmreOIpl2sNJxvtN8qCiKoigeKo47iSe09sbcgBzXFSSFtlPr2AjFLo2ClkMsTj3lZPNxlXDYmQPZ6wHOun/02XbGrOM2tiw64YQpJgwK7FxBzDALHfdgMNLR8oIU2FZNTa23mFsOFKDw9j1g2pBXeggVx52l0I26G8vHWZ7verYPC5wDxAiFLAUsBbAnkE864QQMGtwflsWv53G4hSViOYOQiOFQULYxPcSyTvbnuOPBg/pj6tRTTZieMKZI9kR1/nEPJitEB4tNfBUKQ01N7eA3pwQoTKHte8JUGys9hYrjziIijEKsGMuFN3bbOmeZs43zu22dWkdGKGa9WSXYE8yxwocddhjOP/9cRML8PLRlyk8OnbCshFjK+P0S/5mMJduEzbaHjx9vwqHA9gpehkcKHftgMOfavHzXOfLDUFNT6x0md79TCLg4y/ZtmZB3SorSbag47iZ4I1PIeaLYgx+i8MhdnuNVdgHjjIKWcUuBzGEVtE998hP46McuRf/+/STOJTLFJOod8/OLegH07dsHH/noJfjUpz5hhld4vdDsNWYY9JveiYMUaQK4Pqexln+tXn4ttE5RlN4HywGWC4rS29BcrxzwZGGjqqocV1/1GXzn21/HaVNPQr++VQgFfYiGgxg2dAimHH8c/t83r8Pnrv4M+lRXyl69YWYKRVEURVGKRcWxcsDDTk4OqSgtieDMM6fihz+4Hr//v9/gln/+Q4TxUPz8Zz/G96//Lk4//RQMGTwAGYtTv2lXvaIoiqIoO6PiWDng4Qt4Tc11KCmNwO/Poqq6HEccMQ4jRgxBdd9yTDpqPEaMHAwOKa6t3Y5IlF/Xc3dWFEVRFEXJQSWCcsDDMXElJVE0NzUAWc5SwbHEaSOS7QxnqrDQ2FiHcCiISCSEZCKuPceKoiiKohRExbFywGNeqrMsI5DZI5xKJWWZbaZzM6+ViZ+zVYRCfljpFIJBZ4YKRVEURVGUfFQcKwcFWflLW2nYFMIBydY+PzI2YIllJZsHQkEkRRgHQgGzraIoiqIoSiFUHHcTuVNitbOc6bSUrkGi1cSth8/n9Qw75sU9s3vudoqiKIqiKPmoOFYURVEURVEUFxXHiqIoiqIoiuKi4lhRFEVRFEVRXFQcK4qiKIqiKIqLiuNd4PP54fN7L3N1D/qCntJTOC8muj8URVE6SdtLzYrSO1Bx3AEsB7wCYU+sQ/YyXLVirXDB3n6bXmq7a5gV2kdNTa3XmFsQtPudu76nTfuSlJ5CxbGiKIqiKIqiuKg4VhRFURRFURQXFceKoiiKoiiK4qLiWFEURVEURVFcVBx3kmw2W5R1Ftna9RV/DLXdW0cU2vZgN+a2opDNC4WjpqbWG8wtBwpQePvut2KLMEXZU1QcdyMF37Z1yfUryr6EWTE/n2r+VBRFUXorKo47SSHxsDsrBm5eKAy1vbOOKLTtwW5y1c7FdxLuUigcNTW13mBuQVCAwtt3v+lUbkpPoeJYURRFURRFUVxUHCuKoiiKoiiKi4rjTlLoEc+urHgKh6O2d9YRXFVo+4PZiqZAGGpqar3DWCd1RKHte8R0XIXSQ6g47mmyTsHCgsdxle6ELzh75EZ37vLeRVtF49Uz5iVw721wRVGUfLSqUnoZKo73AZ44aRUp7jKle2gf1703nnPjIdfyaV3n/lYUpffBoiG3nMg1RTnYUXGsKIqiKIqiKC4qjhVFURRFURTFRcWxoiiKoiiKorioOFZ6B/qumaIcQPCGzTVFUZSeQ8VxHrkv7Peut/f5kkUhK0RupdUZ8ygU/t4bkymVTsPn98Pmbx/NDysjv/xZZGwbGdkmY2fhC/hlnexm2DmsfWe7otjtlZ6lUPqo7bkRlhu2a145Ushyyd0/l0L70RRFUQqj4ng3+PjXq9/O7Ypr7/6KKBgOojneYgRy2rLktP3yL+BWgz6EwmEEQkER0SkRzRlnpwMGr9LPN0XpDfAupkjeFXpfKIrSdag4Vly83pRcI6xsmE0825vKp9Ax9t74Z4kgnj9/Pl577TUEAgGk02kEg0HYUqeycZNKpdDc1Ixp06Zh/fr17mUUDm/fmHLgUig91fbOPHLLnlxUCCuK0n3klzhKr6Sjion+/B6bPa2U8o/RdUbxGwgEUVZWhieffFIEcUbMNoKYWZwiOR6PY9u2rZg3bx6i0ajsVjisfWceheLWe7yca7n7KPuO/HRU23vzKKac4X7evaEoirJ3qDhWCpBbQXWEJ5I7YyS38utic8eGjx8/HqNGjcJzzz2P0tJS+P1+Ec4wvcp9+vTBM888g0mTjsKgQYPM9juFs88tP87yyd9e6Rl2F+/569X23grdB7u7PzpiT/ZRFKU3o+JY2QO8x5ydMa9SkgrP1z3GFycpgIEAPv7xj+ONN97A+nXrTI+yT9bbdhaLFy/G2rXrcMbpZ5jlTn1ZOLweNyMGlAOXvPRU2ztrxRO1nhUqXzzrDPnhKYqiFKazpUqvpLtexPNmwfDc7jpOV8Bzy2ZtIz4zmYz57ZnTM9v+3HPXtzdu2z3GYRPRaMz4o9ESjD/8CMyaNdsMq+CYY/L440/g7LPPRWlpuWwXgD8vjB4zc8t5lXOuyf/GaRMHXty10bbt3tA+TOe4zIpMT0KXeTN/u95D+7zrQb8XRxy2w0YX461gOnelSZ7p0IrdvlgrFH5PWet5BOQ3jcOnHJf5k2mQT26ZyvKq0DZKZ/HuAfenwOj14nhfwPMxbVFxTdruu1NRDnJUHOeRWxA4BYOzwPN3heXjLO/aY3SFsXJhQRgKUXyGjUscYWC3Vj5eYelVWO3N6bk1hSrLsm6wTMZGOpVBJBxBeXk5jjtusukprq+vRywWwoIFC9Dc1IJTTpmKdNqSbdPOORUIq7vNxEcmz0wcOfEl0S4CwG9EAHGWFU6frjNzqHbimBTe9uA2uWpjzm/GQlvty7RgniehUMg0yEKhcLfmbZp3DxWyYrcv1gqF3+1myhGKH894TU78s5HO9bw/mAbMq8694ghmrwyiy0Yz1+ensdoemLkv2ii4TU+Y3zkP+hWlO1FxrHRAFuFwSCqaDBKJOJLJhFRMKRGXKal0AggGpGLySeUjFvCHWs1b1mYBqaDE7UbzyXFYWCYSCXEDOOSQQ9CvXz/MmTMH27fX4a233sLJJ58sQtkRM8EgK1XZd6dz3Y3lHXdPLCDxFgzyHPKNywMmvhnXNPr9bmWg9AxeJeyIQ7fh5xNl5ponwCiSm5ubEY8ndkrjrjc3v+7Sn2vecrrF+unmLC90H+yJtYbbGeNxc8sN50kPw8mKWOZE5XSttIhlsXTKkm3Yq+w3DXjeR17DXUWUoih7gopjRWAFkmsOXu9LOCziTSodf8AnvyXLsHIyHWoUEnwED9Mja1mskNp6nRwD7IwPGav7jBVlOByRCjFrpnDjbBRTp041Y4937NgsQjOJo446ysxYwfPleVkWBY7sX4wVOHbXGMSccdOs5MOREELSMHFEmkTgTrRPJ6U7aItfr/exrZfS6cUMS0MrHI7mpWXXG+8fOyP51lh7/6633xM/3bblBe+DPbEC59mxtfUUO+aWI+KyEclqy3uq5aUJt/OGfrE88kSxadwoiqIUiYpjRcgXW85vr3LK2Kx0OBSBFQ8roUyrEOZ2nEaNvTsUnqaXJ8+cMYR02cNLt1g/3V35/Uil0uJSvAdND/KIESMwePBgOX4YEyZMMLNVVFRUuBVqAAG/F0bucXL9Xth76qfbWT976QKm4SEyQOI23RrfO8NblpabXkpX4T3ap7Zy8m/7IpJCzFnmNAqR3VXeprs3frqO3/SkGmvz52/T5nrb0C3WT9fx7xx2R37nmHvup5vvZ1mSbxTB7LlHW6NdXFsSjC4bxSwD+HTLSytPJDvQr/ePoii7xydiQZvWeVCUfOjii/BfP/gmSkvDUsByJgT24ImwYsEqFSJ7T/myCMVMoXLWi1YW6hSYLKSXL1+B//757zBx4gRcf/13jQDy+b1Hf/lCiMu8gHsiieRYck3OdTpwfFfaSsr52WaIRTIZR11tPVpaMkin2NPJc2/rueE1t6+MPJy4cq7Hu5Zi/HRJYT/TIMt4lD+/nEsqmUJJrBTbd+zA7f++HZ+96jOIxaLmM9KRSMTs4bNF1JjrJd5xiOff+TjOm/QFlhf00yWd9PtSCEVSKCuLoaK8CuFIzPSIc0wyHy0723tGmO+8/TsHL5d7MI2yvH4RIY89+gT++Me/4vQzTsbPf/4TSdMUAkE2jDIISNq2nuIBS2587wbZ1Hbva39ARJjEsS0NQ8tKwMpYiLe0oKG+We5b5vmQyf/sXaWYdMLPPRbvBeZ5YmLd8bUrbtuWF/Z72xbjp0v21E+XOMvb/s9dnuP37gmzyPUb8vyt5UKhbeiSNr8pV9vhLGfPMIdPMA+zzAlKXo3GRATL+n79+6GkpFQaxyyzROBTTItwbl8mMX2943jHVTrG6Z3PSF5fvHg5fvaz3+D000/GV77yJXc9v0bKePTSKzeuuxaTWr4IPn/N1zFr9luS/nJuco+xc0FRuhoVxwXoXeJYji+XY4kICwaiSCfpsgeH15WQIzeisWkbFi2aj2VLlotA3maGJ2RkddaWuJEQKCPan2ueXxyRCs6iTrEH1+vqkNaj85ji4WJen1wSrDTFD9NQqlIRNU4lWYjc5W3nYq6z05dR+BrM7gXC4KJwJC0WRt/qMRh3+BiMHDUe0VC1nH9MjKKeEkAaApJXslkRCZK3iqH3iWOevHsBvHgv4hkPzAcSf63Fn9zTWd7TpvdSxIDdJPGQwsaNy7Hw/bnYtn0jamrWIpWQ+9QuMwKN+7KX2dEFXlq0RRjzi88vKSY3C5+uZERgs4fTssQ1v7mcuTFoPnnul2059SCFeETyQSrJZUHT4LOzLCskLClLnMDZGOQxmUY0CkRxfHJ+5lK98/Bc7/ppHgxL1vO6nQUu3Id5zVnnkLOvF5fmWG65Jcc358HjStnBRl0gwKFOlsSjlIEUUeZUuC/PNyc8rmB5w/MxiyQeuMj45b/WbSXNJL5YVjrRIDHgl/waSKC0rFoawMMx+pDDMOGIY6WROVD2jyCeSiESZfxKWSZxFnLj3S+Bm+CV3eDcJyqOld6GiuMC9C5xnEE6m5BKOyL1bQxhX5n5zHIkZCMcjWPuvOfw6mvPobwigyMnjkW/viEMGBhCRYUf0YjsI9dpmd4cZywmK6D25y3+dhVhZykcr4XgUTofQ5TpUqDaTvq14R7MBJS7XBZI4e8IY68C6CydvAYJOmMFUVubQl1dAuvWxvH220sQDvfHRRd+GiNGTpDKPYRU2kYw5Ecqk5D4lrM08dp5uDkvr3eJY4pIcSnezBK5Jrl+c32uwKUYZnxwZgSuY8MDvga8+dZTeGvmSxg2Mij37Cj06xfEwP4ViIlwlRCMwKJWy5qWovvVRT/LCscrEtGINw5LCvjDpqeZ45TZG82xsxwLHw5JoycbkWVswKVl26R5AbaquhJJEeKpFF8yC8HKxuEPWkaHBOWgPP8shzXZ0urLyvnYHFIgudSXhG1cWWcauOLKP0eQMg6ceDALTbmWkU3kXvCErdnY7ODCTMN8JutNGPztPsmQY0GEqbMLy4+weOQcAylHHPvLjNAPBCUmzLG4r3cOYgzLHJP3Fc9VWq88Zwp/75zMtnR5DhxzHJB7IWW2CYYCEj+W3DNNaGoOYMniZmnEb0J9fRiXXno1Ro2eKPEmacT8DE7raKEkFkOihfdPwISq7A4Vx0rvRMVxAXqXOJbjyzlYGR9KY1VoqG1CaUkYieQOPPHkHVi+8i2cfc4ROPrYQxAJp1FexuEJjZJxpFKU87Isy1wfK3D+dsYh55N7LbvD27/z18wtWc92FoolyfjuGeXtaA6bf76UxvLbpFNnKP4aKDiCwTI5RBRNTUBLSxhvz1mJp59egjNOPxtnnHGRhBYRQSCVezJhptbLZJyxlZ2FccQz6m3i2HEpxriM6UhZxB+O8VZ1ble+2Ak0NG7Bfx68Azt2rMQlHz4OY8dVi4hNIBRMiRCWe1YEAScRoUFEVzYr5UOmQgKRcP1xCYb5RUoKuffhazENmmyGU76FzIurwQDLE947GfOSq5UKIxwskUZPA8pKYwwUDU210kDlnNwlZpu0HYdlN8uxOTtMAEGWKyI8ndkbpIySsJ3GW1LSmTmcx2bZxItjiDxZxgGvnX6uY5njxI/RN+Z66PHMxdxc7n4mE/FeZ/iS//xSDnBnCmMJ2yeNA18gLdcojYBMVK45jZTVItfg7mPwws45Rjt4DAbrHZcCmX7xSaSzzGUj3ClXGR8RNLdkUVE5Aps3JfHews148ql3cMaZH8KJJ58l94nEv6Q54y0SiaKxoVFEsjRmRCwru0PFsdI78UorpdcilawVQsgfRbNUGpFIBo1N6/DyKw9h67ZluPYL50olczgqq5KIRJsQT25EJt1gerjMo16pgANBFqDsgWNlxQ+F0PX8ucs7Y7n75rq79vvFdayQn26b3+zjT8s5J/MsJZW4WN5ynyw3lb40kpzj7s7yzzF3eWG/OW6gQSqA7YiWNKNvvwymnn4YvvTlszH3nZfx8suPSbXTLGnVYjSPX0SSI1qU3ePGEx1TkTsVvgcbGX5/RgRwGjU1S/HwQ3+XRnEjvvHND2HCxH6oLJd0R6Ps1iwCOSGNRNk2KKIgG5d7oEnyRtzJI5KGPvakSt7ySXh+EcFJq0mEW4OIYophSTURjXysz5OJRPgipu2Mh89kJeygNIqSsNIi4sJR52mOpHFLskWS2hmSwakIbTsojVmmP4eASEhyLB6TQpXC1MlTvO94FLqe5ec9dxu67pCONpNt2HA3Jtsy/5vr8ozb+MQoTsTvbhsI8WXdlFyHxI0tDQdpPESiso25Yu7DcHhPidAPiPklP/O8GX88J27DP3N8736j65hlc7rGjDQ4RChLI44Nk4wsi8WyaGleh/4D0zj9zBH49JWT5b55Vu6bh80xmNo+hESw82kBz1mrPkVROkZLiF4PH18GYEvlHQkxOzTj7bdfwaJFb+Ljl0/GkCEhqa62Ix7fKJVRk1ToTuVIbcFpx9grRteWSoo9Oqxz2hsrzj2x/HA6NnMuUvt23tjj4JknpGnuMjk+RYsxd7lT+eef4+6s8PnubOwmS4ngaZQ4pNhqkPjcjoC/BsOHh/HhD5+ImbOmY/XqRZJafDQcRSopYkh+KbuC8SMRvFMxxycc7HmULUTgMY35nmY8sR3PPfc4wtE6fPyjx6CiokXSoE6E6w4RpnEEAknZNSHitQUZKy5CFyJiRaWZQ7DFQpEq+YSJKgs5nCJWEkU0ViHiOCZhlcuRQxJODLAjIiIDSKVFQMczCAXK5GwjIpArEG/hM6mYGf/PXloKWCOKOSVaWtZE+sg5RJDh8Aa/nATzD0Uxe6RNPhWH+dycBa+Pv928LILTMfHL2Zj1/F92am/OjBHG5AYTxzXma14jTcS5XI/Z1vTuckrHtMRJKaKRKiQS3JaClMcIinEog2uyD4/LoSnGzHJuIw0Gs9w9VsA9njEOhWEpk5Z7hU9NJN5CziwvQVkXCTN9tko6LsORk8px6WWTMH/+61gwf6YZCsOhHum0NGw47aPl9XQqiqLsDMtPpTcj9SrnauU4yywSaGzYiOlvPIGPfPR4jBwZQySakIqvCVWVIREDnHCfIkGqMjGKYq/3yBtG4lSobcvb/FzXWcvdt6PwivHTzfNLJQxfOMf4Wyr4VhPhQeOUbyJA2vaXxbu1Thw/z88XjcKs6EUEsEcS2UbEYgn07w+MP6ISF144Do8+eodU7vVy7u54UyaesksogRzjUAf68uKMw2tEhFl2C95+ZwYaGt/Huecehr59KSbrzXCKIJ8oZJ0hFezdjYXDImYlv4jYskWs+rKlkk8oUiU85hmUSJhl4o+gucnCovdq8PgjK0TQlsgmMdm+TA4r+2RjaGnO4NXX5qCxUc7NF8Xi99fgP/c/K6KvXMKI4YUXpmPu2wvlvvPJuVSKEKyUffy49653sXUrH2mz91jyEoVra55iI4/DYmwxuhzznBZLisn9S5PGmFlu8qvsI8LUCF1wPHXEsSxNltHMOlcI874XIe4LsEeZx+Q9InnY9GyXijgNYNXKJjzy4FLYVoXEX4VsI40C2TcgYQWyUQTsUnHLxcocvxxPcr+zjbkOR3BTNjvXJecp6cRxxs7rDWzcZEQkZ0ToOj3OWUvSKtCMPn1EAEe349BDQzj55KGY8doz2L5tk4Qk6WVZRlA7eUFRFKUwKo7zcDVeL8KH5uYWEcGcmqpJKuOHcfTRw3HoIRVSCfExfqNUOFmkk2kxGyWxcvNomC8vSb3k9r5RKLOS9kRkIfMqbrq783e3SeWY5de2HCHA3rlMRpbZznJbXEhFTT9dGnu12p9fZ/xFmB2SuA4YiwajKImyp6tZRNMGlJUlMeWE0ejbJ4Lp06dJOsWlQcPz6hqY5+W0xXUyf757IGMuQS7OSOOsM1bVLMuKFDPjYjnu1kJLSx3enDkLJ550DIYOKpH8UOeMMZa4FlWMWCSKcCBinrCkkhRZ7PFk/hGRK+IuK0KSCjVLoSjiOJvhVHxRxKIDEAmOxPq1Ybl3BqJRxLKV4ct7HEtMER3Gu+82YPGSjZLveB/FsHFjAmmO2sj6sH1HAsmE5A9UyHGjsFIliIYHYtuWMBJx5kkel/mW1yh5whcTAR2VsCj6GZ7kbfEbMShiOOvjkx9LfrGX2RliwDG7nMmFLw1SJJvhGtmwXAMFcVSuky/bcTl7dGW5NM5szmTD8dV+8ctWfAGQx0mlwoiEqhGNDMSGdSKCMQDxOEUuywtGvDQq5NqzdhnWrW5GQ63sK/FnXuiTa/BLA9w8SZH08UlDIpvh3MvSeDVCOSCNQ77jwHmOnQ+whMzXJeX8kxJDJZWSPmnEm3dI+tQgKg37886dgoqKUsx663XTuOdQMJ4/j8H87TxBYJ5w8vrBkOcVRdl7VBzvBoodjk90RM/emwf9beE6v/eNSXUVoTBOSqXdhOUrF+O00yaYMXx86S7IHiERi0GpdEP+Mql8KCj4WJQvwrDiohhwfnv+/d94rhzTWSKiwIdQKGaWsZKlcKbQZ+VrpuASccGxvW09Wd1hFLrsoYsh4CuRil0EuoiVkOQPzhqSyTTKOSZx7geOw4L35iGZbJS04lyu+Wm5a+sI6gFvtpF8t1A4B4rxxTSmZZovvvFeC8gycTlThG3Zkrf5AQnOquBHXe02EZ91mDhhsAg7FoyW6WnklGvs0cxIPvGLaAxQfPpF2IqIhQjHYLAUoXClrA+JWM1K+izGc8+/LXmHjS+KwFLjD4eCktcoLkuxcsVmzF+wAsuWrkFlZV9MPv5QvPraPDkan15QCIqQpFCW8zRDlkRkZzNslPYxotJOS7jsgRUxm+bwAN57kncTqQAaGrKIt/DzyRTIpZJP5L4N95HwYghHK2FxVg5Q4MYk7ArZrsxci/cUiMIzEo6JG5BGcwqLFi7DS9MWSwOAn3SmqOe9Ife5nKo/LDJTBLfsImVI2JxDKFQl8R4TkSxxK+LazlQhFKiWLWQ/EbM+aRBkpUHh81Vhxw4biUQEgWAlgqEKOTefWEZinlO1BdHUQFfEuWls8HojEgeyvaQbhbr3KWkKab7QmBSBzG3Ccu+yqeBnY8CO44ILTsS8eTNFpNdL+nH6POZrCmw2LmQfWeBcO9c5fjWaJFsHFN6+B0z+FKUnUHHc22HdwrftAxksX/E+KqqAgYMqpbJMS2HEMYnstWKFLRWjVKiOKzWjSAavV3X3frp7Yh2FV6yfbq4/KJV3Bum0jaSYLRUtRVLK4rhpuilZnkSGU0pxpgCznHjhFGOFjl/IzzgVVWbil4+1WcEz7jlfLMdWZtCnP4VOHOs2rpJ0kzOiKbvAJ4Iogb59+4twlMafpCPzNHsH2evIeYTDgbDEbQDvzJuF8eP7o7xcGkqyjVcRs/HipA0FpYhUYxHXRBCn0kgkU4gnOM1YFQ4bMxFTTjxKxB6Fc5XcR+Wor28Q4Wib8a4z3ngft9z8Mp59egbuv/9dOcUSnHTyiVi/3odtWxNyjjGUlFSICJQbMUsRyYZcBRYsWIe/3PgfTHthppmZgdPCsSeWH72Qs0VLcxLJuB8P/Wc+3nxjmxx7FFYsS+Hft76G9xc2SWNgoDQAoiL8RyKd6itidyBefXklbrllJjZvakG0JCpCWoSuxE19Q5OEzzgqwZAho3DU0YeD82wnks6sNoFAqYjtCOrrMiJsOcNKRIS0NEJSItxFhK9aUSuitFLuMX6Jsg+efHIW7r3vTWzbxl7fcjz//Dz85S8PYemyjXKvlaKmhlPWSXyFq+EPlJsw7Ewpnnz8bTzz9HwR/Oztjsn1sjHDKotpwnEkOf4C9w/LrmgkiIryMPr0CUscr5D7RwQ9Z2SR9OX4aDaaOG8780ZlZaXxK4qiqDhWRAAGkJG/2e/MxVHHjEcoIorZvLQjjlRATq+wiDUfxxyyB8npJc791Oyu/d72xVpH4e3sd4Z00Ar56eb6A0aAUPBUVfYVcRFAJFomFXPYfJmO0z1FYyJSSkV4sIcpEhZBIJWt7Fu8eee6O79U8sZ4fm4c+2W5LOLY0KCI47LyCPoP7It169c7ukDZLc0tcbw7/10RwEGUlbHHlePm+XluCmAnjjMijObPn49jjh2PMF8w5XJpsDhpw7Rg2vOpgjM2PeunmYQxPabz3p2H++55FJFgPxHb/cxME35fDHf+eybeeGMZ+g0cKqIyIMIshscfex9f+9oX8M1v/he+d/21aGyQe8xfivM/OBEPPzQLTQ1B1NXZSLTE5FyrjEikQLz37tcwdswEEfGr8OKLryMUlDxaEkFjc60IVD/KpVXbr89QnHPWGZj+2lbcf99MPPjgQhHYI3HT32cimaiW8xqBxYvr0dxUitmzNuCJJ9YgGhqMZ559T+KJX2iMYc2aTfjnPx8TcV2B0tIB6FM9DAMHDEVTYxZLF281Qzua5dx82aGoKDscr7y8HI2NHKIyXIT7KrmXKnDrbXOxctU2lFUE8eprszB79noRwBER43xZrhKTJp0k5cxk2CJk/+d/H8If//wA7nvgWdTUSgN9ZQNS6QqJv74499xzsWmjhZdeWiliV+I0EDX3obkpWk1uhIAfWfepANOH0yGKLHbSzp+VuIlg+IgBck6LZR37uSFiPG0aSWwE8dPy7DVesGCBLC9uekRFUQ5OtIrt5bCqoDhmj9HmLSkccuihsGx3XJ7bg8bH015PJT/TzLfjWx9zddo6EqqF/IX279jkPzmnIkyUpS3ih71/L7y4CFu2tMgyjnkMSeVty/XStZBIWrJMKmA5Lw5NbTs/73w78hc/DIdxmg1kJH55IIljWUTjKgr0lJVENBpCuYj5uvqknBc3UHbHunXr8dBDD+Phhx/BsmXLRCz5pQHEHkZ+XCMi4pNCKYnaGgtDhw2SvM+5e5nHGfmuAJM0pd8Wy5o8JOs5flXcbCCL/gMGYvVqP5Yu2QLb6oOK0hFYtmQ91q9fh9KyUrTEG9DYsk0EYjPGHT4Mr01fiHnz38PTz7wpgm2z6ZGddNRkzH93K557bhZWrIijqckHKx1FS4sf9fUZfOqKj+KI8ZNQWVUpQptNWRtJq0WuhTPFpM2HQ6jrhg05DB/5yNkieOfLtXJoRRjbd8SxbPlGye9RLHp/LR57fJYIYeflvu3bE1i7dpsIXPbqRhAr6YOt26KY8/ZSbN2SkOV+0yu8bGkdbrttBjZuSMFKVcNKDMCWTUE88uAiEZWbsWZ1E+67dyE2bqw3903f/gPQnODY5IwcqwJDhx6KTZtq5LqkkVI+ABVV1RKt1Rg9pg+q+4/EkUcdL+dbiccem433F+6Qa4lg0KBDcMopR8g9ulTikPdF2NybTrowfZiMdLOwgxYyYrxd2aPP7Tj+mz3CIdHT/fr2Q21tXAo8STvZKBAMSyM4YsTwe++9h/vvfwBPPfUUtm7davKNoii9GxXHinlEy57LuFRm5RXsUXXELysf50tbrhnhZjk7FQVrsWKtO+F4xRBCwXK8+WY9mhqDCARKpMIsQUlJpVw0e8kj5pO0yaRI6DDHZXLoQ6Hz3JUVAQWxn3PVijGOjUDmsAnGO9NB9FgwgGhJGZIigrIUCMUeoxcyceJEXHTRRSIgbfzxz3/D448/Yb4AaaVFYJov23GcakDS2Y/yUo6HlT+JVvMhDboShvNbPDS+LGZM7gUxbj98+GiccvJx+NMNj+OrX7oH1159K/70x0cxfGQZDhs7DEOG9EU4lMVXr/sHXn1lOR58+EU88vjjIpg3oU+/Ssx9dw7++5f3Yev2OpRVlGHKCUfhv354C37233/Do48tNWL5/37/FP7wh9vMbDFnnnWa5FeODeY5JhGO8slHBHfd9Ti+9KW/4Te/ux/nfnAyLrzkLARjGQwaKteXaUIgYqN6QBm2N6Rw+MRDcPYHjkO0zIdgmA2FcrknYhgq4vqD55+OJx59A9/77kP4zrfvwZe/eC/+cdOrkh0D+P3vpuHPf3gU13353/jRj+81nzu/44635Pz/I2K3AT/80T2o6muLjm0yw6ePmjwO/QeV4977posoX45/3fogvv6tv+HO+55AJrAFH7rsWFx17UkYO34IIqWcHaePiP8KTJ8+H1d/7h/4uxx3whFVqKjsI0LWeRnPtBhJa5qIBfhGoTQa2WChYDZDldhI5bAkkcvhEDIcPcZeZstnpnJraGiUc78D//rXrejbtw8uueQSHHLIIbKfoii9Hf1CXh6MDU5r5n0hr6wsIsJIKkF+UlYqQo5jk9LX1JYcE+q8Be7sm4sXreyp4iM7ik1+Ie/nP/ut+ULe97//PVlOEcQeWm7JUj8Xr+Qn3ZhEci0ZO4iwVLQ/+uEP8aOfT8HAgfUiHBPsrjTnR8vya1fsOePb7jwtM/avwIUXgGfvvPgUNp9A5idv+cIb96e4YEXPF8ycY/FFGsaZ8zIVX5ayLI4NlJjO8iU0J77YQ8uvyAYCUdTV1aO5pQll5eViMdnfOS8+Qmf8O2kqRxKXLx7xzfus1VfC9eOmfzyLCy+YiNGH9pNj8kMcHFeZRnl5Gepq6/DCtNcx+diJGDSgj5wLj81xwJzRgmHyAxK2mTmC8zz7JA3pcu5nTjPl1NqdQQJiHMv+/GSun2aWpmGLWGZl7/NXobm5D157pQUrl/nw0Y9eLls48WX2N2lBlxT2W3LSwRBflOJb+j5J44jpUb3hhr/ivPNOw49+9AM5DuOZY3NlL9nOiUsa8Y5DOnfMwn66pFi/53YOaeKZ/FZSGkVD0zZzTXffeR9WLl+LM6aeK6JrEoYOHiDishlf/MpXcce9V0mcbJYorZVtjQpzAjL3ueOa8zHrHGNe8vvKkWyJoTQ2AMm45B/Jr5ESvlzWIPFtIZGwZN1AWRc0Ai3ja0Q4xlkZnA9aJBNZlJX2R6KFLwm6HwSR+5EfD+HnpTmkgwI+3sKP9Mg5yH3IsiPjW4/S8jSaROyXllTBTlZKvu4Hf7gUq9dskOUpKXNWidBciGu+cBa2bN2Kl195A+eecwz69hkOO12GRx5+CYePG4wPnH+YmT+bjYhIiF9p5Ic1ys1Y5oryanHjZrhRY2Mj+vQdjIaWBPwhjgVOyfmLX+7hkOxn8WMnIsRLy0pQuyOF7SL4GxvSeOmFBRg5ajA++vEz0JzYIuVqAGkKdhGujY3Npgd77pwVWLdmDS695EKMHDYYwYBPGoLNiMT8UhQ1IRqTOM3wKY8I4dZ84d1jKfnFm9IRxU4XModYlEk+7oPnX1iPpUvSuOKKT2HJkk2Y9+5czJw5HaedPhXnnXueXIcPFRWVct1Nch0cv1wIJxe0HZt07GcNwbKfXzj06gM6TvllfgrO8rb9WlfsB7DMlDJAytD8L+Rdd92X3W1YR/AaeD+Q7jt/J6YiuOaar+kX8pRuxytZlF5MSISmnQhLncPeFX61Ki4VNMVdVMo9vq1vRuUiYMcQlN9+M9RAsg57aHZjFHbU0Ry6wcecW7c24vGn3pPKkAsHyjYD8c78DXh73hqkshGp8EOwfFGk7VKxcsyR5fMWbEAyE0ZGxLJ5k10EbFKUMV8SCgQqsWN7Ghs3NqG2lpUml/GlKTlPWc8XdWw5Z07VxpkF+JiZn+TdvqNZKsEqpFIh83i5Werct99ZgbVra+V3NebMXo2XX16CcWOPRp/qURJmqVRyfAlLws5yPGg5amtsvPjCcqxc2SDryuX65BwZV2ERx6YnWA6fFx8FTWpKyuGgmQNWxFCW8S7nzq43xr7UChkR24xyM8+07MJ5ds0wDlnfeZPzyrCi5jzVYXHpZyPEaYjwJSwznZ0tB+KjZx6jYDj7ytgwKbS8sPHDEpxpgklREomJleJLX/wqrvn8F7Bhy0b854EH8PgTL2Lliu1y7RLVsmGWvfamZ5hp56QfG7bOxyqcxgLDNWOSs2FJC7kXwK9HNsLKrkIgug6Rsk2y3wYRxvUSpoi6aELSbz2CkbWIlK5FSckOEcE7JJQmCacFsYistzZIfhRhHliDYHid5KLVIuprxL9J0mGVnMNylJZulby5WfbdiHBwG2JshCWDKAmJKE6J2Eaj7L9J0ni7NKKexbQXnhGxuRqf/uRJeHfOO5j5+jKcefIUDBs4Gq9Nm4EXn3sRYw+txvkfOMp8Fj4QiEv4TXLfbUCsdDsCofXGTaVWilCW+yKwFZXlzUinV0iDUK5PziPg3yzXU4NohB+t2YBIeKs0BJKSjxNoqFmHN197Ca+8+KII8Cg+eP4IEd6ybTAubcFm+KWlIDkeOzZtwUvPvoa6bXW47JJTcMioSomr7UBwkzQyGIc1crykXFeLkwYm/j1zGpKmjJJkC9pyP9tSBrCckvuEjYhQmB0cUSxbtgZ33/UQHpIGIWPrm9/8Nj7+sSvk2soQi5aJsOcTNMkvEtrOVlzeo7EI5T3Ee45P5+gPBCjec6Hk80xRlP0F7TnOg7HRu3qOpRjnHKNWCD/5yQ/w/V+MxdARDaITZHmGU5yxV0iUo8W350UY+lvMOELOolTouvMxZy4XGA7zgwecGq0MDz/4OlYsb8TnrvkI6utrceNf70a/ARGccdYJOOmkw2SHkDmfpctW4cY/P4CqqgiuuvpijD60VCprzjPbgumvzZbqZyBOPvEUhEMlIj6akLL4tn9K1idFWJS4R8+a3l1zncEgtm/bgYEDRuCXv3gWP7j+Wvzif27H1Vd/AG+88SoWvb9E0i2I733vKvEvw+LFy7BixUpUlPfBscdWY0D/Uhx11LESJt+E5zyzFl55lS8cLcEVn56CCRPHIJ6oRSLZgKrqKiQTSdm2E8hpGh3GPGWz8qTgkpzll/2DKdOT25zwoyR2GB55cB3u+vebqKgYJMdibzsD6CSiFpKptIiZkATPY/jR0NCAJUsWo0+fvjjiiHGSHk0Sd+ytlxwplboUEM6++w3FXLDEpFyzxSn5eMnyZ5nPB4svk8Sa1RsRb07jpCkTsXbTcjz14nUS+jqJpiZx247D3vw22jK+6TAT2EfYnbCUaT2Cc0O5lotzMiyhYqWVeP/9FSgvr0CZWCwWw7at26UsK0dEGgnsBeYMGv37DURa7pfSUk53J9fMqRuDUqpJ1jCNY2ko8WmPyQcmcFlmGg5+EdBcIr+lLDDmHt/04olA5dCkVMKHmppGyW8l6NO3FImENAYkPVhm0jiVGsf88iMeyWRKGhElItLL5FzScrs2S2BssXQGEbXgh1pkF850IQ0XcwxZYGXYQB6E116uxXe/8w+0tGTRp98ADB02WM6RvY5yvVTRcoW8ZvOEylzbzjjldOfw6hFOGxgIWFI2jMPnPvc5UxdI9OWElVN/mHxWxEG6He05VnovKo7z8Aq1XiOOBc7fCiso4vjH+K9fjMew4Y3myH4rKufmieNKuSaK44Rcus2qp+B1F4IvvzQ384WyKsSbJFxfBZ5/7m2sW9eMIUNKsGnzdlRUVWLr1rX49JUXS4Vaj8cffQ7NjWmMO/woqcg5z28jPnPV+bJzM/jZ3meefAlbtwAf+fAlCPpLZT17WbN47rnnsWHDRlz52U8ZUbB48Urcd9/D+PKXrsSWLU148cUF+OpXL8G3v/VX/OY338cf/3AvLrjgZLz22jQcd9xxePb5F/DhD1+IMWNGm8p806Zt+M8Dz6Kubge+8Y0zMG7cOEx78RUsXbIWX/zCtQhHQpj+xnS8Pv09fO0bF4iwlAo/3SjnIoJMhEZnYf1ixLGIVvY6UchxPKkt8Z2209K46COCdSAef2QN1q0K4lOfugZNLZIuRRAIB+Sa+Da+D9FIiZla7KGHHsE//3krzjvvbHzzm18TMZGWfJkWEeX2ih7QxQN77HyIRNkr3iQCOSyuHzW1tVi9aiVee+UNNNYl8cEPTMWd992GB5+4RvLmetmL4tjZ3/wv6dIG/d5y40g65a7vethAaRXrTA9zvI7SJSv5JSECOWamKkunON0ah9JwyI9TZoVDHLrB4R+W6c0UWcjMB7/Nco7Bc45myYMZEce+sHliQRHEr+zZ0ljOyEacy9h0yRthTIEsJYIsNz2vvogZ8hQM8GMqfnEDZngEh4rw/Dh0wxGkcl3i8Jgc6sNzop9zDfs5hpjhdwqWy5Z5T5JPXCiVs35LztGSfNwH23eE8fbMJG679WUR3iGMOmQcTjhhCkaNHIG+ffvKMTktniNk+XKmN8d3exjfHcV5YVjms+xnOlz//R/g73//swmbDfi2LJNTf6g43iVO7Ks4VnoGU+wpvRvnUbJURlJB8lG9Mx0SXSnoxLJSABl9wEJQfrPQb/d1t91YvCWOivJKpOIpvPnGYtx15wwsXrQRlbLsuGNPQEtTALPfWgzbKkM42Ad9KodJxVyN06aejwXvbsV77y6TMOTcsjFEg9WyXQiTjjwRG9c14e9/eQD33fMW7rhtNm6/dQ6ee2oh3p1bh9v+ORO33DRdfi/F1k1pM//rHbe9iiUL1+LGPzyNQQP7oSTGRo4t51GBQ0Ydhheem46Na5J47KFZuOuOp3HP3feLiH8Jp516KH75y6tw+LgJUkkEcIQI9vXrEpgxYwFu+efzeGP6UlRVVokICEtwPvOIlsMVKEQKxUchowJhvMp/Etd06eV/AdPrbon+aGlhz14JwtFSERtxEX2hoozKg9OZRaOcmcM2ArisTOI8zPQWERmJoLq6ClVVVWZdSMR0oXD2qck5FmNlpSUSlVmUlpaZHsrZs2fh8ccfw8yZM3DSycfjl//zM5wrDYPS0rCIGL7wlZtuXj738nyeeX9OsnWf5f7JAme5IywdN9fkNvaHRJxmjfELcvzgSUiEXyzCoQZsjKckbjjWPy2NSvbSJiX7yfIQp3TkyF0//MGoGL/gx2FEbFxwfgwRvJIn+Ann9sd3XAokznJDwcTx8sEQG4gZWHYcUd5rss7OpiQPi6jhzCziT1vS2JZteXyK52gsJPsxPF6nlw67MaYX5zmWcotllXNOvM4MWqQ1Ho2GkZF0PebYk/Dz//4Zxh0+Fm+88TqeeupJLFq0UM4Lpneb8ovuzvmIM1vQCuTHDiwscc2ecY5frq6uNufpCWVFUfZ/VBz3elipcaQse2ro52N9Z6yrU0GxJ1MqHApnajgubxUPnTDZtrysHKlEUsSjH9V9yjBsaCXOPnsyLr3kRIwcMRifvfJijDtstBGYsUgJ1q7ZACudwOGHH4rrvnKJbD8Uo0aMRJDPe+0MSqIlGD68P77whQtx2mnHY8TIcowa68OIMRl8+BPH4ctfPxeHTQhjxKE2TjljML7x7Ysw+jA/Lv/MZFz1heNw1PEV+MzVxyEYrcMllx2JYSNLcN75J+DEk49AfWMdjjpmhNhInH3u8bj2S+fjAxdOwYABlUY8MbpmvLkQFZVBDB7SH0OHVmHqacfhw5cdLxV7BIlEi1jCVKoF42O35gkgKg7enuxpYm9aVMRDiel1Y+8uX/pjr04xRhFM2HsVjVL0sPcwBc4CwCcjfNxLMhnL9KRxfaFw9qkZAdZJk/PnNXGWj3feeQe/v+FPmDNnDo6cNBFXXvVpTDnhOBExfCE1bWYl4VhrNnDapuSj0Z9rXhrlp1s3mbnXco9Lo3hk9vCEqXc+zjmyx5+93Xyxjg+8wiJ0raTEhyWCzRdDJiV5KiECWBqbyPCFPz4h4lAE9tiKoAtHJI/ZIixbJBalERWLmt7njATGL9hl+CTM752LFy+yr0R2UOKaQxNEmst2HBJE4e350xLffCpiS56Thp7kYQpOPqnwXmT1+7nO+RBHu3jYlUm5QHFsjGlmzs25ffh0jvcif1Dc81PSZ5x5Oq745CcwduwYPPnkE/jrX/+GZcuWGAHM/Zx8n2vMe+LyLz8/dmCEwjgcDqO+vl7up7T5wAh/M94URdm/catDpTdDYcQen0BQJHJaKhs4X5hiryUrFSOIW3tj2IvM31IBdeZPtkun+SjfMhXj5MmjcfGlk3DMscOwecsq/O3vv8UvfnkjUukWDBkaxg03/B533fUcho8owx133oT//fU/UFUdw5lnTZJKs1Yq52akM/VSmTZhyLAKnHraofjABw/BWef1x3kXDMS5F4zG+KMiOOeCAfjAh4bi+FPKMHZCBB+8eASOOzEiYnkQzrtoiIjpICzfOhxxVAwvv34PfvbLn+O5F1/F1deehA9/bCJOOHkAJh7dF/0HS5Ua2Crx04innn4SP/zR37F8xUp89eufElFeiQsuOgqTjx+BAYMqRWi2IFYSNvHIXrROx5H7x9vRqfDFy32Nnx8y4BfDnBcMM5mErGwREcP13Ixu54xf/gsG2YOVQSLpCHgKZa8y54wirMT5wYxIlF+OozgsHNa+MxM1nTMp3VavWY3f/Po3ePzxx/GhD12EL37pS5gyZTL6D+iDsrKo5E3OD5xEaYlINhHHGTO+VhqIHI/K9DDpQnLOwfvL/90dfyYPyIUY40WZUzFmzsxbxycVvC/l3M1npaXBE+bn0LP85HUYsWiFNC5jkGRHY72FdDKCaLhatmNvcqnsx6/eUVyKUEYUDfVxvDPvfbz2+lxs2LANPoZlXi7jnOiOGHaOx/OjK2WFHMv5uIrfaYhx+JUIX8784ZQxFL7ObDfMe8x3bIgx+1FUs0HGsqK0tNQI7dY46MSfKaukzOL58AB80sUnMOFIFMkUp+0T8R3g/NBy7CgbtgNw4olT8I1vfB0nnTQFt912G/72t79i69YtcmwJpZ0xiuUoTOsijL3ElrRs2XPMvMWnNC0tLa33m6Io+y9y2yu5SJnWiimgpVAkhQq/PTEJyfU74fMLXV0Z/p4Yc0Emm8bgwTGsW7sZnO+UMzPwMSVfjjMfQfBLgW56qpzKurVy3K35zUtRYRFlfKufY5gzVj2CoQT6Dwpj6mmT8P0fXIRvf/cSEZmj8dGPTsWvf3OFCJmTcf75x+G/f/FhfOVr55opq0orbITCzhhovr2eRYPEX73Ui80iSKUS4xymUvGwd8aknXt9fLzJdXRZj7KnHL5GCatRzqMeRx41GJ/+zGT8z68+JsJ9sixrkAq0SbZvFCGwQ8Jugu1vwjHHHIYvX3cmvnf95abnOByVCt/XIuFwDGFStrMkv9BlPHlxVShOOjDmBdbEpjI2mUJMlrOx4itBIi5X3NCEyqoKI2S9iruzRiHMT2FzP4oRVtxeGJx+LMTB3OawHCtJGVE4nAPJKHbO/+D5+Pa3v4VJR04yooxz3lKspTNxyRcwveh86XP71gaJa35ZLWrEMV9a5CweWTMslH+SnrRi03WvLPeCeK+2mW3WSeNG7s+MiGLbNGjl3H0xyYPlqG9MoqauRUSviGUriETKh+07GjF77mKsWrvNfHykpcWSVC4RAdyIeXM3yu+obF+BVKJMfq/GKy+vxN13P4t6EdT8FLYlApiflXaeIEnjyfTYOi5FeYAf0xEh6Mz6wBdx+UKac++FQ9LgCnJ7OX+KeQkj4A/B+aKgxLVcD8f9UiQXG8cBSSefG0emTONRWG7J+bBhyfcWSktiZmgNhxTzaQEbgLGSCE46+QRc//3v4tjjjpb42SrhyL2bZ61JUISxcclyiCKZp+SVTc61Oed5wJhch+OXKM1d3sPGrKMoPYHcwkpvhwIgEi3BiFGHYumSdVKKl4g4Yi8MxTGHWdAcpJqQ/2lOBdRp4z8jGDm2WcSkCNw+fcM4dvJYjBzVRyqrOgwYWILxE0agtCyD/gOjOPHkCejXPwLLroE/2CLnyUe0FNiOGDXzxAYSEp74zZ9UlJ6xd0sqcsdylhvj4/OAmZ+VPdqHHjoSRx8zHmVlvE6Gz3l+aez9pfG8LYwZO1xsmLQVEiJE+IKRnIecA4/Pa3I+4MGHtzSSFwe7Min481/scuLa6TmmZTIhEXs7MGjwIPMCE7co3nIwh8tZ1+7wOcsPWLNx4kkn4sgjjzC9dnyBh4uZU2wzM4HfuBxKMVry/uL3V4mwo3AWsRUQkWj5IG0GEdQcj5qf53PJXd5d5nnd3yKwOPMIPyPt5BEKer5oF0W8OYZkSyVuu+VV/N9vXsQ7b28wYjfo74uS6ECcOOVUjB1zGBa+txKzZ7+PzRvj+Jds+/wzC/Hay2uRbO6HRx+ag3Wr0ualvKGDjsFD/5mLxgZppoX7SbywXPDKATaovDKCxt80L7687TzjMm99Ictd715rJ4ydsWzQ2XLrOUNDYhJVERGm/Px3GZYvXYOhw4aZ9Rwq4j154XAJ7ldZWY7Jk4/FpElHSnjePeyZl5/2xBRFORBhCaT0cjhxP3t/phx/EubP2yy/I1IBsqJzeoVMpcc6yLwOTmnhd8z0gOzO2gSp/GLHjhiFpyMsnSnYOJdpUiosqYzRIpVVM1LpBqn868APCpSU8CW3AOJxzqIhFZsJg9LRFa+yl6ki2RvFx+E7iWExI5a5zhHRViqAspI+CAdL0dzYgnhLk4QlgsmIYfZcOdvx7XdaxuLb70lksnE5WgrRmFR9IvT5spF5mckIaEaPe83G6O+8yX9ivBATkPzj8fmSX1iEvE/Mj21bExg1ciwTQ2xP8CptVvqF2NW6A490WvIYv7whOE8P2DPpvBjFXjyKqng8hcnHnSoicrWZ+cRMRSYWjZYaocxeUIqq9unF9PEsd3nXG4WweNqbpH9FRZX5VDNfEk0lJW9saZLzr5Tlh2DDOh/qdpTiY5d9HLff9j62bMpInq/AO3PX4YXn3kEmXY7Nm5LYIsL4/YVbEQ31wWmnXIAF76xFQ20Ec2btwHVf/jka66tx7DFTsWNbDWpr0hJ3YbkHHPHKO8S5T+hnT3EBa70O757gMs/NN2+5t0/njUM2zNAHMWnvSKOHDZ+w3MFlSCbDWL+uHqNHH45IjDNopMxY+4xtmSco5qt5khH4JIVPUAqjQldRehMqjns9UoWFo2hpSaNvn0EYPHgQXn15LkIiGo0o9otQ8NOVn6aO9io5MU947takwgPnBqbLMY58aUjWsI5HxjzO5yPPgPmSFMw4QU6Rxt8xfrUrI3I0ZYlALpfQonA+kiEuYuKPiMveIVd8G/P+OvodQMgXg50Kwkr6EJXrrywvR4QvBIkw5nmJJOJWCGTlvMQi4RK5eE7kz55Ezs8qQlkqWZ6jU0HzOtmYoPHRKa81Px52ZQxDDuzGs5yIE6ZPKni/HD9Ygcceed583ra8rI+IAPbe7SEi5B1yK3z6XTPpcnDArxfypS+Kn0Rc0owzN4T44ZegI5Alr/n9YRwy+jARjDbefWcpggF+6U1ShR+RoRCURlWQU56Z9HAFoTEv3bvbeN/lH9dvvl7HOb4D/ihee3W25I9p0pAqQbLFRv+BgzHhyCMw95338Okrz8XN/3wWDzw4E/fc+wJemrYSDz/8Lp54Yi6On3IuDhs3GU1NGbz44kysW9+CJ595Ddu278A99z2ONes248mnp6Ep0SDyM22G9nIWE0+IeufSGhf5VvB6utr8Itgtt6gKiOjlS3FBhALlcm/3wf33PIUjxh+NyooBUpbIHnLPcjgNhz1QEPMFWsYrh9yYoVc7kXufKIrSG1BxrIhI4Fhezuccwkknno5XX52FjXwJJ7cCMpWfVxl6lXQnTfangKXQ8/MFMxOeIx75Jj3nWk3E0yJcKAJEyNhSecl62HIsqeTMJ2EzIlRFGItclmUlEkaJcX3i+vlVPLkOvunOnt82y7qWs8xsI5WnhE3xw0/isufIyrAXWypJP8cNZ8TYg8zz4fU6PYd8LO+8jc8xufxsdESMb/rzepzrM8LYvNDI33sQVznGGpzjkKX+xuLFK7D4/eU48YRTHcFmrpiwl7ezll/J5/wuKIgLhbGvrTji8RZJWwucsYJzYXPObTa22IOcTqXkstlYc/LYoYcejumvv4XmJs7Jza8pskfReS7hCD3XLZiuXNYdln8czzjTQwxxadTGIhXoUzUIy5fX4913F2HZ8uUibjehvqkG6zevwZjDhuHCS05COpvEJz55AS79GP3N+OgVZ+HQwwdj6LC+uPqaT6MpXo/mZBKhaDMuvPRkDB0dwYc/NhnDD43h4o+ciqGjyuALNpmnPc5wo5zzkbvQKSdybXfX0JXG1GbDjlPUBaUxE5EGjh8LFyzDu/OWYOqp55g05pR0PtMId2ahoECmsQzgy4BJvrFo7otc86C/UJ4sZLn7KYpyoKHiuJdjBiQYscWPV2Rx+LijMGDA4Xj6qXel4qVoKBHjl/Io+ljROYV/2zAC2m78Iibbcpr4zQ+zAraVNb15FJ1B9+UnPvY2AkZEM4UyK11vDmFniAd7TWmeSGRYPKd843CHAsvl/DkPqZVJyjVznlVHDPsDcr4ijJ2vfsmJGJNKTiwSDpkeR75tzwo2FuO4bPfteyMMvL8cf2tc0O2Mn+cmZCnKJL7tqER1GbZvTeG+e18WYXymCJnRUrlz+iumQzGYkItkT/bpToo/H/YEts3IIQ0lDg2S9OdHMZgPLSuJtFhpWTmmTDkVW7eVYPqMlZI3SiVtuW+p5Am+7GY2N+lk8oTgpDXvCS4vxrx074zl7sc8xeM5xpd5OTSEeXjikeMwYcJg/OtfD+G/f3kn/vCnW1FXvxqf+vQHUVpuYeppY/CZzx6Pc88/CsdMHohDxsaxdPkC1NYvxb/+/X/4wx/+hlhZGl/75mm44jMn4ktfPQ1Xfu44fOrKY/DxK47GsZOHIxCKSzy0iCin8OW58X7yztE9XxMvtPxzp7nbFG25+zLmnbT0ltMf4Au/8o8NGp+/RNK7Alu2WHjo4dmYfPyZGDJ0pGxlS6OH45CdsclOnnBcGvNJ4Z7jvcE5PwfP7/12MYvMhSmKsp/QKlmU3olUMVKZhGBRkIkARaACZ59zKZYuTeCRR99BbS1nfuiPbKYvAv5yMREYIiJZM3lFvFPcO//n1I6uyXayjy2ixHFpXCbG9VKpmYqNFS0/BBAUoSzh89Enl/kDznJ+8QqyPGvCEXFjXC5Pm3VZv5y/T0QQXQmusLVtYyElGluuJcRzkXVc7hNxbox+d7l7HMv2ppwKy7lx3CorZ45XpFjnudLkeuT6zNhsuvydZ24smfhq589m5GbMIiRCLGNJOmSqxB2AzRtD+Net01FWdghOP+MyOW4E/KABxZFz+3bWvJMoBm5fKKx9ad51dM6MkJT92Nhi3oKdkKTJSJMqhIj5yIU0jIJp8xXCyqpRuPiST+G++xZi2ssb0JLsg2B0AJqTkvU4w4UIMTMZmGQEZzYGNtAopuRYOx+6A2O+KM6MKJZraHvBlCZ5lC8TBvliYYuI+yQ+d+0H8JebrsG991+Nm/5xDb75rY9i/IQ+iMYaJGdtRzjUhGRyGwYNLMOU48fjq9ddJMvi0igYjq9/fTJ+/tOP4ZQThyMarJfwa+TWbJTwpfGYiSMo8RiUBnIwW2o+wsNzcq7HdU3yyPm2mne9NO9acpft2lg2FDI2Uvg5Ev6ZZVKOZPhSnZwH711bhHHarsbmLTHc/u/ZCIaGizg+R9IvLOvSsi2/gMcnWPKbL2jKwXgP0+/MHCSB7tJy8+JuzOziXnsrnr9QePytKMr+AO9IpVdDYcbhBuKVQtyS2mfQ4FH46Ec/hgULVuHOO5/G6lWNSKerkE6WI22VSaapEpFcKbuWioCLScVSKsvKJYByZG1amWv0l7aaLdtnPSuw3lnHXp/83565y911NkqMZcFl3rHzzTtOnmX5FTvP+LuigOVs11E4xrgu59xazVvXtp1P4siHijzjskqxKjlWH4nb/oiEh2DJ4m34858fkcZCOS699CNImS+eRUTQiUjgVw0NXiXbGdsTCoWzr6wryBcndCTTG28II0YcgSuuuBKPPPIm7rnnRWzfzq/mlUn+54tcfIpSLvdKlYirammklMOy8vJlZ6xd3uuEdZT3zHrm/6hYRMwV6xRjZuYUzzheyRJhmEIkxo+ecAq7LFJWEgMG9sMxxx6JcUeMRjiSRTLdLGUAZ4Lxnp64vbXmP69BwDmKvXMqcH07mXsdRRuv0btOx29ZUbkfqhEK9ZGyJ4pkgu8msCyS9MhUi5Cvxoa1cfzpj4/I+lKcd94lGDhwhMQNr0UauPx6n80nSnIZRWMiopPWWYrdXlGUnsCX9Z4tKa1wap8PXXwRfvijb6G0jMMJKETYZ5EVESjKxOlqlOXs6/Mq1vZ40Wqmi7L5+NGH5ctX4Gc//S2OPHICvv/978o23NcWl4V1fjLkFprdl0S8KjvLeYCdR6WctYEzQ7C3qLZmI16a9gQWLVqAyy47W+LkDNgcisAvWMm2HGbA3hZ+tY2PqdkDyhEU7c873+9dSzF+umRP/XRJMX66ZE/9dEl7v8kXZtO85ZLnMvxwQ6TMvBx1371PYP785Th+yjmYcuIpiEQqECutlAofaEmy9yuAYJE1vPMBYHefrDMu9LFHn8Af/vAXnHnWKfjZz34ieZXjc/nGv7hU4d4p9gr44mca5eUxLHhvNmbOeglr1i7B9dd/FkOGVEteTyPLuaElXkL+iNwzIRM9/PJbfno6fi999tRPlxTjF/OlYHO6RHcVe1jp54dfKiuq0dzSIPmQZZNIXXf2Dm5qpfghIGdGD5ZXvK/NhnnH8WVFINNYFprlXE/21E+XtPn5RMt5tsKlbX6eG2eUMOP/pWzl/LucFzkgjcbamiY8+8wMPP3UDJxz9qWYOvUcuZ/YiOETIyAQ4oAq7puWa2DpTbHvnUvXw/vLG/70hS98DTff/Gfxude0Z+q8h2HHCXvUGcdZLH5/mZQRv8bpp5+C6677srsNG168Juc6nTTsHniULMK45nNfw6zZb5k8wHuR73soSlej4rgAvU8c8zPCnO/VmbCfx/NJHLB3KSzlzurVy/DUk49g8dK1cu5DMWnisSgtKZcKiUMuREjL+VMcO2MhGWrueef7vWspxk+X7KmfLinGT5fsqZ8u2dnvVPTtl2ek0VGzfSMWLFyItWvqzNy8Z55xnhkrmUxJlc70CXFceAblleVobm5GmMNgikDF8e4JBPgJcH7amBeewPvvz8Ujj/xHltsYNbI/Dht7GKorBkiel5g0w2qiyFB50XLS0/G7cb3HfrqkSD/HzEtae8KP+Y1+zgqTSovAFzFfUdUXDfUNRt4GwxyH66Q33w9gKLbkN5YL5uMPJgwHx8//nTLQWeMcZ8/9dElhf644NntKWcmyhsVnY1Mt6utqzVcrV6/ahHGHHYaLLrwMJaXVkoYcNhOR9OHQGSmtg2wgcKrItLl3+GKwG2K3oOK4a+FRVBwrPYWK4wL0JnFM/KGA6VXi6YRCEakYeb70h5BKxM3La0mpVOrra+QalkgltE5+Oy+msYDitQUDFFRZqYicqpPwrPP93pUU46dL9tRPl+zkd38U2oYuafXLfwWXC4X8dEm+37giQPKXs7KvKI9h9OhRmDhhEqIxDlmRNIhEzXnyq25NTfyqHz/Rm5aGi1QK5kXKzqPiePfw08hsiETN9G+879PS8Eth/bpVWLd2FTas34TGRokU5nNJR+Z/W+7h/PSk343pwn4G4fmFQn66hPdiq19sV34O9zXlE8updsgWUsaEQhyKUI+3356Pww47HNXV5bAyUpK5Yo27m5LNzP3rPBFqjzmAHMIZmuBs77Bbv3gKLadLPL85c2+jPNLpJJyv7vGlVL6bYJnPgI8cPhbjxx2Fysoq2UrKXAmI6RiQMsyW8pV5nyPGWd6auY0prqW86vBAXYCK466FR1FxrPQUKo4L0NvEccpKiSBiDzBfTgnB4tRuUqlQsKWSKXOOsWhUBHRcrofjk1OyLb9K58CzM2fLAp+FlVnatpx4fu9KivHTJXvqp0t29jtbFtrGWZPv37XwJ56fLtnJ38Htls1SjEUkm0k6MFtIvuF80Nza5BPxsVc/mUpIWpldzPpiUHG8a3ipFAGhSAQtzXHEYpwqLY7KinIRlHGJOWdsPmdpcNKEnw8XwSX3RKE0d2O6gN/5tettHJe09ZvmL9/Z7ze9uZJBTMOJfkJXSjHLMrNbJFMp/P73f8aHLroA4484XNZwT7EcwZYV4cE/ll/t4bZ8EZbT4Dm/vL127Xd+FdqGLvH8zhG9pe3h+XBqPn4Gmo0TU75y7uJsudw7nFbRuU7eGvwKnuk1lgAtV6RSWHN9xnwu3b2RugkVx10Lj6LiWOkp8ks+xaNw2dyFtFURFKH7kjBnYJAKlVOp8bqdqa9s8AtSfn4YIyiiLJOUOleqUVZGUkBlUeaYr0xCcPw2+NJdTCokxwr56Rbrp7s3fro7+0vEdayQn26bn9tHxe+EkRt2R366Bf3uS4Q7W8TM4iHa2MSzlPryWyoneiXOWdFSV4eDEVnNR8LFV+yeQCmEtpGdO5K3QMZOIhylsMkgIo3CZIoiWPK8T/KA5H2bDRnOamJegmvLF/lpTrewv6N81t5P1+Ynod39csPuyJ+R88lI3rBFsLBHO9d8ch9TLAZCcm2SgzgzohlGIcUPZ+LIUvTTZC1nlmHt0Lqs1Riu7J97zE75d3educvkGmzZr4BZGX6YpVSEb4XcEyKI6feXynlJegTk3Nh452ijIK9Byi82XOS8OT6Zn8nn1/P44iXHKPcEXuPCu72ce7nj+3B/g+fq1U8H0nkryt6yb1XZAQAFhVNAdJW54XoeYedtetjMnxTaVGJSiMsiwekZ8/n4qWfWKPTzsST93J7ijGLadT3/AWEh1xUl2inL3aebzKQFK3L2xLgmce6YU8HLhuI6+WanNNwLY3p6YeaTv+3BbbxeiWcvz4s5eZ/xzxvD6U11/iQ1ZHs+Syou7zMfFcpjHVlx+Y5fhuPzDXN+ecZkdm9xXqgx77cRx96fe63trzf3T3bqxms2T1Ek/IIm4dH1ypzW5Ua48xPvnNrRmaGDwyjMtYiP6ScpLF4+2eKfI1K700iun+SuP7DMO/d9fA1MQ0XpAVQcKwKzgZcVWJnkCjJPJIvRNesJCylvvwPRcgvZQn66nr/Q/l1rjFc+tjdxbMSZGNLwi+sJZa530iP33JSuxNGEjrx0hDJFck6DRczMfS3LzZAKJgMVZoE07dhy029XflJo/91bq2jMNQpLCk/jckyxJ0Q5fCdnu92YOUaXXrOH53f2YcOjcyapxTnPXWHspI3T020S1KVtD+cIiqIoHaFlhCI4AtgRwRRorG6ceoVPV31Skfr55SkxuhzX6FRvrog44MwRmm2/C/npen5uT/O26WqT4zCu+dlsxjV7txjvEsdOY8UTxU4atZnS1TBne2ng5H03fczYSvZIenHvpYmXRzprXt7z9tuVP3d7+jtjgumt5fADfmGRxrHs/E0LO8tNL63n95Z31jgFGuOq0PEL2e6u2dvO83vxy7zfGRMhzL9WUcylPENHCjNUB+8echqbiqIoHaHiWKECEJOKQ1yncmLFx58iFVrFWkDckLj8OhclhLftgWi8vkLL95V5cR1wjfFN4zI3LYzHMyetHGGgdB0S0ybemcfbGihGtDHOjbhi3NOczR0ZVoxxt0LLu848wdhm3m8vv9BPeDa523XeCh23Yyv+mp1z7aw5ZM3YWDFJO8fYAGhNKHHk3E1vPxs6vA5FUZTCqDhWBFYwrCzaKhoPymAzPs+YCLdunhu0Z8mtYHdlPQHjlILMGXfpxHeheO7p8+ptOMLKjL836eGmgUR3W2HJZWJc560vmtx03JUVC/tKrTYTIdhqZlnadflKnucv1va017XQ9RUyJ647a04K0OfcOx1t4UCBzGMULu8URVEISw6l18PKI9facKor74+PLw+WHpfc6/Uq0Fx/bsXqWXfi9JdxlgHqLfbNtfXPueMqc2xvz4ezU3CaKWeqKRUJbTD+OSMDfV5cMx9QeLFHWcx2zQwv8PJIMXhhem5HfrqeFUuuAHTTt60rvA3j9xYWY8XCfXZ3nXt+zWzEcFiS87TFS5W2O6gNCdc0aIoLvzfDWVsYXywzvFk3FOVgh2WI0uthRcGskFc5+Wi5i1i5uhVs+xUHqOVec74/dxvP341WYJET//nnl2tcrnQprXHvGf9ri3OnR7+9Fdipk5a7byH/noRNuJ/g/Wwldxvi+elyn2LMC6tYy93X8+eGWXzYuc+2dk4Rp3njQJ93LG8rpWNyYs7cBw65fkU5WGEJoSiKoiiKoiiKoOJYURRFURRFUVxUHCuKoiiKoiiKi4pjRVEURVEURXFRcbyP0ZcblJ4kN7uZV5k0/ymK0glYVuxfs1Xo1BlK96HiuCNEM7AwaBUPrn/vzQSVt0xNTU2tZ6xdeWa87derdZ05Ub2ze2CYOV3H77oe7bfrWZP/3LNQlO5DxbGiKIqiKIqiuKg4VhRFURRFURQXFceKoiiKoiiK4qLieL9AXyxQFEVRFEXZH1Bx3AnMSwBdDgWx3YEpSs/hvYGezXkVvXvyvLIvyU1fJrqXxO2WK11C+6hu+0G/xnfX4DOf1leU7kFz125ofUvW/d2lmECloKTro0thzIJTC09l3+CJYsftllyv7ENyGz25fqV7aItjd6aFAxI5b/6T83cuYd9dR37+PXDjVNnfUXG8v6H3uqIoiqIoyj5DxbGiKIqiKIqiuKg4VhRFURRFURQXFceKoiiKoiiK4qLiuJvZ+U1l94ei7BNyXmJxHS9P6sstiqIoiqLiuNvQt2qV/Q0vH+Zb/rq238arKIqiKL0KFceKoiiKoiiK4qLiuJPk9qx1xvaEQuGoqXWVFUuhMNQOXJMUdRK2AIW2V9s764hC2+6P1lF+4apC2/eE6VSnSk+h4lhRFEVRFEVRXFQcd5YCrdhdWfEUDkdNraus+F6XwuGo7e/G4qrw8kJweeHt1fbc3MgtQOHt90/riELb9oi5x1eU7kbFcWcxM0103oh3Q+fiTVbh3Oi5N3zhcByz1dS6wJj7ipkupVAYavu3ueVFgfJkV+wcjtreWcfxnZ8ubVYonH1n7csKnyxzfts21xc6f9rO4XSdSfhFlV+KsueoOO4mPGGcax67WrczWhgoXc+u85xysJJf7mg+6D7ax3Pb7wOJ3GtwfhtHUQ56VBwriqIoiqIoiouKY0VRFEVRFEVxUXGsKIqiKIqiKC4qjhVFURRFURTFRcXxPiCbdd5Y9sj1K0pP4uW9/DyoeVJRFEXprag47gC+lcs3dP1+v7Hct3aLMY/8323iw1m2N8dQU+uM+X1tt7uXr3Pxueu5rZM/C4ejdmCaV9YUotD2antnHVFo2/3d9pv6yY1DReluVBwriqIoiqIoiouKY0VRFEVRFEVxUXGsKIqiKIqiKC4qjhWB40tzzSV/sWc5XrWdzaHw0nbsZrWiKAcqB9uNXeh6vN8H03UqioOK431M188K4BVi+bYrMm3G82ndzeeaZJNWv8+s8r68X6yfbrF+unvjp1usn+6e+/lnS1RlHKPf/HGlF5+0oGsBMVmuKMpBhLnjc+A97t3nXomRv83+RN45thZR3jl35CrKgY+K4x7GFI/ynzdTAMUx38LtUnxSSOVaQcyZOF4Rb36abMqzMq4INj9oQde8334pAmU/+efp5WL8dIv1090bP91i/XT3zi9i2EeBTKOf6eCkBd+59ok49ueYEcv7CGY/5kG/P+et8K7Ok8o+x0tnx3L9mtZdT/u45f/t45plgdes3o8xdQg9Xvnlna/n8ho811umKAc+Ko57LTkFXTYsIl0MnhsSC4g5Qtjb0un9lCVG/bHclMK+SD/dYv1098ZPt1g/3T31ez3DWWlgGHNqF3EzsH1pEcpJWR1HNtAk1mgM8tvZWVGUgw+WAU450ErezwOeg+16lF6NimNFoAB2hXBrj6clRiGXEkuIUdCJ35+GX5YHROj5XQuYnufO+ekW66e7N366xfrp7o3fJz5kQ46ZxobEL+cR9uXGsTvsQkyUtWyn4lhRFEVR9jUqjhVHmIlYgxFpllhackZKjK789ozLKZhhifhzxKBaYXOErghkY7zNPD97koNiYdjZiGxGi7oiWrteFEVRFGVfo+L4YMQ83s+x3cC+Tq/f1HHFRKy1WUQsJlaCrF0iOziWtWNqBcwWc+JdGhg+MUijwhhfzjMDU5A1L+JRIDvxaotfxbGiKIqi7HtUHHcjfNluZ3OWdx8UWDubd3zSdi7eeVgi2CjkLPj89KfF9Xo/CYcIiJiz3Z5O9noiqNaBOeO1BdPTnpS7LCFGV4y/Te8745svsTgvsvTMS1FO/jO+1rRv71cOXnLTvlA+ULoSJ169+LVb31fT+O4SGI2ad5VuRMVxN7JbAdITeqgAFGJOBSnGYQAcS5xtkjXNCAWT8PtakLWbZbu4ZJCUWNr0KdNkT9it45HVChsbGJLmGWlU2M4sHwEfZ6XgUolLaYCEwpzeraVVOFsZvpCnKN2L1wizzZMN3s1K95I1MxMZcazsPT3SiaAoKo67ldzewI56BnumxzAX9lKKmZS3kcmkEfD7EPRTyGWQSooglnV+zufGsbNZS0xK9iz9rqCW3xTVuS+UqeWYxGvAX4KQfwDsRDmSTRGkW8KwUyGJzhAyqSysJOM1i7RlScWZQSTCHnlFURRFUfY1Ko47CUVsMeaR+zt3OZE1rqdtfXcaezDYV2yLuJWf8Af8CAbCSDaLOEYFSqP94LMjIuACsNMijjNi1MhGGDtC2S9uwLbht7NquzA7IaI3kUFJqATl0QrEwjGEQ1GEAyFxI4iIP2sHRUBHEQpGkUpZO6VXVxtznIfz2yHXn0vuvmoHg7kJK9Bvlhl//nZqXWEezm/Hlf9b1x8I1hGFtu0Rc4+vKN2NL1vweX/vhj15F19yEX704++goiImN6XFpWIifNieMPPY8kal2JTlHdyxjFre0J67ZMlS/PQnv8akSRPxwx/+l4hU5yUt9uQ640+ZFBKY+SAEjQEbdSpWDN5+7aE4TlscQmEjEAgYg+0XsRuCnbGRslrw/uJ3sWHDGtTVN4pgYzicYYEuz8tx+TCWPmUX+PySrpznOIN0JiUNEQtlZcDAQdU4dMxh6N9vqCwrlfgPysYhZGwLwVCx6Vwc7O8X3W7yIr/Kx/N7+KFH8fvf34izzj4F//M/v4Al+YMPETIZOR/xaDofiOSUSe49S+Oj/VAohHQ6jV//6o/4yEcuwbhxYyRXuGWQ0mU4Zb5Xhvtw5We+gjvu+LuJa5bNTpkvZtKH25H9LQ1YXjBvSIEgp7Zo0RL85Mf/i9NPPxVf//pXzXq+r+JMQ+nmuW78mBFrHb7IfOVnr8OsmW+aZU4cswxVlK5FxXEBCopjKQAoCosRx7bURrnieOnSZfjJT36FoyYdiR/84PuynGNT+RIct2YhRFf+6yZxTKwMBXkWwWDQnFc6lRD524InHn8AS5cvRyZbg9GHDhYRN0DOi+FQtHvINfO6JWiOumAMOPBYnfXTJcX46ZI99dMlxfjpkuL9zClWNilZxEI4wpcXfdLQSKC5qQk7auqwelUS1ZWDcNEFH8LYMUdLw4QfXpGcFfDC6B444MO53ZlyrFD8uxbH0ngSiW/2VQ4kOhLHvO9dcfxrEceXiTg+fKysU3Hc1bTeZ1K40/vZK7+C22//uyyiOBaH8U3bj8WxecoojfadxfFUfOMb+0Yc2zbF8VdUHCvdjorjAnRXz7Enjicd2dZzTIFsviTdhT3HFPHOfLoMg35nHCyHDhtBKwVKJJxFbd0mrN+wBPfddyNGj6rAueedhP4DKkQciYAOWAiIwcxawXNzMFdty/9yjiasTpEfR+51Gpd4/tyN3N9mE15HLt755C73whK33bEEb5VZ4a3MDYPL5DpZcXFWDv52KzH2sDrbMJDWgHYJKxXOEW0hZRpIAREkPl9QBLIcJR0UfyXmzlmFpx9/B4eMnIBLLv4kqvsOlX04tZsIUl9I0koktd82lRM/68z85qQn4bmKU2RFxCs25yY7Uxwz/z4k4vj//u9GnH3OKfjlL//bjEH3ScuH94D2HB+o5NxvOeI4K342ii3Lwq9+9YdWccwySMVxd9AW907P8U1y9znlqdMR4tyLjpH9Lw1skzcojn2uOP4fI46//vXrZC3LIZYqzG/uuXezONaeY6Wn6L6crMiN6xV67f3dCwtfEbds89hSqIk5xReXi7zyRZBN+5CI12P69MfxyKP/wmUfPgSf+9wUjB0TRDi0FeWlzYgGGxD2NyHij7vWYizsb3Ys0IRQoLHz5m8Ql1bvWl0Bf942Zh8vDB6v8DGDtGCOecta1zXlGH87y014ck3GeNxgjROmXF/bOXCbuLsdl3fGWkRYJiSO0oiGM7JfEkFfE0oiTSgva0BJdAtOO2UIvvP/LpRlzfjn3/4Pm9cvgT/IIRjSiMmGkbFYIfEtd6alm54UOkbsuGlsUrarYMXTlk85BEc5uGDSZjLMO0xtJ535v/aPdB9sHPspLgXeW+2j2kmD/Rl+6ZONaCfH8Hzlf3PaXtnDC6K5IrlLyyRF2XdoDXhQ4pXAbcnL3sBgSMSWCK1wGJj24lNYtnw+Pn75FJxwwuGIRDJSkDch4E8hmWgQcccZF9hXySnc6O6NSfEqJSrPxjH6C5m3XvbxsVLJiHF/7xzoustFILb+FvPJ9o6xlz7HZD+nSKd5v93wc12GZ8J1j2OO7R3HXW7OpXPmVCWsWJzKxTFJGRG7dqZFxGcLBg2O4bKPnIBTpx6Gm/95M9atW4qAnE/GYu+tD1aGU74F5cSd/l4ndkzNJLSrZRVF2S/JvWc9l8sORLzzd8n7qSgHEwfqXarsEsozIv+bAkxcTr+WTSIYSGLZincw7eVpuPiSkzH+iOGyjY3m5kYz3jQajSIUCoIzWRiBJ6LWMfntWtY1Ds/olFEgZoNiIbHwLozrPeNjf5rs66PlnAeXm2USvGtOVs419tbQ+MhtZ78RqyYs77p4jnJc81uOQ5fbmXXeQXIOuBtz9pdrsqNiMceVawz4IxK/ASTTjUhZNSivsnHK6Yfg2OMH4ZFHH0RT8xZEYz5kMikEgyLLRUwbaSwCuQ05Ru5PRVEURVG6DKoI5aBDxJMRco6CokxjQvt8adQ1bMDtd96Iz159GkaOrhDB3CiWQllZiYixgBnjGhBhnE6nHFFmwvIEpxeuOEJbP+yuzdnBE6ehXVghIct9c47d7jedHJVIIU5rPV/Zn480zfIctzWcXLicx+R+XMffnp8xIX/i5dF2Zw7u8c118dPQjnHsMXuEwxEfLDQg669FaUUcZ593uOyyFXPefh1Wugl+M96YQyeE1lNl6PzBsGmKoiiKonQ1WsMedDgP9vOlGn22ncI7897AsOFlOGxcP4TDcRHBdciIOKbm4vzHnOqN8MWdtt5a9oR6vaHsSXV6U+Vfp4xhZzk0wBj9Xu9zwDX6RUjnrhdhaZbJzt5ABWcbmrc/txWTy+UwBB7LnKes26VxvmcTjru/OQ4/+xxyl/O380Jj1u+ctzNMo+2adm+yN00u37EA/HzZz/YhEorI7wxKouwZbpCVDYiVpnDyKeMxZ85LSCTrjTiWMzNhOTi/DTxpRqqiKIqiKF2OiuODFCM0RVDxf76lTkGVTMWxePEKnDr1WARCjSK8mlBS4kMwIKtFGHM4RTjMGRM4dpciM1+A5YgyBkmx5i3i7zy/OTa3MQLTebPZnJMZ4kGh55hznvy6nAhAdzuqQp4Hr6P1GC7ZrAhXEZrO8eQ/9zwZJkN0/PxfRK64FNZty/hbkH2cOJJf9FMMZ0Pid0Q5bw03CHOXeNeWe13Ovu7ynX5zeqyUWFp+SnyaxXIcEcd8QYeWTidQEgshlWpCaakPkyaNREtzAvV1W2U/CSFjw7I404gTPnvJnXB4Qrx1+UtRFKV3YspFRekGVBwfjFCcUYiK0DSiTpKZY3g3b9okgnMLqqoziJVQvLXIOn4+2i/GcbgUbvxqXrBVwLWarOcMBjR+SEAWOmGL66e6FkHJ3lvKXD/nxw34kRFxy3U8D5F58MtuWb9sYUyEXpA9uCJL+aIgRbEs9wUpK7m9OW3Rqgw/JGEH2Okq58/ziMoKDlOgX8S8LecugWdEMGbkpHzBCBIpCSsQRpov58v58+CUqFwmG5jz5XlmRDH7gwyDyxhuSJaLybKUJQUv40XOwZa/YJji2blm7/rNtUuc8Lrb4oLHTMuunDOYrsQDX25k3MnxZSvZNIhoJAY7k0FY4pMv6pXGsjjxhFF4/bVp4JTHQZ4Hp3WT7S3ZjvububMleCeCjG+vYVsgtzHk+d2fykFEbhp7rudXuhYTt57rRrHOArN3mCd/xmN+0Kco3YLeqQcZbEcboWbUk9eqFsGGIOprm1ESLUVpaRDhoMg9fvBBShmncsw1r1eysDmfOg4gIuLO9ICm0shkpA0vh+SHBvz+oAi7iAg/Eb4iSvnbL0I4yYl+ZX8jPikSjUgVgSr7hcIRhCMUtUnxR40gDIYobkVW8zPWEk5AwgyEYmhuptgsFSuRMH0i1ivk+JyGrgyWxXMPIxwuk2V+RKMVaGnJwEr75Hy5XpoDInp9/ogcW85BxHU6LTGW5fRp4rckPLku9iJHI+VyblkR5D7zNcF0WgQ+hbb85rXyM9CMh6xsE+A1illU41KAh8IUyfS7ZtJCjFHYGpdMF2dMMvuuQyKiJ04Yi6VLliGZEFEtwpjzLvMY0WgMDQ31sm3WzJc9c+Zb4lcURVEUpatRcXzQQVEsZoYmiBlNRkEXQnNTVkRrFSorSuS3hYCIYr+sa5v9wTN3bG4HFgqJeLX9SIiA4xCHaLRMxGhMxGcpykqrEI+njIDmb5unIcI2GJT1IszDIlCTKRHScj62HRIxyt7QoAhPOWsJKxiMiiCVM5JjUCzHSkpESFPIBpBKZ5FK+nD3XW9j25akHCMoorRMxDm/9hcT4RtGLNoXLz7/JtatrZF1Fdi2tQnPPvMmNm5sQF1tAgsXrpbfr6KurtmIZ5+PAjeKefM24qVpy0XwlssxskjKcUIitv3+mBw7KH4RzHLN4XCJuX42NjIZnxybn+KmGC8xLs/fluUWBbjpMXJN7jS2QRzjMjm2iGM2ENiLbItqT7Q0YNSIYVi3hr35cl4i2IPBiFxnRhoELaivb8Af/3gj/vaXv5veZkVRFEVRuh4VxwcbplOSApm9lTRZYF4E46P7EKy0jZKoCFArg6gIOjOFmhFpnbeMiEQOQQgGy4ybSotQlLAbm9KIJyRTBSRcEZXs1Y1Eq0Tc+UVwBkQ0yrK4H6Wxfmios7BjWxyRULWcRx9xq5BOiAgNVorgFOEo51xbU49kwkImLWfojyIUKEMkXIVVK9NyDYMRi/RDONhHMnGFXEEVQr5q+DLlaGnqi5deXCdiU8ILVGP71qS0BUpRUTZYRGgJtm1uln2rJV6isq+EK9fR0hwW8Swi1Q5LPIkwl/NobmJPcRTpJES8c+hEGM1xC0k5H7+IfZ+cUyBUYgQ+l1sZDtOQuPZzyjZZDxG44PRwnJKOQlyii+OGW0WymPljD3cUFRUixqU1k2WPd7gUTY0JNDYk8N577+O22+/En//8F0yceDj+8pc/4oQTTpS0VRRFURSlq1FxfBDiPsBv/Z/imDMlBCiCZRnFWMD0XHIZxRtFL8Vbvrm9nrkm27InmqLPb8b9UviJIBSrq2vC/PnvY/6768y6kAjHlpYUSmJVIjjDIvhEvKJEhHoMb0yfi7vvegEvv/QO4i0wFg5XIBHPorSk2vQil5VX4v33l+Htt5di85Z6M6yCwjkoh6ObSPhEcIexY3sC8+ctw9KlG+Qc0jj55JOwacMmbNmUEFHu9Mw2N6dNT7MtwjMYisn5cjiFXI+fwz84hR0bEXJqljvMQYRvPG6LQE0iFiuXfbMoL6sWsR0zvboBH88lK40MuXr2iouYZdjsoQ8HSyWuonKtnkkcm4aFF6ciijnmmkLZ7VG2rLQ0BFpEtHOoSlaOG8eyZatw8y23SRy9iiFDhuJHP/ovXPDBC8CvnDU3Ncl5KoqiKIrS1ag4Pshw5DDVF33sQaYJfFktAxGsIRGelnksn0lnjYh1xC3HvzI7yL7GvP8JfRR+3C4kYrEvtm9PixjdhNod/HBItYQTExFcjdGjx2HwkCEiXIFtWxtFFJdg/oLVuPueZ7Fi5Q45m0rUNwWwfl0TqqsH480312LB/NUiLivl/PiCXcQMVwiI4EwkfRgx8jAMHzFShGkfpCyR8mERqukoYqXVsl0Ey5Zvwf/87+N49Ilp+NtNT6GuISOiuhR9+g3H0hUbEBTRmhFhHivtK9cdRTZbJkK4Qs7fwgP/eQm33footm6No6SkvyyPwBd0X9jzByXstfj3v1/Djh0Wykr7Y+PGGtnneUx/fZGI4lIRxeUSXsSsW7u6Dg/KunfmLpU4ChvBDdMrzyErIopNw4R/jE3+8TeXu7/8AYmDmBl7vW1bDf70xxvx4IOP4Mgjj8anP/1ZXHzxJXJKQRHRFtLs9Y9RjGflnIs1yRGSD4wrZmbzkP+88eJt6/P2yV3fzp+7TWf9dPfGT7dYP9298dMt1k93b/x0i/XTZaNR3Hbp6Plts9ykuTd9i6J0SG4ecfyt2Uazj3IQ45MCUrN4HrbUHhdfchF+8tPvoaKCvYz8GIPULlIa+I1IpFHS8CG4LG9TkTvBnkJGMd0lS5biJz/+FSZNOtL0AmZsvqDGWSMYMl9yM3s44fM4JmAmT+eTyDlL2d6flL3lvLOl8FnVCNghvDHjGaxZ/wI+/6XDEfRtg0+WBX0VSPtScjmWHE5qTTkPZ7wyz0sEtfy0JJhgIOoOFYihJV6B66+/AVamAmUVFq7//mcRifhRW78dmzZtxJETJ2HevAV47dXp+PjHP4lbbnscw0YOx7tzN+CnP/oq7r7zUTQ11KKutg5nnXUi3npzLr72jfPRr38Y4UgG69Zvxj33vYKPX34xBg7si0CAvbk+LF60EdOmLRYhWoPrv/dpEdeVuOmme3HkpOE4+fSxSKWa5TzD5lzfW/A+7rj9CXz7W9fh/vsfxhmnnYXjp5yIl6e9JmFMx/r1NTjllGNQW5uUoBtx7HEnY+2GNbjyquMQT9ZL40HEpxXD88+8g3ffWYerrzkFzzz9BDZvCKG2pgVXXXUJjjx6ELZsXYd0OoCH/zMT8ZYsVq5eg9/ccBnKy7MI+iUOTT5hmjItaUwhx+elKvORJcIlGKxCvGkgpkz+CWyfNF4QwbBRQxApoWBPS2PGjxC7mjkdnIRthrcUASeF46wZ7LE2vf/SCKit2YE1a9aiuk81xowZjWTSkq1sORefSffijqDsLzhlSXu8pxYUycOHD8bnP38VDj30UGls8nPmnS9jlM7iNFKC0uD+9KevxR133Cz3FstY3oNOOeDgJdb+lgasSWw5Vzb0gUULl0i99UucfvpUfOMbX5X1vBbWFU6t4xRq3VdiSKyJhXDllV/GzJlvyhIn3vhkTlG6GhXHBTiQxTELEFPs+hPiE+GXFUFr9THi+K1Zz2HZqqfxhS+NRyRcC38mIpdVCkuElzMPsShhFnhGHLNQDCKbCaBOxOD8+Wtw1hlnmOEMVrYEv//DnZhwxJHYsrlejpHEJZdehFdffQXTZ8zGT37yVbz51htYvvI9XHDBB3Dff17Baad/CI8+/BQ++Ykr8a9/PIKvffWzePnF1zFiRB+sXzcb4ycMwplnHQs7Wy8iO41b/vUsJh09EWecMVXCz6KuvhEvTZshgtrG6pU1uPKzH8KIYaPw3HPTsG3bVpxwyjBs2bIFoXAYU08+TURvI274w70YPGCAFKTz8dXrrsXxk4/D7Nnv4E9/ulUK2A/jhBOPw1tvzcDcuXNw+llnYcu2dbj8imPk+hISL0FJgQrUbPXjjtuewomnjMSqVYuwfg2wcV2NOdePXH4qZs5+DU8/9Rb6VowSUV6Cd+YvwFXXTsDUqROQtVtMB74RxzQjkI2vFRb3TgoHkM7E5P9DceEHb8CHLv4YNm2tR6gkIOd2EsYdNkYq2izCIv4joRBSSUnfAHv7i8AvZ+L3iwBOISQVdjRaittu+zf+cMNfcNFFH8D3rv8OyspiiMdbEI1FJO3l3DiVSOsZ80zz/V7eLMZPl+ypny4pxk+X7KmfLinGT5fsqZ8uKcYvrnlq5C1vg73GHJLDucwtyzIuv4RphHE7saZ0DQeZOF4k4viHueKY58vOFLqsM7hIxbFycNB9OVnZZziP6x2fg2V6hjlXr1nLuTaN/uY8yBTlUgCaHkX2LDk9ij6ERYiVmTG4q1Zuxtuz5qOlmeOCK9GvXwUuvfRkEakLMGXyGGwXEff/vnozHn/4DVgtwLe+fhsefmCGiOmTMebQQZg4YQzuv+dRzHpzI379v7di+bLluP57f8QTj7+Cu+54Gu+9t1m2GyNi0odYpAzVlf1w1uln4vVX3sZXvngLvvG12/CTH/wHK5YuwXnnnCjicQpu+ce9+M2vbsTTT87CfffMwL13P4c1K9cjGizFlo078Oc/3I/5c7egZtsWXPiBc/DQA69KGL+T5Y9i84Y4Hn/0TXz/+j/irTdn4IrLLxTdyF72NNKJuERNBmtXrcQvf34bfvbTm6VxsA2DB1XhrDNPxxHjxqGspARWKoN4SxJjDzkczQ0BXHrJh1FVWYWAL4Wg35mxwsQl49rEK4WpeE28uybJwwYRjdUQtw2KYCkpLcfln/gYPvXJj2P4sEG455478Peb/orNmzeZF/cS8bgZo+zt21lLpRNIpRJSWfvNtHAtkqChEGcIoThiI02qQqnNM3Yazc0NSFtJ95x5brRCfrrF+unujZ9usX66e+OnW6yf7t746RbrF7dA2tPC4RBKSqSxLH5+iId5yMgfjqlRFEVRWtGe4wIc6D3HPEv44mIUfGHRPWWS0AHMmPEs1mx4DV+6biIC/i2w0+yvjMmlyD7m2O5xzGGD5oWzspK+WL9uO27627MYe+gQuRYRZ6kk4olGNDYlcfXVF6O0LCoii/MYN5tKN5lMmxfqSmNRbNq0Db7AACx6fyumv/E2/t83P4WSGKcuazGCNBbzwco0o1/fMiQlTH41jtdg+0PiZ+9WxIi6cIgf6sjIceR30pJ1kGsIm/mAwxFJh0C9CFMbgRBfiIuK8EvIRQRREi1DU3OLxG3QzM6RkH35aex4vMGIUF5yKsVx03JO2RbESm0k0o2IyLbbt7WY2S7CgRK0xJvluGHMf3sznnpqhlz3h1He148nn3gMqUQLPnrZ57F0yRo898I0fPv752HQoKg0QuImNdjzbaLX0D49W1PYF5acUI6m+n645qo78c+bb0FzwkJ5tZxH7Wa8Mf0NPPfMi5g4fhLOPOM0HHroKMkibaHuHhuhaASNjU0oL+P4bom/QBAPPvAg/vd/b8CFF56Nn/zkx0Zg8TPjQRHN7DW22/UcKwcyablp2FvM8ogWiURMb3I6nZS8wPJG6Vq057grceo27TlWegYtEQ82jNKihwUHk1dcUxCnEQr/f/bOA9COoz7339k9/Tb1Zlmy5YJ77xQ3bAyueQ4t1AAhIS8PAuGlE0hCePBSXggBEgIE02xTjA1uGOPecZOLbEtusiRbXbq67ZQ9u+/7ZnfvPbo66vdeXen+f9L/zuzu7Ozs7Ozst3NmZzTZRR/FKytozbymlkLX11iVNR3+cZb8kyAdGBjAzFkz8b73v5nC0sP69Q1UqLsPOogi7kMXoGtSBpOnUmTn16Ojq4qp04GVq57BY4/ex2NVWIndiWuvvRKLFz+Jj3/8LMyYWUG5fS3m7B+gc+pG5Mtr0DmpHz19L1Mkr0F7l0aTqCCXrVCYa0rrPgrVAXR2NCheN/AhvolivMbj6kHfjSlTGnyBoYhs04eCOYpZnXvNie62slpLN6KjI0NT9b2JQnqA+dDDNCsPVlMMbsDkKR7dPh5XD646c00vFQOMO4eurgbyxQE8/8JC/Ne3voEnFj2Od7z79XhlxUL88IdX83y7cMzxB+LbV3wNT3Hbe9//JgrjLlB3MgfVgk+LM1crnA0uuuXYo4lGVPFHfLhI7GdzTH97niK/h2K2hPPPPw+f+9xnea4duOaan+D2239N8a3JUHbU1He8SkGk6aoHGO8m14qs9Ph+/BDUh5rapvKgbXqQxzP7tYrPbHyarhfvfM3WOMw0PXw26zshrOXu7o2u+LkZLw3DMIxBTBzvY0hvxZ0qdGnTy0vR5wUot2Vd625vrwRxCZpK2bUY0waFcWp80PpZbuB+mUwNBx86Fx/80JvxiU+ejz/8X2/GW992KmbOLqFczqBWpYClkPYzPv1VHHvskbj4kjdRBAe46JI34nfe8wZ8+n+fS5GtUSjWo1jqQ9/AcooviuNiFfX6Boq2OgqlCPXKeopeDzmPD3KPYrEeoVwou64EHeU2SPtG+lIsbPBBT39U458Gw2mgujZuU1/ZArK+WssLyGc1dFwWtUrANBZRzJeYK8qXOgVoQGFACdioUYDnXL7pq/4o1JjMFI3MB4lFL9PAwYfshz/42G/hw793Ls54w+tw+hsOYz6ch3e86zSc/voj8Yd/9D/wPz/xNhx34jxEXj/TxTSqxYWpiruqKF+5yl0W5Wuy4IzhvLwbH/r5F5dh2vQs6kEFAS1HkSyxI2k/edIkvOPtv40Pvv99TM8CHkMvOztudeabE0Z+xvUpdq09ThQrfr7gaKpuiit1tdCyrFU8ZuPZeC8M2pbb9etLrVZ1ZbFQiH+N0S8nhmEYxhDusWuMNfHPmkM0+0eGTESpF8YyWQJIbYNTpk5DtZKjUCyhu5tisdhFXabZ59RypGHaVBziPdR6GEZVCkh9rNfLvTfCy/Ug8tfDy66jwOrmA1Yf/VGkoggEZXiNDuSiLnhhnnqcYpfic9r0HPabM4laMKBQpfjSuTa4DxVfnseONAKDE7IStm3Mii6uKzPtjLORo0guczkHPyoiw2WNsOFR9HqRRtrIM568O1cJuwwodrPJKBFhPFqHT3HvUdzn8yHdAcbfy3U17h/GApzC1NMYxwHjiChQgzwKXjv9fHloZOnXRCHA5MntmD6jhEmTpWU38rx817Kcy1fQ0QnMnlOiuO9nvvQwLTVqXl1TCV+eMZWIXkJi10OdatS9mCjtfoniRK3LcnN48KEncdqppzsxnc9rOmp9HBhoQDiep6ap9jBr9iwcMH9/xs9j6CfNHTTlkfoTSyRpXwmkIIi787j+p1rPBX2klZF4l3huEY/ZeDZetq2g1mJdY7Ue6/rLVbcK61JhbA89rqwHpjGRsFpxrNnKw0tiaOSg8JE4doJKccc2a9Zc5Auz8Myza9DVMR99vXxIUmhKGEu2bjZJhczTh3oUT36VJaWfbi/dPm5TPzTFz+Oor7SGjeN2qI8tw2a8epwGhQkpPjVuMNPhUuQqWApV+V1S5fL4TIeGicuAAllCXf2lM4or4I4Sa2rt5jrGndEyBW9sGopNH6fFraAZ92GZukfEbkYfHEogUzC7cG5/CUKGVaIkAJ0prNKs80/SRtw6hnNaUWFcOvhSkKQpzgulMV4Xp8XtyX8Sxy4jE5frKG4LagmvNNAIfL4nUGDnOumW0cPsfe7Z5TjtjDeiVtdxGK12TWJL+/PF56q0uih3wviniaFrnaxv8rvh3pxrtveZrmt6bTdfH1/T2BXN6w1jc+Jy1ExcXpIFw9iHMXG8zyExF4un+PLGl9hp0iiH4449Fr/65b0Y6KcojjqRz6lVVzO4Sa7q53+6g5Y+YCkKfYpAX+JQolJimmJWYXwKxCwFc3YTbSOth2EkapUOTYKh2eI0uQf3k/lcL8FHteniT1ynAqVAZYwTfoUaeQDI0bLyUwTLdevlH7KMa6lN0qbjbmZc50RvakkF79IgUxidn0xCOo0nNW3XfhraTUJfSYzFslt267ym9ZLE6qLBPFL+0KeQjJyOz6vio1YLUSy2M1518SgzXBvCqA0PPLAIXZNmoqNjGgWzpq2uI+vzmjAG5pJzFZsT9TxWTBL/DhljcP1oSLp7S9Jwcrmf2d5lhmEYxm5hNek+Sap8YoFDicc1vNSZAo496gxM6jwA1117P9dORl+fwqRCWGJOwldTSqeuTK26yTon8iJqpwafw7RM6HRURHUYSfwxjrj7gMJomwTnAI3iWa3PWpY6pXCONFIG43b7eHVaP6JsN92BeJ0+GuRxh4xhUUxc7S8/TeMx61heQEvSNWhMx2amcEyvi1t9rrXv8K4PMq3TNp2TBGqSH9y2ZV7JtKx/dPkSQtXO/GaECjcYXi31PoqlDlRrQI3aPowK8L1OvLZiE+6/93GcdfbbEGiKa7+AIFBXEMXHaFwLu/JN6PrqBcgleAdNu9F1caQ2jEHBnGx3Qqs5vNneY4ZhGMauYuJ4X8O1KEZ8PMrVQzIWOBLHasmNMmW8650fxe23PYsHH3wOntdBASbRKxEnk19iT62+aVeHMqOVtcWutntpWIVp2uZaQjWWapFhGAcFc/xBmsJKTKqPMLcpnLM0HNOprpCu1ZgpdmlQOMUvV+lI0jJo6TpuV3gXv0z7tjLFJdO5aR+5SldTizmT4c7NpTs9Rxn3d66ErtInNz03hUsEsDOF5Xq+MMSmdXFYnVy1EqBBAdzVNRNhqBEpQlzxnWsxd+7hOPSQY9DZPhW1WgPZnNLMfSlSGQvd4aInFUI7Yq1uda2Ly8fmftG8zmzvsfT6GYZhGLuKalNjn2OwCXAzNG1sPlvCpEkzceklF+Oan97pBHIYqt+xWjvzLUzb1AWjSCvFbrrOmcaBHm7NYeTXh3adtA5a2a2LW37TFmH5Cwhpak122ykw45ZbuduyeN/4OLLhaWllCqdz4znzGFSvNIoKpy3kT5YH/c2mcNqWWrJ+cJ2UfSqSE3MRxy3QGpVC3Sk62megry9E96YGvvXtnyOgSH7zeW9DqdiJ3t4+12KscYYbtPhVJ+0so+X0xUfI3RETw/0taFl0diSOnfHL3R1/ys745e6OP2Vn/HJ3x5+yM/7mdYYxmqhGEq2fN4axN6OnttFEOkB+3EmXjPKzJtZYI3kZFKEE21DCKbMothpcFcDPRhRiDZx08lk4+6zfwhXfeQA///lCdG8oIwqno1ZtQ7E4nfuX0Qg1MYYfG8VdCC5TUAYRjf4h03Jqzeubt+cTV+ZrcDk0MhFN89Fl0Ygojim+G2EbjW6Up+VamMKmxnjkMr6AwtMdi2JX8afHqms7BXRAN/Sy0BDPtdCNa9HCCrQiw5Zic8tan8Ypl+v4guDC6ZyYzti0rG06T4YLPYQNieOCE8PwKPg1IgfaUQ/KGKiU8Ozidfh//3o1li7bhI997NOYNnk/J4q9rMaRq9NV945YVLtGY3UbcV1VVF70MrOz5SZu3XZlxPljV8PWxS3f8bLPfIrDpA89uVvzp+yMX+7u+FN2xi93d/wpO+OXuzv+lJ3xN68zjN0jGdgmgfURK6J41IpkpaoJ56brBgMbxl7NSKqyfY5UMOyOpWy+vGW4kTT+cRYvJ4ustDwfCBoasitCodCJs866CH/1V3+Hhx9ag3/5p2vws2sewYvPV/DsM5sokqdQJM3mjjNjwyya3NkUcHNZcOYltj9Ny9uyNCxN+6Y2uF1xzIcfHUhbQP+BPM58pnke3XnO3bo/2T+aT2P8Mu4bH28+EDJsuD9y/oHo65mCfJbHyBzAulzHTNLkwh/AfQ/c0gbjSsJtsZ37Mb2bL89zx8t6ByCozUC9OgNBZQaP34FXl0dY9NQmfPNbN+JrX70WRx39Jvzpn36ReT2FzxW1ZlMX+7pg+jBQ108vOmpx5gaPDx6nbdU6rW4aTdd3u5aWh9hE3Krd5Hc2PIzZ3mdD19BszxivQnL/xK4YHmZvsPg85E9/AYvRprh+Svyb2eZxjKglxzeM0camjx6GskMD41966UX47N/+OTq7SlypocniV2g3gUT8RZerLPQz9/buWMXpeZ6bPvozn/kCjjk6nj46ZLzxcGOSroFC0hiZ+xDKqaBk3e5fovQy61hKSxCo32vDCbGw1oOnn1qIxUsWobt7jZuAQmMfe5linBTtpxYDufynWdzG33tVmkfpxRi6KA1NppEv8nw1tqsmLanzRSEWl6OBu2rMW+VYPpd1KauHFTTCTcpIFItTMXf/A3DEkSdg5oz5KOTb3U5hqHI2ergfQZNzjkKNDZ3DT358Db70pS/jLRecib//+88xj+rMI49pDVxjkEbfMAxj50ifqlGYcfeZpo/+3vf+i3WBfjPT6DdplwSR3mNpHTZ+0DjY7gWdaVz09HN8bv09zjzz9fjjP/4jV5dpeEtXs6TnM4rPBte9LMrifTZ9tDEGmDgexr4ujoUqvGw2y0rbR73WYNWSc31bwTT09W3E6rWvoaKhFHiOg6QquTlN2znvMcedYpoouRl89rNfwF/+5SeQLxQp9DxoWLZGoFbZ9HxGHj0zwkBDv+UpfLMUxjUnjgv5COX2Mto7ulBu60I2V2K5KIHJQWWgB6XS6KVJuMeXiWPDGHVMHI88Jo6NscTE8TD2dXGcy+VQqVTcsvwaLiybKcP3KJDDOsWRxihuQFMMa8KOeK/kBF266NdkHKoUt3PeY0eaPrlpomL/Bz/wR/jBlf9J8dnvzrderyNHwRpPr7v7+doKtbJ7Gt85LLjZ5jTGs5dTXjJ/k/KijyO5ksJYVb6PQoFpYt6PJu7xZeLYMEadtGoxcTxymDg2xpLRKcXGuEQi3IlDikSZxKGbQlazzPk11ms1ZLINZAv6ACxESFGH1FQPuT6vWubCeDL+p6KnX31zE0v65YY8j77+fnjZPKtwPqh43g1W+K4qbxXXCJieDw0K4QAVJoEvErkAkZ+YZvXz6ii2KZ1V5n+AbD5Ard6nFBmGYRiGsYcxcTxBkDB2LdQUxGoNkBu3nErwUpyFfRR1mnGugSCs0C8h13DiMrbUH7dAhhSjmgR6XJhEMGTN62JrRBTE2aITyrVAIz1o6Da+GAwPP5LG47r88/uBfJVuhev7Y2HM/A29BtNC4cz81Id3YSTBrKs0/lqODMMwDGOiYeJ4AiExrO4dqVCWP/mxncvOSfQZ1w/+PObTT5Ob/Iy1ubuz/pSd8cvdln+4Kd1yE/RSwGVPLcrEnWLT5s0XUr/cXffrxSJDgey6oGTk8qg6cBjnbdRgWLqahMSLckyx0mwYhmEYxp7GnsgTnlQAZ2n5Fqb+XDKNfZuaRKCU3ngysaPrU4avH0lLxbLEcJq/OWrkPLywQCsmRn8kUx6n4towDMMwjD2FiWODkkwf33k0f5hlE2teJ7Eno5hzgi8WfTvul7t9f8aZjp26W/fHLduJyB90UxPNy4lpH8axtePH7q76FXfTcsiXDNngC0e6TaawJooNwzAMY7xg4tigNNbX03Qz+mRNHRDiNszYr3UBtw2Z25iEGC3b+X9qrU1RV5G0BVek/ubl1scdKdNfiXD30sHbbMjSEBqlRKOV1JxpGL2h9BmGYRiGsacwcWwQDcuW9o2Vu23zRttA0bgL5qHm9vUoNIdcDb8Xx7mZtTruiBmFL4/rJLJ762AWJ8MeuRcNHj8WxVWaPsyr8k6UODYMwxiPNDcuJNi7vLEPY+J4B0lHd9hR21laxTF2xuOHdEOlYwfTkoZ3tjN+udvxM/7QGZrcrftdevRPrjPFR3nqTJmrYi6FqlBcQaE6dA4yhR/ul7sb/sE0NhmPrlFBG3Eq3EgaDaYtpLm0pucySibSDy81Ysn24F4t4zEzM9u26e7ZGq3Cj1dzL/VJndF8ThHrrjiM/MNty3hGzJLjG8ZoY+LYIKr9UgHZyrjN9TNuss3C74xf7s765W7L38q0Xf2LU3+6XtAdPId023B/Gn53/MMZCqOh5NL+z7Ff+40yPLRGKUlp9huGYQwn7m6XWmbQTbayHk287ruJ1Axj72cMnsjG+Gd7lVpzxTderZnh65uXt7ZuJG17tNpHZhiGMU7ZoopKV1jdZex7mDjeQeK35h23naVVHGa7b1tDm1qF35dtZ+FeLeMxMzPbtunu2Rqtwo9PSxLcgtbhx8CS4xvGaGPi2DAMwzAMwzASTBzvKK3eYrdjO0urOMx2z7ZGq7D7uu0s2qVVPGZmZtuz5CZqQevw49O2RquwY2E8cpwAwxhlTBy3QDdhGMXTK+sLWWNvprkyHfJP9KvqHjRJ2d6iiHOTPYgMY/dIBV16Lzl/vMkwjHGOieMWpJWZxPHQ8s6TVozbsyExYow0W+R18pCauMTnn5btlDRLmvNqYueTYew6g/eQt/n9FFsSyDCMcYuJY8MwDMMwDMNIMHFsGIZhGIZhGAkmjg3DMAzDMAwjwcSxYRiGYRiGYSSYODYMwzAMwzCMBBPHhmEYhmEYhpFg4tgwDMMwDMMwEkwcG4ZhGIZhGEaCiWPDMAzDMAzDSDBxbBiGYRiGYRgJJo5bEEXRZu6u0rx/7N+9+IxdQ1O2Ku9j1zAMY+zY3efInmbzetOeYcbEwMTxVkjrg6H58HfOUuT3vB3L5uFxmI2Mpfnv+x50Zdy6YWEmtlnZMzMbaVO9Q5+re0SrMOPddA4+rfkZ1ircWFlTdhrGqGLi2DAMwzAMwzASTBwbhmEYhmEYRoKJY8MwDMMwDMNIMHFsGIZhGIZhGAkmjg3DMAzDaIlG29jLB9wwjJ3GxPEooS9r3dfK+sKWxP54tATDMAzD2BvYXBfbE8yYGJg4NgzDMAzDMIwEE8eGYRiGYRiGkWDi2DAMwzAMwzASTBwbhmEYhmEYRoKJ41Ek/sp3uCUbm7EvgUeN1tdAlgSYQLTOh9YZsa1thmFsn+Z7SI7dUyOIstHy0hhFTByPMbqfkwEs4Hs+fD/r/M1z1xujR1ynWqXainRkFcMwdp/h9YzVO7tPxv0zjNHHFNkYYuLDMAzDMAxjfGPi2JgQuBYHvpykNlGbH5pf0AbzwjCMEae5nnHe+E+8wjCMcY2J4x1kuLjaVduWKGsV3mxkLM731tsmlg2Vs+3RHNbMzGznLL6H0mW36Kqh5jDj3bZGq7BjYdt6fhrGSGLieAdpdaNuz1qxtXu71f5mu28pXOLyUP7HyxPMkjN3fzfb5la1oDmMmZnZzpq7i5rcvcn4x6W7Fa3Cj4kl9ZdhjDYmjneYoa/7d9SG49Yn/uEM39dsZKwZLaZruHWLsPu68enizl0PmR2jdTxmZmbbNyExl/pThocbr8Y/SYq3pFX4sTDDGCtMHLcgFQ8aQUL+XRlJovlmVhyx327uPYG7nqketArWMAxjh3DPP/cMTF+sk/p0D+GOn6TFMEYTE8eGYRiGYRiGkWDi2DAMwzAMwzASTBwbhmEYhmEYRoKJY8MwDMMwDMNIMHHcgvRDOvs61jAMwzAMY2Jh4ngrpN/D7uqXudqvpSXbDWM8kZbPdIQW2dBdYBiGMQ6wZ6gxRpg4NgzDMAzDMIwEE8eGYRiGYRiGkWDi2DAMwzAMwzASTBwbhmEYhmEYRoKJY8MwDMMwDMNIMHFsTBg0AIPm5XcjMiTrjJgwjIctDMPQuSIescIwjF0lHQFmkL3wnlLNoFFNrT4wJhImjncUVgzpEFc7ai3h6lZhzUbHUrjUcvtEsu3RHGb4vmZmZjtnzfdRSvP2vcGaccvJquHhxsziww+y5RrDGBlMHBuGYRiGYRhGgoljwzAMwzAMw0gwcWwYhmEYhmEYCSaODcMwDMMwDCPBxLFhGIZhGIZhJJg4NgzDMAzDMIwEE8eGYRiGYRiGkWDi2DAMwzAMwzASTBwbhmEYhmEYRoKJY8Mw9iI0ma2muJY1+83GzgzDMPZtTBxvA9/3ndtq2srdQfPUu7gZaRiG8DybAnO00TV0GU4iXYAJiMc8iCKVNw+h8iCZklXeuAxm3DYR59dow+NH2dgg89wVii3iUpS4cUXlUpSJEDWb12whrTHMtG54OLNdNuU5L0PE6xUhR8tzKbEoz8uTS66p13TdJuj9ltxLIr7d9r7JjpVm1RuqDly9OTEvpTEBGbp7jUFSYdDs7qxta7/mbc1+s5G3LfI3fTw1r5tAFp/6OCmDOm5yRSSgYjf2p2I4dof+gcJrUIxRnEmQbdsUhvs4d3f8cnfWL3d3/HJ31i93d/xyt+FXnrsLU6NbpdV4LeuJBTRdR76AMcjgNZO/1fWfAJacvqPV9r3JUuRttX0sbLMMNYxRxMSxYRh7jkyDFtAjN6SpiY06LLGwydRo5VoqB4VvocmfLhcTd7i12mdn/HJ31i93d/xyd9Yvd3f8crfjF5kBZLx+eDTIuByLZZoXwLXYJ9eQAeN9DMMw9hKs1jIMY8/ghHGdRnEsPwVyLIBlcVuy2iDTdaFrOVI4iWkZ9x30p5b2i43jc2HcMcxGxmrMU16ZSI+OuH3YmXMkiGnM/8hdS7m6coZhGHsXJo4Nw9iDSMDGIiqWURLFPi3LterXKoEskyTjX08tk5Uhy8iSFstB00/+zYJu+HazXTbUKIwz1MGdfJ/p4uVrp5VparFX94tUNKePFqlmwzCMvQsTx4ZhjAMkotSv1Xc29BkezXW1UJeLuNXY28Ia27AQXsTYGEVsu+qXu7N+ubvjl7uzfrm745e7Db+uFEVwJmindfCStPHSFLkuTzf+uNJdQxeSJrHs+lYYhmHsPagGMwzD2APo5/j4I6+IoipsSFRl4XlcblCRhSGCagU5P0Ij6KcbUoz5FGkFVlxFoJGj5eNlWiaxzf0SbkXn7o5f7s765e6OX+7O+uXujl9usx8SvjS5qT8T8tqgD9ms+hz38tp183r0wc/WkPFqdBuo16soFcsIAl67RvyYyeVybgQHfVhVr9fj0Q8MwzDGIRlWUFZDNRFnR4SLL74I/+dLf4NiyUeWD+coUquVWk6GWkM09JT7qbdFw4jikaXD+ci/ePFi/NVf/QOOOfpofO5zn0EY1fn8rzMMA6hljLG5yDbrzxenx9gWzB+1LsZf/9DU+hjn4bvf/bu48spv0d9w3wWFYRCH5TZdwYmE6w3Kcuj7WdRqIfK5An7y42vwD//wz7jwonPw+c//PYWMxE2G5ZVCVNma7DsapB0pvIyPKOS95O4rHlMCiqmt1XrQ1pFFT+8aDFQ2Ysnzi/HQvXdh+YqVWPlaHfUg4+5Nqi1e162kND6EsRsoZ9NslF+j/mV1i/F+U5ny+NJSKjcwdVoJJ5/8ehx15ImYs98h6OmuYfr0uSxTEYKwwnouQ3/DDWMpoSz/vkyGFQ7f75hfWbzrXR9iPfRtrnN3IbfKUtKyO94Kq+7Q0N2fIV+InnxyEf76r/4eZ5/9Jnzyk3/strt+/q4+TZ6Drt4dHVwXqzCL977393Dfffe5dcpj94uTYYwwJo6HEWeHieO9C+aPiePtMv7EcXzJPF2vUK3GPK5ajPnAzRdCXqs+rF//Cm6/+2Y8+8xjKJQ9HHlEFgsOnovZs2cztMZrDlEoFBA2msVGE4pu8F4SWrErfrliZ/xyxa765Yqd8csVu+qXKxK/+whycyLlNVVfNptlWfFQqdbRs2kAa9b24dHHXsVLL6zGpElzcf65/wOHHXosxXOJd19cH0oY12o1d83kKo59FRPHI4uJY2MsGb2SbBiGsQ30LNXDLWg0+NDTOLkRxRLND9DftwbLXnkKV1xxBdasfAJvPvcIfPQjZ+Et5x+PBQd2oFzsQ1u5l24vGvXXkMuuo9jfMMw2Ip/vptFvtvOmPFS+ZtcnbuwvFdej3LaWT4+laIQvolhahWkz+3Ho4SW8413H4ff+4M047PDJ+NFPv4lf3HAlBgZWU2BFriuFGgskkDX5UTrJkmEYxnjDxLFhGHuEuCeE2qYojjMNiuPA9VlFph+bul/Fj3/8Q8yfB7z97a/HqafMoSjbhEatB5mgAjRo9Qpy3K+rLQ8/rCHDdZvbAK0/sb7EdtUvd2f9cnfHL3dn/XJ3xy838Ud0I+ZjxHx0rqwfYdCHerUHOV6rYqFBEV2B52+i8N3grtGUKVWcc+4heN8H3oCFT9+NG395Nar1XtdKLIGsLhXu+qtZ1TAMYxxi4tjYR9FPfenPlMN+rmzeNGFplTdpxoxV5oSua5F6rvp+huIqRI0iauWqF/G1r/4bDlrQiYsuOgkzZ+RQrb6GvN+HUsFDPusj72WQU8NjWEeln8KL/nw202RczkW0kGJMXUhi2xF/ut9wU5gct8XukG0ZVoJRtrVtrdZvzYbOwR0ry2XZ4PbW1pyuHfG3Mn0AmfOZXlrOD5DLBs5foMgt5yej4HUBQR71GkVuI4LHF5Ug2MR4+xGEqzB7DvA//+gsPLf4CfzsZz9FFAUsWvq4Mu5rHHdhMwzDGH+YON4K6m012BVsuzSLiq1ZTOS+9N681SSeFtPYLVx/42aUz0N5HOe6+yGflv6cq+0T0URSLt0Qac15lazfYp9dt7hffhxn0KAYZq3jUQwHQcBt6kqRRb1aY1I8FPN13HzzT7Dg4AzOffMhKBQGGG4DiiX1N2RcNBcVkbbyPR/FQpFXlZGmSXfG60zX9f3ncdN/sV9/tT52U78Ta0yD6/8c6QPBZH/nyvSNQWpcdntK6PH8Ill6XIpAjQesFVrnpvejYKdibzQq8QuB+zhNcSvdvvM3QrWeU282NA2z1qm0aqxnHYnbmGc1Rp31S4yD0TJepSs+dnr8NN1KVXpu6dmr52/Dual/S+Mebv84XUq3YqBHJ5KE0f5cy8RmfJ8vNnlnOS/L68EUZyWgKyjz2nW09+MD7zsezz1zB555+jfIcp9GnS9DCqvuFUms8VVJ0dqhJWPPMzR9s2FMDFgDGs00VwDbrxB2vBKPo4nDplHG8W9+TGNXUP41W+pEg3kt4nyOh5Ka2FmeltnhZVflOUXbdqxsb584rlxeQ3ll0N/f54Rxe3tbIqZ4TSTEKPYee/R+vPLKo3jrRYdh0iTt149GNEAhqA8qs7ysun6e+0hIFotiXk++8DjjtkFzL0E0qXGGjS075Hfb9RN/bFEmdiljmR595JOEdQJV2/IUjXnmUo5JzdIUr6pQHYvGfdwYwMk6L5N35uuDtHoGPZt6uY2pyvJYybE9j8KeJlcCU42qGZdGxh/ypSFw7eqo1etuWDQvU0a9oXNlehh3fH46f6UhHWdY25T++HziD5YUTpakObEoMbfs0qSwyb7KD3cMmssbbvcYnkGjTECJrJcbbmK8cV7rnJkWvsCo3zivNAq5CmbO8nDGGbNw373Xo7+3Bzm+DEnLu4+V9abjjLvHf4xxRFxXxhYPw5dsMIx9HNWIxiiQVigpzX5jjNgiy7Wi2VT8J4qRpEw229YZufyRcGpQ2PX1DqBYKGNS1xQnjjZu3OjEVb1WQ57CuR7UcMcdd+ONbzwSs+fMwEClh4JQ2/QBV4BCscBk6QHdbDwPHiY2nVOyzpn8FNEUe1s3bR8yJ/Qo1rSvL2MYF8dgPH7TPwlpmcKk6YmFq5cpOSHdCDyEjQjlcgdKxU6USl0IKJSDmr69V5cEoFppMLzGeo73149Kyh+NE9wIGY4vBdl8EYVSGXnmXz2gXGZ+pefInZ3pcsZp4PGhsaBlFOiDpmUKcWfptjhshuti44sBhXWcD83nxHUuXInLdCWUdEwnmIbCxi8tFFIyblfS1GJ++uknYP26V7Hi1aXu5BrJB5ibozInMwzD2LPo6WXsAEMP3B2zlC3826j7m/c3GxnbOq3D77smgZPmx5Abi5pkcXh1wPWt49o5E/oJvVQqueG7KpUK9FFWW1sbsr5aKUWE115bjv7+bhx51GEUxVXuw/2ylGW5+Cf4Wk1TQevn/GZTK2YmcVPTcmxOsEUUbK2M8pZb+W9IKGuoLWeeBHKc/jgMw9If78VwEcPLuJ9aZCNnybEpMKOwSGGcZ/pLTH+eQr/O9Vn0DzR4zmUK4ZzbVip1UDyWEIQZN7xegYLY8/gyQXEc8E+hUOJynhHHLbo9mzRecJ6CO841JtClUdcqPmedQ3J+Lo0Uv8nEKF4o07LWazuvvTuXHHfWi4dainU+etNQay4T4eLWstYrHRTQmg3PHUf7y5QGLg/6Vaa0HK/XsIClthwOP+JgLF78NMKoxnMI3QuPiz619B8X9gXbGq3CjldrTeuwY2E8tGGMCSaORxF3Mze5hrFnUTmUcFGZlKvbnwtSdYNPnWb/yKC+whqlQCa/TBNAaBKJej2eFML3PSxfvgxdk4oot+mn/AClsgRbSKFcd2HcbZQ+IJstZfh6ho3/pcItEW+b/UtE3OA/7Ze2aGpJ+yhMKvbiUBLITkzTXLimY6obgu91oFiYzPOTyIynw87ly8hlyxS9Pv3tzPYcqrUMxWKWeeGjXJ5E8VxDwF1K5TYKZG3zKLJ5nEzBxTVlyizkc21OHKvVNj6eTMhN0ypLzzcOFreIK1T6L02/hHfSbYL7cCWNidC80U4gc1nrB8PJ1UqtSy1ddjsnfhmXGE++kMHrDluARx59kC8LTJlePtzmzfM6dg3DMPYsce1lbB89FHfS4t2GXGduqRWb72s2MtYabYvF4cSx5jxJzeWEc2OBLNJt3EfWMq6ds9deW4nvf/8HuPLKq7B+vcbQldALKJAlkim+iD7U27BxI6ZNm45CMes+Wgs0ZJv6FwimO5fLu1bV2LxhxnUUoUOWTVxt49lsZs37bb6NuzgxF3cXiPsfq8uDi4fmUzT6zB6Z4tf5UQnHutJpS0VSwKrVVSx5fj1FYTtqDYnDNieAgwZFcqEDff0B1qzdhEaU43I71q7fhOdfXIVsvo3LbVj45BJs6qu5sMiUKIi7+JZRxK23PcXlIjJZ5UV8Dhmee4Zp0Mdx7rzVZUL9ndWtwWvAy1ZpfbH5AzS13Kr/ssIyLnd+DCvTei9kGO6nfX363TptVx7wGJ7yljZ4HZLjan1qLt+T9DGvMpk69ps7HctXrOKC+irr48NErDNsbOl9Gedrc5ndG21rtAo7Ho1/khRvSavwY2KubjKM0Yc1ubFDRBH/75oJ96V94mfVkrgi9vO+32I/s903PeiDIHAtj3JVwQpu4jWZSCYh4qFarbllPWQkTGMhojzRw4fCLRmDVmwZx67Z7NlzcPrpZ7hjf+Mb/4Xvfe8H2LSpx/XFzfoUZl6O1yZEpcLlnPq06uM9ijFfojLuUiHx7mYbVlpbGM/OtbLGH7pJXMfdAKjBKRr1sR0FHAUlpR79+sgtg4CJ8/ysW5afyaFf27VvgW6B6aLQ0wd1YSzYGjqhpLVTwk/lSMfO8BzqjED7hzz+K8v78Ovbl6BaUxcNHVet4DT6q9UQy5avxDU/e5jxq1x6ePbZF3H3PYsQ1HkcCtZbb30EryxdjSrfD/QRnj7OC8McfvKjp1EZULlWnD7TrPPXNeM5MWlaH4R1euqUn3Weu4S+Esv8Y2LrYYNp5GLWo2ivUIxrlkG+iNCyecbnZjzjddNZ8fw0QYufyzrxradFXXFze/xHEbs3gsS0Ll2WPzZ1Uwl4rK5JbbweOo86j6mJX/TrwfB7VvVkasO37V22NVqFHY/GP0mKt6RV+DGx5N4zjNFGtZgxxmz2JkxL1xkjj4a70lBhejlJ81uiZuIRt/Bp2t609U/CtFKpJnnjo14LXDeHGkWsppgeqal9ddzXve4wvOtd78bll/82enp68IUv/B/cdNMvMdBfQ8RrlMtSXNZD16qsMY8lz2IRGpuGbFO6XZUltTdoXKfz8fNczFJoMoRfQCOgYKagVf9fdWHgKaFWpyCsswxwe6nciQqFa9V1e+Axs0WuL1IItqEmQZztxKpV/XjgoWexfgOFY67djRyRVau3ZvRjStzwaxTkag0uFLr4YtHBc1W/ap2zPm4roL1jKvr7KQ7r6m+sfC6gWOzAQQe/DsuXbaQofplCMcdrELdO57L6YE/XRddHcU6iX2VWLc/6gM9z3Soi9Rt2rbQ5nlMslnXu6tesLhH5NsapfyzrNb5UhOpz7Leh3DaFa5mWap3nKkFfpZ5tIJNtMD/6eS4uA5ken9s1ZJzynOlheJ13qVzk8arxvcRrsblJ2Cd+nstQ66+i5FoKdb3gqBVa6xhwK5gAMgxjzzIRVYIxgcjlPNfyqI/AJPb0sFYLskjF8kSx3t5eJzIHBiq0AYpRij7miYQwN1MIRe6juVKJYrJadfk0PI5dsZSOjg4ceeSR+KM/+iP86Z/+KV5+6RX8xV98Bldd+ROsXr2Wgk/HHHB9UuMPwpIdk9bgIXeYn0IxqAP5rIaGK6GY6+KuRfdRXBiVsX5jiFxhOgXwVIrZDtx190J85as3UqxNpQzrpBguuvXLlvdg+YoBRN4MbOjO46WXB3Db7c/jHz5/C+6+9zkM1CgaM3mKxjKCMEuhyONkSli3boDn8GvcdOOTsailoJXAHRiI3HJ7+35YsngDvv/9m3D11TfjwYcWU2hmcc65R+Oee1/kdcgxzk6Gl0jupICdjYE+tQZPw6srKoy/gZUru9HeNg0h9/Mp3CXoa3qZKLRRbBZQKLbz5YDCnCJc6VzLNDUiCdkC2trn8BzVh7kDm3r4EhS0o6NznltX5XY/W2Y+MScp/MtliueG+kZPRnWgQCE+jS8WTJ8+IuTjosaM1gtW/OhITdciteb1Q+g9ZgheWDVfy9xFHrzQhmEY44JMpN8qjM3QT3oXXXwhvvSPn0Ox6POBq3aiuCXLU6Ufyfjgd2uaH+JDpD8Dpa2U8i9evBh/+Refx3HHHYfPfOYv+cDQx0l1hmGATPxTootM8buHS3yE2IwdQ3kW57m47NK347Lfusz1cVVea2SAWq3iWiGbhdtEQD+rF0ttFKBqrdUMaWU8/PDDuO22O3DMMUfhvPPe7F4i/KzKIqUOhTQriGTvXSe+FwI3AoNrtebLisY3VnqWPP8i7rrjThxz1JHobCvh7PP2w2+/cw63vQJP95jrHkHlSzHqxhnWfSjhPHhPxPeLhkFTS6paoSWW9YvBildXu+4JtUYn3nrBcZg3bx56+IJQr1XR3tHOfKjjsccWYsaMGa58XHnVjeicPB2XX34JSvkO/ORH12PpS8tx0onHUDivYp1wFA4/YhqPVUfEk1n64jI0MlkccNChPK821/LeNakDV191P2ZNn42nn1qBD334bDz/whL84Hu34KBD5qC9K4OOrul445sOx9rVPfjav1+Dd737fKxatZzHWovfec87mP8R/vWfv405cxZg6dIXeIo1TJmax2WXvQWf/asb8O9f/UP4xVXMzE08e+Wt8qSGkEJ31YoAN954H9OVw+X/40weq+TiKxazWLlqFSZPmsp98ti4oR+d7VP4MrAWLy19AqeePhsd7V1oBFk3vFyx0ImqRthw166BRx9/GHP2m44FC+ZSxPeioNb9Hbx91JWlkWlHVJ+P9777G3xJ+A9eX3WBURcWvQTE92uG11gdXtQnOY58Bw8wbkm6urCMvOtdH8KVV36bdU5afukOkp7n7t9rI4uebrx6vGdVDTz11DN8fn0OZ511Jj71qT922/Xh7OD56DTcs2t0UPcldW9673t+D/fdd59bp18n4pdkwxhZTBy3wMTx3ozyLM5z8egjj7v+rbl8Hn19vShrFIBG4ETURBPH9Ya6B+jn94YTx4VCG+6++15cffWPccopJ+F973sP80TlOf5YTj+Qj0TRkwhVVvtJNw61PGpdlelY/NwLuOanP8Lpp5yKro4yjj2xiEv/xwxk86viocYGxXE8GUUocYHBccwS81EZoDhsZHi/tlPgRSiXOvDf37kV6kqRzU/jcdfjHW9/G/MgwH333osDDzwABxw4H9//3vdx2mmn4+577sbUKfuhu7eGqdNmYO6cQ3HX7Q/irDPPYpif4OKLj8GqNc/gne86m3FTfDOen/74F6wGyvgfl1/OVHS5PtQR6vi9j3wN//MPL8NvHlqMj3zkQrz88nJcd+0d+MM/ejcyuR7e93WUynl0b6zg2p8+xPs/g77+ZTzXLnzwg+9FsZzDH370bzDQ7+OSS8/E0cfMxQ03X4M3vPFk/Pv/ewD/+Y3/BT//KurhBor6CkqlMq9XP8rFabjq+49hzWqK9CnT8drKF/HB370U02a2o79/E37969vcuZ120ln42ld/gbddcD5efmk1Xl72EN73u4diHcX6ffc+iTecfibPcTpuuP5mnHX2WZg+owtf/eqXceoZx+HoYw/kPURBq48ldxBNltJALI7f8+7/YH7+J5fV5YWm/t0JsTjWMBwSx2n9tzdj4ngkMXFsjCUmjltg4nhvRnmWXpAM8zaLgYF+NwubPkrLZjUtryr8uCvBhML15ZV5qFUDlu02N4LEl770j3jb2y7AX//1X0LjCodhDblclqEYdgSKnvuQraHRCeL+3xs2bMDSV5bihht/hfXre/Hud70Drzv4ANx6y/Vo71qBt1w4jS8zEsc6PoVYRp1mNcZuDqGnBA0TxwynPsbf+c5VOPGEU3H8cSdQDNawft0A/uVfb8WFl7yRD/bn0NU1BR2dnfjuFT/EZZddxPPP4YUXnqJofgeF71pc85Nfwi9kMW36Aehsm47nlyzHUYcfgTvv+iVOO30BKtWl+MTH30PB3YPOjnb85sFF+O73bqdoPREHzj+ex+zHwifux7JXluPCt16On//8Ngrn8ylyQSF9C2bN4YtZZjlfCmp4+zso1GsZPP3EevzylpuY3+1oL0+liLrIzRz4+b/7Go4+6gScd96ZWPTsrVi1djF+67cuwr986Q5cccWfox69iEy2H9/+9ndw5OFHU+Afid5eYNP6Mr71rZtwxDHHYO3a9czvPBYcdCDT24kf//gm3gtr8dYLLsLPfvprHHvsMXxJqWD2/hVc/vYjsW5ND8X6Azju6FMxf94CXHXlbayTwJeILjyz+H58gEJ7+swO3jv65aWqh0d8GVxd1UyT8OPl0WtWiA6E9QMojr+K710hcaxZBxNxLHHlrrX6KOvaylT6dH33ZvYxcfwkxfFfmjg2JgajV5L3MVKxu6O2s7SKw2xXLX7RkNXrVZRKBVaimqlLfTpDaExdvZjohWQimfKjWqvw3OMRDJQ3GqaLWUYLKEh95hGtoNnXtE6teK3j2hlrUGyrH3Ff/yb86tZf4jtXfAvXXPNjnHraKfjc334WJ5x4HMptBSckNGKFG16MQthNxpHhyyPvD72UuimT3ZIehvLL1KJcQlDn/o0peGFJL5a+tAnr12oWuiJfRPfH4ucewyWXvIHisYeCdzHe8Y7TKcrX4qWXXsW557weCw6ci2OOOByvP/04PLfoNcbxIoXiyygV63jhxcdw4IGzma5NfIE4GyHzSQK/r68fRxy5AL/zO6/HsqWrccP1v8Ldd92LYj6DT/7xe3Hc8TNx7rmHYeHCu3H//fdg//0pftsjnHDsgfjwBy/k8ebh1eUvYMWy13Deucfhb/7qHbjowqOx8PF7cduvb8GxxxyKXLYPv77tenh+P9N8Fo46eg7OPvcg1BqrXf/welXdXqbhhcUDePmFCjauyaFWyWLWrBkUxi9SBJ/Ca1zDffc+jJtu+jVOP+1AHHnEfDz22KM47Yz90NP/GsrtVZxx2jHIZaah2l/AxvUDKBQ0OkaI7k0rsXb9Rjy3ZBUF0Wno7OxwfdLVLUYFJPJic+JIwmjQtI6mS5Vs08uR52lKaY1Qwv2TKbCdrtK9quHdaPTRGMqVyeH39d5lW6NV2PFqKbFX10UXOF6Ow2jdlvuNlhnGWGEtxy2QiBjecuyEAivuHW05jod5ogjRQ4LI/9xzajn++5Ytxxr3U8d1kVnLsTEKqHRJtLhh7epqRc/jR1f/BP/wD/+Miy46F3//+b9leaT4y6mVvaHKYUSKnoTRI488QoF2k5sV74QTTsApp5yCtq7J0OgR+RyFUqMf115zNQXuK/jAB0/hYV/mfaE+tRRUYZGJp2CjEG5QYGlmvBjdOLFQjhp5PPLwEtx5+4N4fnHIfX1MnRpg2swS3nbx6Tj00INdFwSPwdWl5JWly/Diiyso1CZh8qQuitIlWLK4H7liLz70kbdg1sxpLt2SaqVinunUzHQ8bob5MpgpvL+1yrm6X4dnVvM6+XUFJATdlYjRforEBRsenksMG3lVhknqhlAvBMnLQSOLJ55Yil/98h68+Lz6B2cxbWoDk6cX8daLTsERR7zOiWNmBVGfewnUOF4Xlyzy8fJLK/HAfU/iNw+twX771TBp0iS88kodRx49CW9967n4zW/uxesOm495B8zhMeror3RTJDel1dWFis8tDLmx8qWQ1+gX6sM8CR/+wH/ju//9bTTq7dzCl1W/xt2ZdmeqM3V+PjzWhWlK91ZUBiUeNYrHO9/5IVx1VdxyrGHskrsxYXjejQ/isaj17YFGgYnw7DNL8Kd/+lm+9J2JP/7jj7sQrpXftfbzfFRG3f04OqjlWGX8ve/9Pdx7r7UcG6PL3l7/GIYxzlmxYgWF6Iu48MIL8fGPfxxnnnkm2tvbUan0UqDX0Qj7KdhDlMtAtdaPgf4696Igphh2rcWZuKXStSS7SSx6Euum2F1PW8v1q3Ha62fjD/7XW/C3//AWfOmfLsef/Nlv4WP/86044sip3F+TT6xELr8O2fxazJwT4axzDsGZZ89HZ1cfOif14IMfPBaf/vRbcfDBRQq1V9HW0Q0/pw/fXuOxVsPncXx/A/0baXI3IJOlm+Wyc1NLl5W21F2X+DcyHsabWm4DXa7LydbHy87WxaZ9/D4KLbXy0/x+Wi/9PTyfbpxw0hz84R9dgr/528vwf//pPfj0n72LyxfjmGP2Y36tYx6u4Tl384VHx9OxdTwZj+XT6M/lejFrVgGf+pPz3MeBByzoxO+85zhceunp6Ois4fgT5mPu/HYEjXWoN9ZjUmeJujcHjy8tztz01Hka1/F6DU7HTSETT7GtYeSK2LixB+1tDQr2eBQUDV3HkxiUhiKW2VrTvNYYnzRdI7tcxj6GieMdRJX5ztjO0ioOM7ORtJ1/gLWOZ2dt/vz5eNe73oUTTzwxGQYsLu/q8+tnG2g0KmhEVcyaPc19qNfbr5/fNRkI1XJGXWJ8ZDzGxdrKp9DyuS128/AzWdeVOp+PUK1uQFspxNx5bZgyLcTkyYyFy/VaHxr1fuSyEQVZwEqv5gSep9bKsA+HHTYPl15yLg4/Yg7T1EBlYCOKeSBHwR4GA/RrHGMPvtdwvyINufFseRJ5bka9HTWFd6b82ZZfAtLneTKfKDZ9ptznOndcv458oc5zXo1SeQD7z89i6vQKJk2t8SVDU3V3I6j3UPg2GEeV+Vlx+wyap4lxaF4N+8+bggsuOB3zD+jE7NkdOP/8M/hCMQdtbfopuxez50ziceP9srRalXEx7yV60+sQzyKYiOLU3Dq+4FA016oeVr62EXP3n+I+lqwHzEM3tCIvqs5VI6PoOrtz13nH7t5sW6NV2PFqW6NV2LEwHjlOgGGMMiaODcMYdfRzvkxjKw896PSTe5UCTuI2jzn77e/GGo6iEreVuLWEkOJYE1mAYlQ6ygs74DUm0bro76S1OwsqPtoKXSjkygjrDSAMUVAf83osqIuFDopdbaMQo5irV0KU8m3IZ4uoV+soFYoUZBH3LyDrUZBL0FUayHMfj+GhiUEitZION7WilpEJ23bcop0zj/HrOPHxKDhdi2yGor+G9rYi804ffvUzL3t5zhqJpOZEdLFQ4jkzDwL9IE2RLfEaqctCIl7l19n56vYgAa0xjCVMA4pgvhxkmVcRr1EQMJ/yyHkS6DnGqVbieF/lph4isckv01+NPKF+xerTkWcap2Dhwldx+OEn8rp6bvSYqsaMc5joMQxjfGHieEdJHug7artCq3jMzEbKdpZWceyKqb99OkOhRLDMrdPQZxR5EkZyp06ZhTmz5+C+ex/ncjtNApnClKo48in63BBfCi3hNSS+JMcK+SLjUysppVhOs/1VENCyXo5GURnmEAVqhS0ilymhmO+ggPbQoJB28i6M0N/b77pQQjPrBZSPFOZtxU6KZKazweNFEs2bW9z9Y5TNCfBEhDuLlwvZTop9Cd08/SUE1YjnHDLdJZ4zXxoopqMgz3MuU9J2wJfYHhTpikfiu8zzzbtzzaqVN1RLPF9ImFfV/gjlAl9EeKyB3giNWpHHmYyozlzntVBrsj6YhKcRC5K+p3EnbJr+SBirdbiIVSv78dJLy3DMsSdhoFLjixLzGHGZcOb+UVQ7f7z74La91LZGq7Dj1bZGq7BjYa5wGMYYYOLYMCYIfLw4UTrWqMVYHwHqAzeZUDp8il4JV836VqWwyxU6cP4FF+NXtz6Ilav7kfEp/iTwWE25j/AkkFHjiVSplwOa4goYpsb4KNbU3Mlw+vCsUKAozmm2uvinep21BFnW1wQhFJGB+jVrcowCNIti0KggX6DQpLoenDqb6dOY0KomCwUKUok39y9uH5X4i12hI+ysiW35Y1d6ILbkX8TjRvqy0Gd61XUhx3yFS2M2S5GbzTEUxSfFv6aVzvoaCUQfWSq92iahr5EiYtM04g3mGTfA8xVOY2BTCBeLzAK+aPAFotxOkewXUaP4VrgIugZV7lBx/vSahNCHdXzH0IdoFNkNXtugnsdddz6OSZPnYu7cBcxroNbQ6Cj6+E4owvTsuOQ+5Nu70W2W3mvN99zefmZ7oPrYApe3e31OGuMdE8ctcG+oSVXtZgnTW2u8afdhROlb8HAzjNFEAjVli/LWolyOJE4M8/gyiS8JZok0P6PuAvrJvkQRlsEBBxyGk095I777g5uxfkODgqudIq2LiaOQ4z65EoUuRVk97KMA01TPDKOP1T2KYgljJZvhIt63Ic8hRIOu+lZQkdECiWufx89xm6etNW6vMfoG11HYMUyYoQjXEHcaKcKnOKXVQ4bTOh0nMXB/Hd+1nPo6htxmv9zh/p21KqJsP0I/tojLoTOdT8i0unFuknNm3mg0BA2JNnjOAc859us8dM5RYiHTLrchYctz1/EiWibHfdRNg3EE6vZS4EtCWOH+DfjMN434oX0VV0b9uBkvVTbDM4q8PmbM8trwZYjCW11jli3fgN88vATnnHMht+WQ4wuJusg01OdFrce6ZIOPIo3isG8IH5X59D6SM9L31Fjg+oQ7l3WCfpYhQyOejD1MhcliY0wwcWwYxh6CDzrqo6hB0ZsrokENqaG8LrroHajXcvjZz+6iYO7AunUUXo0OWhH91X7pZBTaCshqPOYsH9gUwlRtfHjHRpVLVwIsD3C7BBwk4NQYrPD6ik7vCTRqOCeAtV1uRME5tH4ojNs/CbO5XwI0FpY7ZqmA3tIyWQn94cZt2QFav3OjbIVulSaRz30S0av0uJcEZ1wvsSuT38URC2WlQQI4cusC50Zan9U6xSuTn/Eny86fpF/7ujz1C6jVIvRXGnxxYAZlizxOG3r7M1wuU0xNpvjtwtJlffjyv/0Cp59+DhYsOBzZfJnXR2FqTphDw38lckfSy5lrnozXGYZh7AlMHBuGsUeIf27WpCwZ9A/0uZ/x642QwquIyy59F55fvAH/+fUb0N/bQT07F1E4DaW2KWiw2hqoBqgGEcP7FFqesyDM0OT6ictlCu+hdVlajpbnfnluazK3ntvVDaBBv3NTP/d1frlbmroO7Lgp/M6ZO3ZEY7qdNQrO6iHdsNi0PjF3LtzPna8sOWcXPt53s3PfwtJ9mo6ZxKHt9aCEIOhCvqDRPeZS0E6lUO5Etd6FUmkustnZXJ6C+x5Yim9++xaccOKpuPSyd1Msxy8vtXqN11oz5FGY8/q7LjNUxbE4Vmtr3JpsGIaxpzBxbBjGHkGjQ7hZ07w6RVeFMqlOv0fh1IFDDj4OH/29TwKNGfj3L/8Yt9z0JPp7OlEZaKOongwvO53qegrV1GTk8tO5XxdFlqyD1p6Y/JMpt6bQpnG/qTS5M7jvDLqMA7FFibulfxpd7pPYcL8sw3DeTpjPY7cyL+T2YYZwJtM6hy8G+zG9c7gsl0YXodbPji2aRZvZZFqmhbI4DJzLOBSP4nQu1w/6Yzdy6xRnHG/sV3zxeo8vKnpZqVamIKhOg+/NoaCdg3ptMkXzVCxfVsd3vnMTbrzxcZx+2m/hrW99L3r7QhRL7ajWasgV1Mc5UE8QXh+KY9eVohlrNTYMY89i4niHaa6wrfI29kZUbtOyu7UynIZpDjtaaHpvTWoRoKtLH97VMFDpRz2I0D8QYuaMBXj/ez+Cc895Jx556BV86hNfx9U/eAKPP1xH7/r90ai/DvWBg1DvX4CwdjCiemKNBbQDaAciCmRcdnZQYkPLYT22qM44EovqB27uHwzPdYN+rT8Q4L6ocf+dscF0bN8g16UvtjRNUcDzczafNi+xuTQKZ+dP18ttsvp8xnEALfXT3HqtY3zO4vVyo/o8+hmPszhsozYHjYBinoLYz8zmC0sXVr4W4NFHluPv/vY7+Lu/+yav5VS8651/iDe8/hKK4KkoFDrQ319x00/39/dBM4MOTuHuxHFqo13mxor0PJrvpeZ1hmGMZ2z66C2IK7ELL7oQ//cfP4dyOYeMmx4zcFvdhyNu+mh9UKSQDL+V3wDTDzLSLH7uuefwl3/xeRx//PFbTB+th4RNH22MHiypLFIafUGjGcTTRxfc9NGf//w/4+JLzqX7dwijOtdr3NyGvrFiCVQZ3EoB3000KoEEsRs5Qh/+8F7JZimSQ95b+qDLjRQRoZjLoFLpQaNRxw03Xo9Fzz6Dl15cg6q6xfoRFCz+4CmOd5skt9L276j03ts2SY8A56ah0z3T5Gzmp8eFZ2Kr1TqWvbICBx9MQap4XCBXowzGIRrpzluQfJ7UvL15x2FsXtM377SVHbYGg+vbLNVbIassPwt0TQbmzJ2Nc84+D0ceeQzrzamuG0WjnkEun0Vvfzc6OtvQ39eDfF6jbER8MdKQbuoknbTSKHNcWtK6rzmNexeq85Xf+ngtCjN497s/gquu+m+enYavU7l2oRJ3fJ6nPvUUmuRGo6E8+8xi/Mmf/A3OP/9sfPKTn3Db3HPRDeGXvNxoFJVRgk9Tlrcs3v07H8Z9993LJf5zHwyO3jGNiYuJ4y1QdoQUxxcl4ljjdKqSkGlQKd6M7msdd2tyDcNvpW4zcWyMH1i+JCQljv08xTHcR3BXX/XjFuKYoaOAlQNLuCuLo/XwblW2dazhx0vD0dxDuHmf4fuPFOm9t2PssDh2f9SdJItXX12NL37xK/jyl/8hqStigaE6Ja5bBPdU5C3ZuTRuTpoisStxNO9PXBQqK6lLS8qOzsf1K06OQ7k46N+c9HzSePZe4jpf11lD4wHvftdHKY6/zTUSx2kZTvNA5z0sP8cFTCeTpeEKdQ7PLHrOiePzzjsbn/qUiWNj32bvr4XGgvFadxnGXo1uKlVBzdbqRkvDadiI1E1ND8bRsJ2LW8OXueEiaKlf7pZ+n64mwOAyj6HX7dhN1nFbGkaui7PpOJvb7py/9k2t1fadNY1ZnPp1jYgEE4WTxKDOMr3CXJn4hlu6fu/H/Qow/KXGFe2mdS6MPMPCGYaxx9k3aqJxihsbMv6tdMgfLxrGHqG5TO6dNIupvdfia5BauizSMJtvH39m7BDD7rW9+94zjImD1XI7TCwqdsbcXsOWt0VzWDOzUbG4pA1b71ZuweZhxomxytq7bdj5MO+1bvCauH8Mlxm+33iyJK1mO2Hx/TRu76sWxsu8VVqFHwvbVpoMYyQxcTyKuJt5mKt/hrHHcA+ZxG/sAZT5qnblpvUBBafrO5lua7bxeLH2lnSOH9J7Ln0WGIYxvlGtZowS+igj/Riv2W8YexKVw+YXtr2rWCrde7kxvyM3MkOa96nbVB1vdk2G7b/HjSh9zWa0Jrm50nvMngG7x/DGJX3saRijgYljw5ggRGEEr6nlKtQn6IZhGHsR1vhujAUmjg3D2ItQS9HebLtCq3j2pG2PZFivzcwwDGPvwcSxYRjGmNFKaA4XnMOX90LSHhjWymcYxl6IiWPDMIyxZHBCjFaiuNX68YipXsMw9l1MHBuGYexRmkUxzenOtDvC3iCUDcMw9i1MHA9DHxPbF8WGYYwtw+qccd8wu506UptTMwzD2MswcbwN0q9i9YW/fSFrGIaxI+ixMtyMvQ03CjcffJ4Xu81mGPs6VmsZhmEYhmEYRoKJY8MwDMMwDMNIMHFsGIZhGIZhGAkmjg3DMAzDMAwjwcSxYRiGYRiGYSSYOB5TMm5ko0ajEX/1m3wNbBhjQVrWwjCC7/tuyML463OtC+l6ybKVybHGsnxiYPeWYewdmDgehqu7aHJToTCSltJqm5nZWFha/lI38Q5u33yb2WjZIPS22m62b1gKl1puH6+mcrk1WoUfC9tWmgxjJDFxbBiGYRiGYRgJJo4NwzAMwzAMI8HEsWEYhmEYhmEkmDg2DMMYS6KtdZzU57rGPsM2r7Nda8MYz5g43kH0Zf+umkYCiP2hIkpi3Jzh+5iZjbSFLH8NlkWhMsmVbv3WHtTD9zcbCVPOSjSlNpT/qh8iNOgmJr9bTusPs73HdEV1ffWITUVyfK3dduiaju/r7JK7FVqFHwvbVpoMYyQxcTyKDH5hm/gNY09iZXG8oPxPrOWliF9gjL2dpussNrvWUnm6zqb2DGM8YuJ4DIlFyWY1pGGMKSaQDcMwDGPbmDjeQSQmdtZSmv1bY/i+ZmYjbcMZWt+6fDbvazZytjVahTXbe21rtAo7Hm1b7Titwo+FWduSMVaYON5BWt2ou2LjscIxm5jGP0nJ2wouSOt9zXbNtlUBtApvtnfavnKdW6HVrcKOiW3rAWoYI4iJY8OYoLhHOB84hmEYhmEMYeJ4GGEYfyChD2NHA5Mixp6kWQvbp0B7hvSFpNm1d5R9j+HXeW/GncM4OA8lIX02y3Gj7hjGKGDieBvED63drxSGKsfkp6GtmGGMJixlg+WsubzJ21wOB81e5UYcZqvL29gf53Ga38a+w/DrzL975XVO0zxkyYY9RJx/e1ceGnsnJo4NwzAMwzAMI8HEsWEYhmEYhmEkmDg2DMMwDMMwjAQTx4ZhGGOKPiVq+hzSvozcRxl2nfc5rAwb+y4mjg3DMPYY6cdF6YdGMj92o8SMfYT0+gq5us58BI/b65zKg+FpS5XwcEVscsLYd7DSbBiGMWZIUGj4qdQdhhNJrczYu9jXrrPOIzWRujaUmrFvYuLYMAxjLNmqDhrP4sjYabZ5nffSa21F1JggmDg2DMMwDMMwjAQTx4ZhGIZhGIaRYOLYMAzDMAzDMBJMHI8B6dSbMdHgchiFw7YZhmEYhtGSYc9Ke3Yao4WJ42HoXqNcTfyxcN1Va47D8zy6bhX9m2/XttRvZjZa5srYYNmOy1uz32ysbfh1aBXGbG+3+Nqm13cvv87612r9GFozw5cNY6QwcWwYhmEYhmEYCSaODcMwDMMwDCPBxLFhGIZhGIZhJJg43mOkMwyJ5pmHRLo8fL1hGHs9dltPDPa167zFuaQrmjfsSydsTGRMHI8DosEpONPpRoXc1K/1Zma7Y7uKymCr+Mx2zZSf+ohItrXqt9V+ZnuX7QvXmefgprkWqZui86MNbm7aZ4t4RtIUv2GMPiaO9yCbVzfpTa8KJ60EUiMKbGa2y6YytbOoLNIxGzlzDHq2zfB9zfYecwx6WpDU62L4vuPFHM0LgytJmv6mZ5TEaxp8tMwwxggTx3uSbd3szdusUjCMfYyt3NR2r+9j7EvXeViirawa+zAmjg3DMAzDMAwjwcSxYRiGYRiGYSSYODYMwzAMwzCMBBPHLYiiiJYsjDCjFK1h7DDDp1wNd+VbPcMwDMPYRzFxPIxm4ZDJePA8j268fiQs/YohXY7j12XYMqyZ2Uia59FleRsqc3E51IuglukdRGG1YngcZiNpI1u3mI1Pi++31tvGu22NVmHHylzdpDS4v4YxOpg4NgzDMAzDMIwEE8eGYRiGYRiGkWDi2DAMwzAMwzASTBwbhmGMC5pnGzN2isGsSz20Ju+gNS80eUfctkdzuOb9Rsz4Z4t1TebYbGGLRcOYyJg4NgzDGAX08VAYhs5Sv0bC2RraLnWiD47q9brbJ4q2vY9BmD2e58f5zMVGo8a8Uz7q8ZaFlynRLXC7AgcM3sftAf0e89bj+tjNZLLOAH9Li3bOIpo+uAzDiOkJceCB85Pry+0ulXKT8Lt0DKYzLMBrlOGFJVqe5rsHesblg4wZQz/PDBHTEdSVlgx8P4eQaWo0Am5uwFc+uSKmdNGcX39SM4yJR4YVr5X+zdAwbg1ceNHF+Ncv/wPKZVaYnipSVmzMKk/Vj6ucMqxGVP0w+7by2awqw/RLZfHMM8/gT//0b3H8ccfi7/7uswijOrdzQ6bBiirxpxWUO04SMSt6w9g9KLJYnCKVLZbfDEVDEET42TXX4bOf/T+4+JLz8MUv/gMaYQ1ZPXdZNjOutLtCaewkqlZ176sOaDQazNOscwuFAkWKRJKH115bjf/zhX/Gv/3b/+U9znXuPm8gl/PQ19fHsEWK5MCJmbQOMVrAbKPGcyXVzykfQwwMDDD/KRozRZbjHF3K5FwVq9e9gEcfuxNPP/0KNm7w0eA9wMvC8q6RENKyruszDFcF7/g1iK8/4/RCXr8Ii59bjoMO3p/p1DG28szYiWOoqEQUwxmKepfepOzILRZDzJ7TjlNPPg0HH/w6dHRMjkW/l0d/lc+yiGUqq+ccnzkZH5WBKkrFNh6ecbl4lL6GHnc01gIMI5G/6OnF+JM/+Uucd97Z+PSn/3jomO74yjOZXi5GB9VdUZTH29/+Qdxzz91cYl7xvtD1NYyRxsTxFpg4NvZFTByPJapWZb7PuoJUq1WK3kTkOkGzuTiOeH08L0I9qDJMhHy+gFqt5vb1PLVoJnWBsSUScRSdyu9sTqI0bj32/CxyfLHo7+vBylWv4OfXX4knn34K+88LceTRh2LypE7mc47XJQ/fi69TI2mpV26nta7zu2o+vhe0Pr0aW/XTk6XYDsKA8WeRzxVRqQ5wS4YCmcIzuZ76O3gcegb9tK3GTXOtwnxugM8mJxJ5QD2dMhHv6zqwfNlK/OaBZ1GvteGkk07CuWdegEnT9uPbQxm5fJYvD70ouHNXK7LnXhDcM8eJ3DhunXMUaug0E8fGxMPE8RaYODb2RUwcjyW659VSLCsWi8xrihiuq1SqKBb0M3+zOP4nXpcQQUMC2kO9Hgtp7SNXrXfGNmD1mPXyfJmou/wLWJcWqJcGKt3o7VmD+x+8Czf/8iqccOLr8JYLTsKkyXlUK+tYr/fz5UUto7GwboQShLpDtpbfO3MvSKjnUBmouF8NXLy8/lkK5aCu58nuwrLl97GgVehXuvRMohuqbJUQBUV0tu2HV5dvwjXX3IXe7l6cec7bcerp5/K8c8jypUFlU91JkNHLgUStzlvPGj3TUnHMGoAPJhPHxkTDnnyGYRgjTNy/lJLFV9/TuL+xWoI7Ozrc+uEwCEpORMdiOn6x9ilg4hZoY9uEFGcZCt0gCCkTs8y/BgXwBvzoR1dg4cJb8HsfORPvfOdxKJXWI2y8hlKhgoIfIBvVqAMH4EUV5DMBCl4DeS/YilV32HKZGsJaDzrKPopZxUnhTtO6XKbO5Vpizf7WcbWyHMPnvJAG5Hy6PJecz2NkByh0N6FQ7MVA9WVMmdaP3/+DN+H1b9wPt/zqSvzox9/hy8AAX8B6Kdo95PK5wV83BoWxM8OY2Jg4NgzDGAXSX4zkSuDql6Mlzy9x6xyuRTgOI/3b19ePhx58CP39A27Z9+MWR2M7ZCLUgiqCRg1tbSUn+jZ1r8dVP7iCQnAD3vue1+OwwzpQqyxFIdeNemUNGrVN8ClgM1DLaz+FrGgAAIYESURBVIVRxK6XqTLf69ux2nb92WyAclFJoxDlsTwey0OVojxCVmEoirewwTjSeLZ+nCwFcR5tyEczkA+n0Z3C5U4K/CLFs88XBB4v08vys5YvWatxxuvn44MfPAuPPfYwRfIvUCjEXU8GBiqoVCuuzTc2ljf7pdIwTBwPZzQeRpvFOSx+e/gZxr6HBLG6RFQqEl1w/pUrV+IHP7iKokQjWMStysJ1m2A18Oyzz+K222/HunXruTbj4lDrsbF91J0iV8igp3cj83wTHrr/Drz26ku46MLjMWVSgChch65OdRQawOSONhSLHt9N6shkQ/jqp0zX8+M+vBGFKmhyh/w1urHF67bj96sIKYgr9R6U27PIFSMeq45AItyrcjvjpIFCd9CfxJHGs93jREyvU7QsP+rd4Ho4RBTGEXJ+BoVsxJeBBoW0ymA3Zs7w8fu/fw5uuvFGPP7YfcjqY0Evw3yZrAKrIpcI460/k+xxZUwUTBxvAz2cdsfSn1RF7B/K7jRMWhG5L5uTdWZmo2ZNZU+WIm/zOvUz9JJls503IVeiWH075T/nnHOwZs06PPnkkxQsahWOxYa2qU/nAw88hIMWHIyZM2e6/A8bFG0Z3/nTeM22NP6hRajVK8gXgDVrX8ENN16FSy45BVOn5J1A9DMNhPU6cpk8GtSWrteLquPUKCYHjf8HG/Wb/O4dZkf9JKRazRdzqIcUxTR4FMiua7AuOhNAixI39sdxpPFs+zjcx++nqF8PP9vN50sPrZ9it8oyoxOsMUvUxYQnR9GsriY5vgTsP7cDF1xwOG666Xps2LgOpVLJfSwaZ6P6Rcsdytu47MX9jlOat4+56eQNYwwYKvGGYRjGiKAHufoNy9WvQxLIEiIXvOU83HjjTW6oMYkOiWOFW7duHZ566kmcffZZFDj6wIiCZLAvqLF9+CKSzyFo9OOOO6/H6143CwcfMoN5rHwOmJuSVVmFYtg8rYQI5VE2DY82esYTo9Vi8wK6EtlqbHFqPzF9IKdzzlHgalzj9TjllNchCnuwaBFf0rK++/BTe8li6HNvbsmiYUxATBwbhmGMMBLEmsgjn5cQY0Xree6DvDPOOMONXvDYY4+79RLNGkrsO9/5Lt5y/gWYN2++21cjKKSjGkinGNvGDUdWDzFQ7cHTzzyL8y44BfliD8ViTzLakIRijnoviygTT9IBZxSPO+SXUWTulKX77Yql+zfHtbk/ExbolmhlWpHG5VAuy5xMwtgJaJrXoDBWH+R1KJcbOOnkk/H8869g9erVzCfuIyisNWoKd44X3V/DmJiYODYMwxgF0p+CJZKFBHK5XMZRRx3lxHF3dzeFsY+nnnwKy5cvx5vPOw/9/f1OPGsffZDnMHG8HTKIQo3ZW8ZLLy1Be2c3uiY3qA0pBjP93KxWVUk9hnNikdvUmuxalHfQXPhGYjvqT02TbaTu1vxJWHBfZ6lfbiu/RKxEcAcFb2rtLCpqES/Q+ALAU41N5x/Az2loQM0eOID992vHqpXPu18whr57oTvY59gKnTGxMXFsGIYxwkgU6zsD/WQtUSxXs+Np/cknn4IVK1Zg/fr1qNcauO7n1+OSSy5Be1t70pIcj3Gsn7xj4WJteNuECjAMfeZvO15+eTmmTJ0CL6fuFH3MQ03DLTHMcJomz4sQ+bom6o/La8TVsbsdP4/h81LEtrP+HTGFpw0ec3um0+GOOjfXpYLmyZ8sb+EPkPFqyBc0Vn+Azs42bNjQg1otcGUuhvENCmTDmNiYODYMw9gVJFyjkFqC4oJurC3Uj5hijd4gDBFwW7GtlPgjNBho2oxpOO200/DDH16JRU89xf3rOPqog9EIK8hl866LgO9rhrwq46lTrKRxm7U0iUW+gGza2M/LMBmTJs1ENqcRQSiM9SEZX0jczHcUxBkq0Qb/hbp2muAiyjJ7s3RzzlI/GpSfjQz9Htdl3CWQZpQwddqRl1wDpmn65kwyjbPCxR/AxcJb+8oUT4YJzfCYvlquQ30gKJdClWUlw3S4+DUbXcQ9taz4XBqYJprSk3FdPOhnGjVCRXzqPE+1jnsVnlva/5jn6splgfnBOF35YbggdMME+rkMJk3p5AtYyXX1UfljDrnj6/wR8hhOGugIKslCbxeyZtJtKSYnjH0HK82GYRi7iGSwfuKmJKaWYHVKU9ucm83Lo49aY6Dah2zBRy2oc1mh6zj/grdg9aoN2LSpGwceuD/mzJkCz+N2RlGtavroMjJZipVswKNIpKiqNmttvA5ePE3zQC9lXkCRqlZ3dS+I8sxT9TXmlaJIrIUaD5n5mXHy1YnHjOuD7CGoRxTUjM+JUG2j/JOo1NAWVMRRVHMzSErXyjQknyYdSUcVcbOlEu0zqCMZMJvzGbeEulZQVTMdmoVVs6JmvAxq3KY9A/3KID1M8axDqvA0KLwDCtYok6frs+zQ79FP+R0EmtZZU4trNj6eH+OLuCNlNa2AoL+MbNTuRLEEei7bhlyhC3Xmgc7H0weKDJ/TMHYaF1mHVF9l129ZJ9l0Hlp2IdIVTbhVbm95DGOfwEqzYRjGCJDKBrUTxoJWIiyxRDi5YbGyOWRyZcw+4HVAsQuTZu6PIJNDneI5TyGVpQQK6jW3j/rIOl3CdWbbsjh/00dafC0ogCla1XUgm6NIljqltbd3qO0YDb6MhN4AgqgfXi5y4yQXSsx9Lx6jWN+zNShi81yn4di8bAHZvPr0xj1+GxSWpbaSO2TQaHBbgcKYwpTh1HbMNxte0xCFYhsFcATfL/MFiZI0285liuZ8mxPj+UKJyfKlhVFtVLlb/Lrls5xona5/lcl59LFnsGrNWvdrxLoN/bjl1sfQ36/h14ro7VNrONOXa3MvBPog76qrHmEa2phSnrtfQKWq7hOUzmlBJa5FO7EY5R/TPliGU4ZLhaZIDGMfZHiJNwzDMHYQ1yKZyIsU/XzuOaPEoatlF4KuWipBMfPU4mVYuGQFTjj7Ytxy/1PYVM9xfQGZMECRQq1IfeNaJtXKKZGSimyz1hbLVZdXbrxetdp7FJlcrc4OWQlWCtF6LUJvbxWNQGMQ5/mS4iPyMqg3AvRXq6jUNVEHBWupnWK57IRuVcJWgrZWRF9fBrWGTxHdSQHtcZ+Ki0NHbkRZBKFaqjsofjW+MY+dzaKbx+ucNJviNMt0TKbQzVHwtjN8gaKc4trPqWEXuXKe6/ThnIR1Bn0DNe6fZzrb6A/w5NN9eG5xN9NUZjoiLFnyKro3aXi2ThRyM3hOnSwvZdR5bA0ld8+9G3jubRTxEs0l7qdWZoljtZbH5ZVF0jCMFpg4NgzD2BU2azyLF9JWONe5wglkrqM5l/9CCq813VV87+qf47BTz8HrL34vXlhbwx0PPUPxUkK1vx9RvZf71Cn3ImQpjNwIC/Sbbd00KYYbhsyJZf53AtBzY0YXCm3o3VShfs6hs30aNqzvx/MvrMKrKzdRyGp2uEnIF6ZSAHfS34lyaS4qAyX09GqsaYrZaht8fxZyudl8YelEqTQDm3rqFK0dyPjq7iAx3UER7VOUdzA9k5wbaRrnPF94/AIef3wxt+cpsCmGwWOiAy+8uBJLl63Exp4eiuIIA5U6svki/UyGn0WxbRKP14Z6kEO5owuHvG4+HnzgBdQGJrEclWlZlMqzWNamY9PGApYvG8ArSzdSfOd5Ll3u/ONwBQp6lstkUqpBU0YZhtESE8eGYRi7hMRF2sc4Rmtii/shxyG0zL+uP3IOC596AS9TmM0/6lT4U+dj1qEn40c33oPeWsZNFJLNNNCoawgyoO4aQxW7WkbNtm6u7ZaiL27HV94pz2uVBrJeEbksRWtYQlDL0fLI+hSYYRlBQ/2N83jp5TX4xfUP4sYbH8Zjjz9LQZpHe/tcCuN27jsFdYra7o0ZPPLIi/jRj+7E8hUbKYBLDOchl2+nq1bhTvRSUP/qVw9hzZo6xfRk1OoF1Otl/OIXj2HpS5rBbjaqlUm46srf4AfffwA/+OHduPnmpUxxiYK2SLFexMBAhmK9C2vX9uD++xbi2WdWoKNjDg4//BD09hTw4ksbmP4paFA01xn/pk1ZXPnD3+Dqq+/A975/K+679xUETI/yIIpyruWZiXUt6VqX/DEMYxuYODYMw9hVpDOaBEfccqyRArhAUau1+tgr1Ede8NHdW8P1N9+D6QceidmHHYtevwNHvemteHVNBXdSCPVraC0JPS9EsVSkuNL4FhNXzKQ/+wdBQOHZOzhmtIa4S7fFUCDrAzKiD+MkjDOZLLomT8PGDQO4/ue34eHfLIaXacfcOYfj0IOPxexZB2HZsvVYv76G9rbZaCtPx/p1/fjuFQ/hS1+8Etf97C689MJ6lNv2w+pVNYrPh/GrW55iOrK47rqnsXJlD/L5LgRhjscqo6cnxL//+88ojp/m/tdh5ao+pqaDcc/CrBkL8NRTaxE2JmHN6hBLX+7DB9//IbzvPR/AG994EuOZjEYjx3MqolScwbgy+OY3b8TPf/4EvvrVW7HslW6XxuOOPwC3/uo+1KtlRBT3Wa+L5/USfL8N733PR/C7H/xdnHTykVzOM8+YF4koboRcYDFKW41T4nzcLCP3GnSdDWO0MHHcCleJJH7ifoBKf4raSXP7Dy67hcHloW3ON7jezGw0bFukYfQgTa15X7PWxj+u28NgX07mpSpVDamr8WMl0jQrm/qjhpkiHnniOSxevh5Hnnom+lBALdcGlKbgjRe9C9+68mdY3T2AgHtl8zn091eQ8zTTGeOIeBxn2/PL3R2/3J31y90dv9wt/fF5K4t9vPrqSvzwh1fhqqt+jJdeWopqVeMXq9VXYRlUUinSi4RGgogFn+dlEVQbKOTLGBjw8PySDVixfAMa9TzqtRxFc4RfXPcorv/FkyiXZuGQQ4/D8cefjVNOej2efqpG8dtgHJ34/ndvx403PoK+vgAf/N3fxcknn4qgUcf67jrdPF98iqjWsli1qopFzyjMB3HQQVPx3HMvUJQCm3r7MXf+4Xh84Rqs39iDjK/W3DLWru/Guo0bsHzFq1i9eiPLTBuCur7Ay6K3G3jsN3W8770XMU2zsejpJdT/Rbzh9W+ifz1F+oN45ul1Tsx3tHVSLNfRvbEXq1auwdKly9HdvRHFcoB60M+80KgYGvUkfnmIi63+uEVHc5neusX77nj40THDGAtMHBuGYewOzSIjac2SKFZ/1wbFG7wCBW8Wm/oDfPfq63DQUadg8ux5yJbLqNQDRBRL8w4+Etm2Wbj1Hoqwhj76ipDzs/Fkbu4fxfcEMgleCV8JYOXjzJmzcdaZ56BaqeG73/0+vv/9H2L5shVJmByyvj6EU1i+2FFAaTQ1XQoNk1YoFnHSSSdi9ao1+Pev/Bz/9uWb8KUv3oB//ecb8PijS/HIQy/hi1+4Dld863rcevM9qFUizJiew7KXq/jG12/Hj6++FT/76X2ulfnrX7sZP/nxTThg3jwcdMCBiBo8XpRzAvzXv3oQM6YB3//er7D4uTUo8MXne1fcyeP8GjffeDs2bXwNP/jej/Df37oBTy58Ff/+bz9mvL/Ac8+8xPNighmPG3eZLwa33foADpjfhat++BDDrsV+c2Zg6UvP48of3kwRvg7Ll7+CQw45GD/4wY249trf4I47nsV/feNK3H7bLXjpxedRqfYwA7JMV8Q86IXvZxCGelkzDGNHyPANO67NDYcGT9fPcxdddDH+9ctfQLmcZaWrJ5QqL/Uu5PuEGwczfmS5n3a2UeOk2aspYZ9++ml8+tOfxQnHH4e///vPIR4zM+RbvcbSVCuFQioymY6TROx+ozWM3YFlTKXVFSU+gGlBEOGan16Lz372/+DSy87HF7/4BYSRpi1WmWaZ162gcmhsFd3/Ee9PT+PlUtQo6+IWOprvo7/WQC2TZ5a345e/uhvf/NEteNcf/T0a7VOwieHDnMaiZS73dGP9otvx0qO/wD/8+e9iSpuG+NKICZ0IKgO8Dopz4qAGQo3WoZbC+FcM1aVan8Gy5ctw669+hQceeACnnHIqzn/L+Zgxa6YLd9011zGnHsJFl8xivobIZTw06g2UylMpKtdj+Ws9KBRmoK+vRkGdQWenhl/z0LOpgbZSAZOndKG9o4zXVqxBT0+NYUusu2uoUwT39W1CsVBAW0cDM2a2wcvGdfdAXxWPPvoUbrnlKXzy4x/E2rUVZHPAvAPKTOsa1Gt5FHN5N2JGjeVh08YKcnkf+WLI50uAyVPbuAwE9X6UKOTvv+9xXH/to/j4Jz6C/gHeqdkAs/Zrx8aN3Vi7ZoDn2YZp09tdnqxbt4n5onOMUC7l4ec2Mn0eZs2eiYUPv4ZDD+uCX1jr4t/U0+OGjQsbRTRqB+Fzf/1LfOQjH8Whhx/KPFDdwECRxjhWf2X1ea+xdOdcXRGFPp56ahE+9ak/x/nnn43//b8/xe3JGNxJd5bRRp1lojCPy3/7/bjnnrvdOveLDdNoGCONPfkMwzBGBCljvdBm3M/pGoYt42Xh59uwan0Pvnf1tTjz/EvhlSdhIJSoDijQ9OEeUCi144DDTkItNxnX3XoPkGtzLaYD3T3uW7O4y8HEMTVAhHzhkGl243qNGaptXJ7UOQUf+tBH8S///GXUqgG+/OWv4nvfvRJLFi9Ff19AARpR9HZSEFMEhlUUyz76Btajc1Iex594AA46pAPHHj8ZRx7bjv3n5XHAgQUccxzz/2CPwrKbl2815i/IcnseBx48gP3mNximgZNPncl9s5g5y6fYrPL6VCjOKhSNi3H3Xc/hD/7gLeiaEuLwIzqx4CCJ6l4ceGAJ8w+IsOCQPPafn8GBjPekUyfj8KMKjDvLeDuRzfexHPRhymQfTzy2CL+88UX8/kcvx6xZecybl8Wc2XmWqB7M3i+Lw44oU3SHmDotgxkz8pg/v4DXHVbAQYfmcdDBbZi7XxemTilgw5plOPLIGRTzDeZZDZW+CtpZxtKuCbFJXKq8GoYxHGs5Hoa1HBv7JtZyPBro/h9qOc7Al7DjOs18NlCn+C13oLvq4cprbsYttz+Id330zzHQcSAqzON6puZGKGhUfORDDx1RHx69+2o8eMM3cP4bjkEx8OFRYNcopLdVx+yLaHxi1Z0Sb6oXh55SzGO+UGjWumq1gWKxiBdefAH3P/gQDj7oYOw/ZzbOf+skXHBhF4JqH4qsqktFTcbhoU6VrY4FYUPCVXHXeKDIvcjkcnHrY9bPuklDCoUc+vp6KKzzPHaIRqAfAnIU4zVoxjtdY9Xp1WoVA/0DvN4eJk+agkq17hKrf+rn69LO+N2MfTwH+T2WDU0gEgRqvea96IpMA2FQ5Xbel2ppLnS4sNm8h0akGe2q8HINvnAF8DPq4wzkcyW+NFRRavOZLt6vmm4avH/Voq07N9RYzD3IFvoYjuetBOT0spG2HN+Mj3zk93HIYYdYy7FhDMPE8TBMHBv7JiaOR4NYBrFeUJbxfvXcPct6gQ7vaFD+ou6Vce9vnsRPrr0ZZ1/2IdSnHIYgn0M1pKjyC4hqWZS4T6nRjcWP3ohlT/4KH37HWyiOGVWdgkj1wXZa+HRdFUSXVyHTZZFUQY69paFQXSp8X4JSiZeQVYsy85mVpD68kziWgJbQvPe++/GTn16D0057PaZPmYzXHbERl/7WTJbfCgqsu+u1PviFsounFgTI5TsR1CvMJ4rRIHRdDRp8CVF8yp9sjteNolctz5WBAQrleKY7tWirX7Pq8njUDCdBuQ+vN9OWdgMJgli063h1Cl6l0d1PKh/cXx/zqQ+w+klXK/H+UK90vWSxIA0M1FF0o1cwrkYFnZNLWLNmOTq7OhlfDR4FtVrU4aaO5v5eneLdQ3u5Cz093S59mvgkCtXnvYfiOURfT50iOYeIz5oGBWajHovjD3+Y4vh1FMdMq4Z9Q1SgSRwP0HSOJo6NiYmJ42GYODb2Tfj4Y3GKi+NwcfwFXHKpiePdQvUGcXes8lgiiW5dH9bl21GhuPra1/8L/fmZOOL892N9QBFS7EBDH5w1ArQ1euFteBYP33olfueSM3HSEYegXqGQy1E8Uww6/TSMWJTxMlHV1Wo1tLe3u5ZMicp6nbJcrZIM89JLL2HFihVYsGABZs+exXWeC6N98vl8EnZ8XedQ3U5YYONz0FBuDZdm1aeqK7u7uynWnsIvfnG9G/Lud97zXhy04FBce8118HOP4vK3z0FEAZyjcMxQxIWKhGVaVylCgaWa6yO9uug+YCnPFJDLMi8aNcavfKcIZ9iALyfMLWRyOVQqNT4PKJir/S595VKbW6c8LhSKLj/r9RDtbV0UuFXks76r43P5CNVaN0VtG49ZoGClWM/qwpUwsGkyXnp5JQ47UpORqG+5xC9le1XHaseGdd2oMc6urqkufd2bNuC1lctwBMtHSPH84vMr0DWpE1Mn78d9NVNfP18GcnhxyVocfPgU+J5anSmIea7U5cwHnT/D1Q/AZ//qJorjj+HgQw/mOo3zoY15nrXqBwlj1gE6dxPHxgTEnnyGYRi7S7N4df4IWYq5AkWVR5GRo73vXZdj8dOPYP2ql1D0Q+Q1xXGjQRFHAdPow0vPPYb9pndgwX6zEFKw5nJZ1xVga0iMSSgWCnkXVn5pQIndrq4ut/zMM4tw55134MYbb8DGjRsYTmPyat+q20etmnHLpkTO+DGJYNf9oFGneI1bWvW2pq4I1177M3zzm/+Fu+66Exdd9Db8+Z//GRYcdKA7L+0XG4NrBXM/7sOsR13cSiuLW4k1rnCebpHLvuum4aslX1dMLdN8KfH40uBeKnn98gUfPX09yObyrrW5xnTpWivMAEVyNldEoVjmegrRLAWpus3kQ1TqvRSlGk5NZ8BdJPK5Y+/AANauq+Bn1z7C9T7jYTrAeGv6GLMTfX0h1q2r4Zvf+DV3nIxG0IHFz72GX//qCeYDRT3F8S9vvQcvvrSM6fVQdWNi82WM6fj6f9ym3EKdorjaqCDLdzEJ5DhPZER5JNJVm10Dt8UwJiwmjg3DMEYY6Q6NcyyhGtTrTrBNmzYNl1z4Vvzmnjvg1XqRqfQjT+HSnqtTLDfw/LNP4+w3vREdHWW0t5VQGehHNrv1KlotxT09Pc7EFVdcQdEUuNbgDRs2UFx67uf9NWvW4LzzzsOcOXNcOKVLrc1xC7NaCMcjErBxi6RmDdQ53nbbbfjEJ/7CtYKfeuqp+NSnPoXzzz/f5YNeENQyKlHsdtMFkMJzwlh9cbUxS1cft+WcGA4zWVQDIAizbvpnDbnnugxn8pKYbjng/rkCBS/zKfQCFMttzON4so4oopDO+NjUM4AnnngWK15dT8GqXwuqPGwFQWYT5WkfD8/9eD19vphoMpgwyjGcj8mTZ1A853kMSdrICd5cdjK363ymM52Tec2OoGhvx4MPLmHau5g4TXGd57Xr5LFLlOwU8jwPKnMUO/QLBUW4ekXwZUJ9jzVKRT4fMU51k4i7fcTEiljl0jCMLTFxbBiGsdvEokNSwwlj100qgyKFnURee3sbQgqXU088GsWwH6tffAKT/QF0ZioohxXc+vMf4azTT8JRrzsIee63qWcTha1andMYt+S1117DCy+8gGeffdYJ3TPPPNMdS4JHglL+Rx55xLnqUtHR0YEB14e2gHK57ISxxJKE2Xgjn8+5cxJKp2bHW7t2LT75yd/Hxz72MZx11llue39/P6q1qnspEINij6LVS7oPxSZRTAslbLMoMH+CqErRmkOhnMfqdRvQXwkpsDuQy01lnO24//7n8aOr7sWSxT0UxyWuU0t2G9at9bFiWYiwMRVROAXLlw3g179ehH/80p349a+epE7toujltaNAVTcGTfixYWMNL764Dvfftwg/vuoBlo0Z2NjtuclJ6nUN89bFdHVg0aJV+MmP78B/fP0q3HnXUzyRdlx80Ztx3c9/4z4kDIISensi7lNGiCnorxUwUC1jzboATy96FbVaDgOVDPqphdUVQgmoVaooFYrcX78sqOU8bUGPs2oLfbz1ImcYEwYTx4ZhGLtKKiT027vUhgQHTX1lxcBAP8VRDps2baTgy2LGlC6c/8aT8cLCB5DpW42p+QCvLX4cjU2rcfFbzqZ4q2Ogvxc5j9LOSz9Ia821116L733ve1i9erVrLd64caP7rsHNzMe0PPHEE5g/fz4OP/xw3H777S6cRLO6Yzz44IO44447XOtyKkLHE3GLtrpHSAjWMXv2bLz97W/HQQcd5LYr3RL56iYSdxWJ+18L+bU9/lhNXUe0PRbI6kYRNfKoDuQoFicxL9qxbFkfrv3ZI7jyygewdOl6VCoe4+zEsceejIsvvQQHHnQwFj6xGEtf6cZrK+r4l3+6Ft/977vw/HMDqNcm4zcPLcPKFVkce9SxWLiwHw898DKq1SxFcgcCCt9XlnbjuWfWYN7c43HyyW/Db132Xl7bOfjNg2spdvWhYIbHVBeaAr7/w1vRXwXaurowENQQ5fpw9IkLEHp9ePypB+HlIxTaCxTfZQRhGwrFuVi2PMR3rrgZV111O/7zG79gOQgpkLMUxNOR9bvQVpqKgb6Qy53wBoVxqoz1J/EPIlmQSoPh2wxjYmDi2DAMY7doFhKxsNDIBRJ2EnAabqtAYdxo1FCgDj352MPQ5lXw0pMUyL2rsPiRu3H5W8+mdKMYCmsoFQtQf2EnDrfR5/iII45w3SUWLVqEr3zlK66VWC3DEj4SyFOmTMHdd9+N9evX4/nnn3diWNu17eGHH8b999/vWpVl441Y7EauBVl9oxuNgOu0Xh8362PCKreHbr26raRC2u1LYaypo3Ud9EGp54Qxl123Co3iIH87fG8GRepMitkV2LDeR0fHbPz0p/e7iTdqQQY3/fJ2vPDiK+ilWn1u8TIsfXkjbr/tCbzukNdj5vSj8cD9z2P1qiyeeTrCe37nE7jrjmV489kX8TosodjNMV1lvnhM4n4bcP99LyMMOnm8qRSsM1gm2nHbrU/jtdc2MS1qOe5Eb0/A86njkkvPwWWXn4cL3nY8vFwNQdSDc88/EXfe+wxeWf4K06dpq7M843asWRPixhsX8lofgPe898O8lmU8+eTLPAbLYJ1lj+nIoIS818mypHzwmYfN5TURv65jNdfLHaTZbxgTCxPHrWAdm7ZCqDYefMveCeIhh6LBVhn543jSiA1jvDFUzlOhYWwf5Vo8qsdQ/um+1/2eoYDLU6ioFtBnWKD4nVzK4CO/czkev/dXuP9XP8O8qSUcf9gByHkNSjh9KRaPoavPt9SPdmvVz8knn4w3v/nNOOecczB58mTsv//+OPTQQ92xdf0kitVSLJF8yimn4KijjnItzBLD6pYwderUwXSON9x5S6tpxIRMCD/LNLqRfSK3zc+qVZh1KsNo6DUJ5kYQ0FUrsV5O1Pe66EaTyBVLFKZJaz7F3zXXXIe77rkb+aKHvkoPTjn9aNQZvljOYMrU2fjxj++n8F2OH131GH79q1fwmwfWY9GT6zF//4NwzNEn4bFHnsK6tT1YunQtnnxiCV84erDkuVewqXsDlix5Hv39vahW9BGhprUu4eAFR2DhY334xfW34tnnluGZZ5bi+9/7IXp6n8ecuR0U4qvx8COPY/VrIdoKc/Hlf/k5/t///QG+8HdX4MF7n8dLL/TAj2bjofsfx40/fwpPPZbBo79ZiWcXrUT3xgqvfSeOOPJYPPb4QmzcsB7Tp0/jCwVfB/hSofG29SwK3NB46uusly2WR0/dSxjGDfvWfP3lb7YtGY/lxTBGGhPHw2i+8eV1D7hdtDiO5viG1pmZjbVtjy3CNi2b7YA1/0vWxdkoVy/H9EcBvLCKg+fNxJtOORb3/PoGnPP6EzBjUpHCOG4dddCj15PBuFuYkNiV6FWXgwsuuMCNUrF48WL8+te/dq3D6od86aWX4rLLLsMxxxxDsVhx25csWYITTjjBxdMI0r6o48dE4jhabYuXY1etyHmN4+uGvYtHutDIFm1tZVT6+pxI1EtB3GhRwPNLurH42eUUl1VUBxrYb/Z0vLL0Jbz1rWegUPBwxx1PMj+ZP9zvtjue4Po3YsFBc3H00Qfi/AtOwYMPPYDly9fRXYjJU6Zh0TOLcPhRh+DV15bwZeVUCtR25muVIr2K6TM68ak/eTNeeulFXP3j6/DTa65HpdaNj/3hO7Hg4A6cd8GxePyJR/Gza2+m6M9T7E7B/Hmz8Y53XogzzjgZq1euwG8eeg6nn3oKPvnH78dHP/pm3Hnnbbjxpl+gWGxz4W+55RYsfeV5vONd5+HwI+fgvPNno7d/Nd8F+vmUr1AEa3zjWiyGmV/xrwWh65JSrw+//up6MdT9YjwZby3DGBNsnOMt0M9zDVx40cX4t698AeW2PN+yNUQO37iZVTs6zrF7W3ctGRpHM3AtNPpw5lOf+mucyIeSjXNsjC0sY65syx//zDx8nOMvfemLCDX2q6+v2+sMo9Ju78/bxN3+cR4N3aVq/U28zSgAH/AaZ7ZSCbBx/SbWA/+Af/6X/4tC0eftruk+ZBTSSf2iekC1TqsIJRYkctRNQvWNTB+oqW+xTF06jj76aBcmrYc2bdrkTB+4qS+y1mvIMumOvRVlq0zdJ374vZ+i2PY0heU8BHwRaCvk0bupG+2dU5Kh1zw8+dQruP4X92PZCu4VRpgyRR8oZvkScT4OPewAxlR310NdY157bTWeWbSY/hoOOmQaHrjnBaxYHqGnux/ved95OGDBVJSKJdQqGpO5iHpjE7xcN6/lRh4rQj5boPiMUMi309VzoeD6/WoiEF45LmfcuMlFvuQ0gjw0PbZGmFAaNIFI0cUd8hiTeG0HeAzuG+qjyhxqmiREI21ki1wP1Ko8Np9VvpdHUK3zxanO61vh9e93H4jWePxiuZPH5gtRbR7+8k+vw8c//r8xdcZ0vljoNwsWAk0EAnXF0AeO6q6irinqijI0zvFb3nIOPv3pT/L8xn6c4zDM4fLLbZxjY/SxJ59hGMbukKozGZHIGJIL9GmCEJrWRo2A3gbKJSogvhyjHqKcp7CVQGUEkRPPHkPGFgvj1ujDOr10q+tE2iKoYc1mzpyJs8462/VJjmdqk4iIf0LXNn2kp9ZmrdOkIfsKekmI23riVnqNjazuFRKSmlkuUqu938Cxxx2K//Xxt+Pzn383/vwvLsWHPnwu/ujjv4XDDlM3E4najejvXcX87UZXRxEnnXAMzjjtOOSyESZPqTFvZ+OPP3keDju8ncfR8G2rkPHXIFeg5dWVRcLUo+D1Ua30UHj76Otbw7RsYH6vRF//Mu7XTeth2qpob1Pq+3nsfi73I+v3YqCy0m0L6hv4UrOR4lZjVFcYlyZu6UO19irTswF5n8env15dwWvdx337KLLXu7jqjV6+EAywiNWQzWcp+AuMh2VQ727qm6JOPHw5yLFcDLEXvyUZxghi4tgwDGOXkZhILSVeHtLLavNy7V5OkGqdfvLvbC+jkM+4Psn6aM/FEDGUwmQkjFvFPYTErgSyPrJT67CEoUZ2kEDu6+t1YTQ+cCqQJR6bW5rlb2trY+yt49+zpLm3MwaKxwzzZBPPMZ44RL/4ZXPqj8wXCWrAoFGjON2E9s4cOjsbOODALtokTJ3qoUaRC28jBW4v2rs0uUoFXV0ZCmIKywJw4Lx5OP+8M/GmM4/GlGnMtUwfOjqyFK11eNleXl0K2UY3Bhi/z39hnS8rpS70bWK4cgnFQobHzKKrU7Px8Xq4yV8CCtsaH8Qato/pqw3wOlIEl9QSLSFcR9ekHIPpnHrQ37+eV6vO7TmEQR/LTg3lQkQhzpersOL2LzJyn9e3XOygWC4wniJFNmOPNNNdnE8qM4pfswHqA8bN2Xa5M4yJgIljwzCMXWZzcdbM5mtcBywnjvnHidNNmrxDP7EHAUUy1ZcTI6qSd6xaVlwyxSVhLNHrxDf9ilP9kdWyLBGtvsbqZqGWYq1XmDTc+KQ5X7dvEn0Swe3tWQxU1LKqsaY1EQZFJLe7/sgMo5/h290LgVpM+YJAsaxuc/39GylCi1zbz0sygHqwAY1oI+qNdXTXM27mE+Mr5PKoVnqRz6mvNg/CF4y4fZ8vHJmQgjTPMEUKYw+ZKE/hG6GUL/M4vKoZH7VKjaKYLyn6xaDQhnpF++WR9XhshlE3jDAI3cyKYaDxmyV4+7l/BaUir6U+sFP50LnpBarBFy5ex4zOjetKBX18qPT4qGhUi4ChM7E4jiKVBU2WkkNvbz/zRB+Ms8y5LEyFsH7zUI7Jmhn6LWQo3w1j38XE8R5AH4/Ej8oUPeQSr2EYexURRZG7n13fy7j7hMRXfEvHgldyJTYuUcyo3ykoUqp1ilr61anCbSQa4SKNJxUrrUytovp1PB7ZgXE6V/VLA7m8xsaIt1erA1zWdMM1txxGgdsmMRn7Fd94Q/m2Y6Z/6jcdhhXM2X8Kli5bjXp9Mrr7AL52IPQ0eTez2ysg08gjrFBIM6MyXoCML4unhtaLgk+hSglM0VhG1i8mLx8UkdkGIoZ315qHVe5rxrtAdbnC+BoFRFdMfcd5EShi3ZByar3Wsrv26vpSpDevPh9cpjfrM1269PGU08jyOlLQqy9xxmvjsdu5fx75UhvFPsuUukB46ieu9PtuJjx4cfmLSwXToh47HoU7zQ3QwWus2fLgU5hH6kZTxNrVm9woJh3tmnVP3SpYMBRLpk6r0PSdjYifTfHzKjZ1xdgMtxgf3TD2FXTXGnuItOUnNcMw9jJifcaalAoh8etWTlfzzk5WsKp1Ft/r1Mdx1wZuj8WTwqZDvsXmqoRt2PB6I15OhUyMa1XmP334lS6nKOzwOMYPStOOm4ZtU6vwAQvmoVTcD08+/RqmTJ1HUZyjqM0xiPI6RLGoD6xDVCv9zKjkBcZdOr01+NS0BbpUlxTRavlVq248RrICUvy5kTCYp1TIOp7WRxofmPtnMowjouv8jFkfUiu/dRAKWX1sNxQmueaMI85+dXWh49LC4ykNIc8pkilNErBKh46pj9D0Ua1+bdB4xzqGhrDjeTJdIZMZf+DtUeDHk6BoGDsN35bh+WkM5mcWvYKZ0/fDpK4piBo6OaaNf/n2wLRKINONCwj/a4uEr8uEJuJzGMLEsbHvMLx0G4ZhGMbeAzWbuhCEDQ9t5Uk48sjDcdcdj6Je12Qh6l7BB13WQy3oQ6W2EblSAD8nFarHX/oqsiOm8KNlrY63LZNYpoCWcKaIH1rPuCiQJYQ1akXYUH/rLF1NRqPlDvRuylAcL8MRR2gkE3Wt0PHV+izxTy/jiMU7F4brYcOYIOgOMAzDMIy9lnxOLcdxi+s5Z78Nq1etw333PY5stgMBxaG6IBTLRerHAJVGD0J1qYgbRnfColG0VsfbnsWt17FfcejjusB1z1B3CrVGuxE8QvVSLtLtoBCeiVtufggdHdNxxOHHoFavu64fm7UMO4fr9P7gVhjGxMPEsWEYhrFXU6vXEDY0UkWEjrbp+OhH/wQ/uuo+PP30qxTO09DXn0G15iNf7KR4zELTUg81i8rdjp/iMza1ro4Dc2JWFnBZ4zfHfYxlUaZKqzPlFMzwUci3IceXBE1dfctNC/HQAyvxwQ/+T27Nu5FMQhenzo3RuVOOW5+TjhaGMSExcWwYhmHs1RSLBSeQC4WSm2xjwQGH4/xzz8dPf3QnFj62HDl/JqJoMoKgDf39OYRRnhrQo2XGiSWadAfNPbkHjYo29Ts9yz/qMpLJ00oIwxJ6e4A773gav7zxUXzwAx9GZ8dMlModqDLPGCNNQlt7pv8UmWFMXOwOGCXSoZJa2ZZsbb1hjCD6/TVBP8k2f5xl7DmshW730Xi96koQsh7Vh2nZbDvOOfcSnH7q+fj6V2/Ar25ZiHx2Lgb6OtHRdjAajU54fjv3zKMRami7AvcrUlOWWBvrQzeuo9vsd318d8Mvd+v+NGxsqV/u1v1lms6hI3E7nT8TdTEjuhA1JvGcZyGoduFnP70fN17/GN7ylt/GscefwTg0ekmIQrGIaq3C/VQO079peWz2G8bEwp6Oe4T43dwwxpK4j2Jc7lJ/vGxlcawZug6bXxdjF2DWuaHpsvHIHG4EBwreYn4q3vCGC/E3n/kC7rhtMf7+776LhY9vwhOPb8RAz3T0bJiGWmV/ZMIDKSYXIKjNo5DcH2gcSGHJdYk5f3gA44xtV/1yt+tvxBY1ua38IdMcBvvRZiOs063vT5uLkOcQBvOxbnUXXnnJx03XP4s/+eRXsWZlHn/0h3+BN73pAuZTiU/+LCr1OhqRxsNWFxOPotqnSRKkskB5aY02xsQkE1mT5TDUitvAhRddjH/7yhdQbtPQPxrWJuQmDZrDioOVSNony1XGW3muBUGAnMbCpKtWumeffRaf+tRf48QTTsDnP/+3CKM6H4ohMl6YDL2jvRSZTMdJIlZ/MMPYLZLxWUOVb42tmkeDxfonP74Gf/M3X8All56HL33piyyTmpI4cmVTZV0TFxgjSzqk18qVa/C5z34R//Ef/4+1SPyB2FB/0pRUqBjbQmMtxDBvKfDiLrSqn0NkWZ5XvvYKnlr0BB5/fKGbynnqlOkMm2MIlm9mvOcyX7U5d2xV3SZV8fiCzw5XXpTgoUSHmnWvVsFAX4iurlk4/phTcOxxJ6N90iQMBDVUqv1uSDu9UCh/CvksBTUrAxeFypsriIO/ZurZFXD70089x+fXX+C8887Gn/3ZnzCItnM/ldfBcuu+BBwV1IO60cji8svfj3vuudutcx8k8joaxkhj4ngLRk4c60thzU41JI6fw59QHJ9wwvEmjo0xxsTxeMHE8cgzJI4ljCWQ4zq0VquipFEqWKdXqxWW/xpWrX4V69euR19/BUE9dPWzumNoSDPtFUYafTqp20nqT2pjt3ZX/HLFtv3x0tAx41iG+11KWWDidfH6mLi8dHW248ADDsWUKTOQyxYplkPU+S/0NemLGm00CUnA81efY4/1AV8UlG+DcTFHXVLi7lcmjo2JhonjLWDVMwLiWD+TqtLdouX4kyaOjT2BiePxgonjkUeTOMf1ZlKDJlWmJr+oVAbcVMvaUKcYVPeLRqOGTDaDrK8JO3RfhK4xQ+Ry6s+7J9jJep7B3QQg6fMiPnNkvSyqtZoT/sWCPlTkvexl4Od9SlnmFG/per3PPZP8jMZA5t6sD1yLu0sDTTPkOa/EsWYPNHFsTCys5t1h9EDbeUuJ/UPLw9Hm4fuamY2k7Syt4jDbTdtmHTAsrNmOWfrPLSsjnaZz/lgMUw1KG1Mglspl5AtF5AolLucp5ygOJejo97MleDRNAb1nTLP47YxlEFKgptOXp38H6v0Uwhm0d+XQyNBfrCNb0tTR/a7lvNGoOrHsmnYixuReENL8i/MwNeVlKzYPP7ZmGGOBieMdRhXJzltKs78V2jx8XzOzkTUWtOThoodiira1Qmu3jMNst8zlamtahjfbvilPVZ7jeZNj47KEInWfc9XKKVejWjQaAfcDfE8foMW7uiAZ/VKilsg9ZZpWeidM6U33dWmPxaOmjI6YB7VajS8AcZgwiLjNd9t8uV6BMagrBSWAimSaZ1HcD1n549YzdvmHi9KW12GMzDDGAhPHe4Dmt+DUDGMs2FpZG14etxbOMMYjagXNUNTFbmxSd/qnVtLUuMFZ3HIqV/1tKR9pyaY9aDv7LxXVm6ddIlkiX12ieHZcRzeTj/0SuhLE6trj1iuM/MovdZFIxedQityS1QnGBMPEsWEYhrF3kyrDZtvn2d7JNm+PhW7zv6FtTd5k0TAmOiaODcMwDMMwDCPBxLFhGIZhGIZhJJg4NgzDMAzDMIwEE8fbJGMfIhj7HHF53rxcx1+Bpx/jGKNJq/rE6hjD2Hls9ApjtDBxvBX0rNIDy5m+ZE79O2g7i3ZpFY+Z2chZWtaG1rWiebvZ6Fqc4ZbnZuPP+Ccuns5JympCq/BjZ0rN5ukxjJHGxLFhGIZhGIZhJJg4NgzDMAzDMIwEE8eGYRiGYRiGkWDi2DAMwzAMwzASTBwbhrFH0Jfm+rhGo2SEoaauBRqNwLlRFLptcn3fQxDU3XIaLt1PaJ2W6/WaW+emCaarfbVN+zfHp23ZrI9areqWFT6Xy7plrU/jkWn/NL50v5goSWuaBh0rRLWqOHJMb8DjuUQObktJv7DXlMVhGLmwhmEYxvjBxPEooQefm6+fD0hZs39rZhgTi1h8VqsV5wZBLRGrsdCVWJUA1bp8PodKZcD5M5l4Pwlm7aNbRwJWIljrFU7rZG1tZXR3b3Tb+/v7nKt45S8WCy6Mjq8wWta+hULerVdcSuPAQL/bR+G0X61WccdSOAndWk1p0PF9riu4Y6T3c6PRYDwS+D5FswS4RH7Grevt7eF5ZWl5Z4ZhGMb4wMSxYRh7BDWg1usNCsMihWmZojJLAZmn4I3XtbV1uPU9Pb0uXHt7hwvj+zmKS7iwmYyPXE6itubCap3vx+u1T3d3D6ZOnU5hW8ekrqlufSFfcmGDQK25HoqFMrq6JqMRRC7uvr4BHifnwiLyeNwul5a2tk6Uim0ubTqewjUaoRPEvue7dEsAb9y40bkp8lMuu1ZlhZOgdvtQYOdyQI3re3p6ktCGYRjGnsbEsWEYe4gM8hS2Esl9ff2oUnDedNMtuJmmbRLF/f0DTtyqq0J/XyUW1DW1xsIJVTXuLl+2wonYarWGykANOYatUQz7FLgSuwFFcpaCWa22DzzwoBPKQT3k9qxz6/UAPZt6KVTzLj6J37ARYfHi59EII6xbtx4bN3QzTsZfqfPY6rqRRTvFskcB3aDIbjB8Pl9w56D1So/Eto6bYTWr7VqWmL7hhhtwzz33MG1ZDAyo24aHUqkUZ4lhGIaxxzFxbBjGHkJ9jiUiQyeSJV7vufteJ4TVNViicv26DfjB93/oxKtrKQbFKIWmWmIlkCWIH398ofNL6KoVOW45zjqxq/BqQZaoVpgnn1hEgfwQjxUwHqBYLLlW4rg1uM5wGYprdXHwsPK11Xj55Vfw61tvx91M19q16xnWd6JbQlciW8d++OFHsWHDBpdeHUNxKl0SwgqvY2m5s7PLtS6vXbsWjzzyCNPpM50ZFIpFd+6GYRjG+MDEsWEYewQJQ3UxUAuqpPCaNWu5HOLEE09yrbltbe349a9vw9lnn+OEbnd3txPIag3O5YoYGKg5IbzytTXo7enntgKFaRtefHFp3FJcDfCf//FfrsU5DDOu+4S6Uxy04BAnbj0K6P5+9Rf28U//9C9uXUBT/BvWd6OjY5LrgvHGN5yJo48+DlOnznCCWuEkwlesWEVbicMPPxKzZu2H115b5eKXoC4USi4eCegNG7px5ZVXY+HCJynC8zjkkEPc+atVXHmgD/LUN9kwDMMYH5g4HiX00G9lai0zjD2Bil9cBt1S4jYTf0Q2dmRc66oEolpR1bVg8uTJrs/uM88847pafOhDH3J9jQuFIn70ox9hoL+K7o2bmHwPSxYvcf5Sqc210KqLw0svvoRbfnkLHn74Ea7L4rLLfgv33HMfw2dc94jL/8dvO1GqltxUgKvbxW9f/g7cffc9uPVXtyYtxkuxlKaW646OTjy/5AWsWrna9RletmwFj/MyDj74EFxyyWVO8K5atQp33nknBf4a3HvvvS6f1V3i4Ycfxn333efsqquuci3EuVyOQj5LURyPwCH0MaBhGNsnrcIGqzLDGAVMHI8SQyLEMMY3EmgSqM0jrDg32T6apC+NajnVcSuVivM/9NBD+MEPvo///u//xk9+8hNceeUP8dxzz+GK734HX/vaV/HNb30T3/jGN3DnXXdg+vSpTG8GuXwWCxcudBr/l7+8GXffcxfuufcePProI/jKV76CK664At/69rfwX//1DbzyyisUtTkK3tdwyy234PY7bncC9oUXnscvrv8FHn3sUXR2duCmm27A97//PSxa9DQ2dm90adzYvcHF/1/f+E8K9qvx05/+1MWh/W+99VYK65ddOI1Icd111+E73/mOE88vvvgij7sUAwNqyQ7dy4C6iEgoW31hjDdYhAfrg7ROaB6JZU/gZShZ7FYxxgATx6NEqwpkD9YphuFE41C53POF0WNaNL6wHrjqTqHRG/QAnjFjOs4//zznSqB2dLS5ltVjjz0GM2dOxzHHHIVZs6bjbRdegKOPPgLHHncMpkydhI0b1+Ogg+dTbGbwjnf+NuPW8GkeTjjxOBx2+CGYPWcG5s6djbPOPhNz95/DZ2wD7R1leD4oVHMolfOMZzL3y6C9vYx58+fi9W84HWHUwKGvO5jHnoaMF+Lwww/DiScdjxkzJcoj7lvgcXwcddQRPI8GDjroQIrfhkvz6aefipNOOgF/8zd/jXPPPRvz589z51wqFXm+WXc99DKgFnTDMAxjfJCJrMliGGrJauCiiy/Gv33li2hrVx9HPbga7nccPr7paognfRLEh7peY7eiM9SXUD+hytVD/9lnn8OnPvlXOPHEE/D5z/8tH7r6WTV0D1w9TBmEKDKZjpNEnLFLZOwuIRpqpaUvAw0tpiHFfPzo6p/gM5/5PC697C34x3/8vyyT6sercAGLnUr46L0/uxbjIESxVHLDmS1btgzf+va38bGPfQyzZ89yolEtRfV6nUKz6Ja1j0SlxiPO5QsIuE3CVB/SSXAODAw4ka3zVHh1mShyvfaTGPe4TaNOSJSm8QrFd9dd9zihLvGqeA477HDMm7c/943TmuG2RtDg9jzjDnjcHMP1oa2tjftX3VjJCxc+4YTuaaedghUrXnUt4CeddBKF/bEujOJXC/OTTz6NN7/5fHz5X/8DX//6v6IeaBsTwvpA12qI0ct/w9gm7rETlz99aPr0U8/ik5/8M5bbs/Hnf/7p5LmkvvLcOFhuh4YwHGn0GW4Y5nDZpe/Bvffew7pKH/Tyns7YGOHGyGM17yihmza1oWXnNYw9gspfWh7pS9w9i+er1bgBP8vXTvrr9Spuu+1WJyKVVLXaan3QqPPhGMZhghpKZQneBvIFPoz5kPb5vrqpZyMFbCxiwzBAoZBDoaiXU00mUocm75Abh4kYR8GJUv1Sq+MsOOgAnHzKSZg3f3+cfsbpmE9Xx9Ux9fBXS7Rcjy8P8gcNvkgw3fWAAp3LeR7v6GOOxJvOfAM0YUi1OuDiO+TQg5xfae3v78VTTz3FtNSYRg0B10A1mZnPMAzDGB+YON5BmsXujlgzw5dboSDD4zAzG0ljCUvKmpZ3oFwm+42WSQCr20Ol0k9RXMPUqVNw8cUX4tBDD6ag1aQemsEucq5mutMsdWo/kihuNsUTRgHKZY0QIbGtqZvVj1nDo8XTR7e1lZw4jbtx6ORC90GcwktIlym2Dz54AaZMmYT99puNjg4er66Z8OI0yhSuWIxbjfsHel085bI+BozPRS3IXV1dLo1z95+L4084nnEe5PoWq8Va+/kUwYcffjjOPPNMTJ48iWkNETaUlni6aTOz8WL8oxulJa3Cj4UZxlhh4ngH0E+qO2vDb+bYHy+7MPzXDFdttr+Z2UibRFtc1rTsvNumad/RME2modZTjQscC+A2nHrqaa4bgrpOqNuD3Hh65260t7c5gSmBq/01y1za+qrRKvQxn9brPtOy1mt/hdEMdBqlQutkbixlhtUoGYpfu6nrU29vr0uPukaoy4XCaLvGJ06PpS5QpVLZbdN00rq31RKcjrhRLpfR19fnBG97e/tgurSv9jv77LNx3HHHMR6l1UOJol7HVhgzs/Fi/OOqgZjYH69uHX4sLKXZbxijgYnjbeAErvPpxnSe3aJJKw8yXEQbxkQhLvdqUVXLaejusfgjNfUhTh/EWqdJOgoujPxxtRXvp2XtI0GsMPE2xavh4TTNdNxHWdskTOPlXLKvhDPcmMQKHwviWBhLPGtbHH98DDedNOPXstIlAa5vCvSgliskoGUagUJiWaJZ2yR+4yml4xeCGLVyx98mGMZ4RWV3PKEPaPlEdt8QGMZoYeLYMAzDMAzDMBJMHBuGYRiGYRhGgoljwzAMwzAMw0gwcWwYhmEYhmEYCSaOW6DO/vY1rLHPY2XcMIztkD4L5dpz0ZgomDjeDhkvntJ2xD6MTeJRnHG86RiO8XrDGC1UzjTmr1yNyzvEUBlMy6NhGBOcpBrQCC8ZzZRDpI2tfjAmAiaODcMwDMMwDCPBxPEOkrao7ajtPK3jMTMbKRtsCtpRWsRhtvu2NVqFNTPbY7aN+qJl+DEwwxgrTBwbhmEYhmEYRoKJ4x2m9Zvs1mxn0S6t4jEzGynb6YZjWYt4zHbPtkarsGZme8r4JymZW9Iq/FiZYYwFJo6HsfWvceMvdXfGhuPWbSV6t6lpXzOzkbatlb2toeCt4jHbMXN5uBV/zOYXJIo0hXZj0B+zeZxmZmNlw8tnM63Cj4WlNPsNYzQwcdwCvp+6v87v3lR37201fdu1+9kwJgbND/QwDOH7vvNrhBqRuqoahvwZNBoN5HI+3YBrtL8Es1Ucxp4hHlWpueV26Hm2J2h+Nos9mRZj38bEsWEYxgiTCuNYXHjo7+937jYf5k58eKhUqsjnCxTIoRPWhmEYxthi4tgwDGOESYVwrVZzfrUca7mvry8J0UQkMZ1BZaCCbDbHfepcjlvFtJ9hGIYxtpg4NgzDGCWaW4qDIEB7W3uyRAZ7S+jH4gzyhbzzF4tFJ6rViizRbBiGYYwtJo4NwzBGmLSvcTabdQJZfYmff/55rFy1iltTwavqV34awwT1BhYuXIh6PUiEceT2MwzDMMYWE8c7SNqHcGdsZ2kVh5nZSFlTU+UWxNu3ZHgcZjtmEsTqTlGtVp0/n8/jsccew/XXXx+HaepKzEX3Z9myZbjh+huwatVq7qvuFEPdKobHb2Y2+uaKXktahx8D20YdZhgjiYnjUaT5J1WhRdnmX/+mlgQyjD2AHjwpg2UyWTZ2HnWhSEeoSPP24osvxj1334cVK1agEYbM46HqV9/d3XvvA5g8eRr2228/t78+yIvCDPdPAhmGYRhjgoljwzCMEUbdKYReMtS9Qt0j2tracN55b8ZPfvJTvnjEH+vppVjid8OGDXjggftx/vlvdqI4nytwA5IP+VxUhmEYxhhh4ngHGWrh3XFr3m97NO9nZjYaxlIWF7adoFU8Zts3Ua/XkcvlnF9dLCSS3/jGN2LdunVYvHiJG64tDOOuEzfd9EscdtjhWLDgICeMJZB9P+takHXdWh3DzGx0zRXdlrQOPwa2C3WYYewKJo5HEd3MKenNzT/JGsMw9lXS7hQSx+lwbhLHM2bMwBFHHIH7738Aa9eu5Xq4vsa33HILPvD+DzhBLbGslua437GLLXENwzCMscDE8Q7T9Pa6g+b2Gra8LZrDmpmNtO1so0urOMx2zNKxjSWIJZLVAqwh2sRpp52BJUuWuIlBwgbws59diwsuuACTJk1y27WP9hVxt4p4jGQzs7G2rdEq7FiYNRwbY4WJ4zHE3eCJ3zCMcYgaaV1Drf5oGLUGfaH7F2/jHRyx2nQmv8JuBYbRqBQd7Z0UwRF8T8O6eZg/f74ztRa/+OLz2LB+HU455WR3HAnpQqHgWpClBYKgoSPTvNgGj9ts8eEMwzCMkcHEcQvi4WJG5omT/rwqwlBjn24eb7w9WTCMcYBroZmIuNveT0wLNYSZKq3uNlXrGbptvIdLaARZCt8sw2UQBgGNYRqUr1zOSMAGsZuJsqhXQ+SzJdQGQgrkHLK5LN757nfgwd/ch2WvLsX8BXOx//z9KH5DZPM59FUqyBWLoJ5Gxuf+NY8imceLChTHOdQbPrdl4fsF1GoNujkEtQB+xmeFnmHauKMJZ8MwjF3GxPEwUmHgfsFJWnpjv1s9QiQ/ETUxYQWJMWaoNLsyvYXF5W+4TVR49olPqN1Wr8sZN7WzRHMUxm25WV/DsUnwZpH38qxMPYrkyAnkXDZe9iSQQ7k+hXLGrZPqnTJpEn73Ax/EMUcdjbPedCYKuYIL41H0eqEPX66W+a9UpKD29RJd5fErPHYFXmYAA5UN6OjMoVrrRr5IkR7VUK9XmB6l2zAMw9hVMlHarGkkRHzIBG5M0n//6j+io6OAjKcvxvWzKh98eri5liU9QtWSpOadeM/hpH0H9XGN3KefXoRP/vFf4qSTTsQX/s/fc3udoRqMX5dAP+HKVWQyHSeJOGOXyNhdXMcAljWKqAZLcSZLN4Orr/4JPvOZz+OSS8/HP//zP7Lsa4SFDBphzYk5ybkJg24ziVk5Gd7zmTpCLuiu9zMl9GyqYNrkKQgoQAFN7lHlvV1Fb08v7rv3Xjz88GNYu7aKgQEN3RZRTLudSXIfk5ArGrwQhUIGPT0DWLLkRRx99OEML/E9FG4I1TCU5hTHiqe9PYMjj5qDE084EUcccaRrPY4ovnP5NgQ1jYnMa5Z+yGf1hrG78H6If93M4MknFuETn/hTvOUt5+Iv/uJ/J+VLzy0WaL4kOhfxEIajgV5QwzCHyy77Hdxxxx18CWQ514s84hFhDGMkMXG8BSaOjX0RE8fbRbdZejvzntM/5VmU8VCvBCiX29DXs5HP4wGUihFeXvoMrr3uh3jp5WcxZ46Pww47GPvPnYdSucx7O2AepxVDGml8iGzWozDuQVdXl2uN7uvrdQ/6sHnavEEomv0iKjXVFUBloIJnn30eTzz5GsVwhAvOvxxveuNFKGSnM/IOZPNF1iT9vM4U8OnhDWNXMXFsTFAm0JPPMAxjG0hMpub+qFtDlhrARz6X48tEhcI3RL2+Djfc+GP80z9/BpMnV/CxPzgJH/7Q2TjrzAMwd24N06d3Y968GmbP6cPs/XppPfTLNmHO7E2YNm0jDloATJ/WjXLpVRx4QIiZM3u4rb+FDWDWjH7sP6eG/WZXceCBGVxwweH4sz+9GO945+m4/4Ff4h//8TNY9MzDKORDapTAdfWIZXhqhmEYxs5g4tgwDGOQpAVMv9pEqh49129YIjODGvr7VuHan/8Ud9x1Mz7wgfNx0dtOwKzpk1HMMaRa3b2IcjpAFAxwudpkFRrXoUrJ3aC/hvpAL8oFH0G1j6K2znXBFuYzTjAuBH3cr4/HqVAE98Hz1+GII6fg/R88C4cdPhlXfP9f8OjCm5mItYjCvuQ8TBgbhmHsCiaODWOCo45V+gAv7WEVRfGQYhOPCL6vkSHU+hoL46CudRlkPa7z+vHd7/0nVqxYhPe+5wwcdfRchulHNkPhHGqgNSCf9SmQ1fkqhM/1vuKUye8sdHH5mYAiV8s1Zzlf6+pbGii4/TqK2QbyngR0L9f1cF0v07YSXV1VnHveEXjH28/A1//z3/D0ojtRC7qRzWmM5bg7WIbHVdcu10Vms8uqBRPRhmEYwzFxbBiGE8fN7kSlHtSQpcDVu0EURvDURzuoohH24867bsCS5x/Fb19+EvabU6T4XM8MG3DfJGQyEp8yiegGPAlmCuEMRbDb5vyu1yQrXW3XaBc8YBSH1fKQxdvlKi59+Od5w4zHbSsDPgW7n+nFwQdNxaUXH4ef/PS76O1d5wR+OiufxkrWy478rruItLDpYcMwjK1i4tgwDCNBgtjPpq3HWqMPjupYv34Zfv7z6/DWt56ImbNK8HMV1KobUCxSZXp1WoCIbqSPd52f+1HcwovoVxgZV6nG1R9FPuhuze/RoctFFwcFsxPYTkxHCOoDyPM4eZ/HDPtw4vELUC4EuPuu26h9JYglhuOostlsooe5YNW+YRjGNrFa0jAMI0GjyqiVNWho1A51TaDwzVRw/4N3YvK0DE486RA0Gt0Ig17ks2rVlRjeXABHicjVKBcyZAY7V8TrFJ7idoeMEUZhJ20y0zWFkXfSypS4eeQ8jYTTx3T2U6R3UwC/hnPOPQgPPPBLivuaOw+Ja4/hfH/0RhEwDMPY1zBxbBiGkdDcvUQtrxp7uHvTGjyz6FmcfMKR8CiU8/kA7e1ZNwlIgyIUvlp3ZX5iFKJejuvzdAubWeRM27KIJFgTa+V3bhqXLMN1mQLTlqc4zlEAg6K4gHptAL5XQ1sJOPSQ2UyKh0WLnnEN0Goo1hkF9QZFtTs1wzAMYzuYODYMw0jQ1MteRlM8e6jUKigUc1izZg2CxhrMndfu+h57HkVxqJbZEPkCRa+qUTfmamKpH8ONAtcZRXPE/aJi7Go53Ta4ngYJau7nDwDZPlqVfnXZkOLNMh05ZKIcPBnDeozHp516yvG4++47XR9jtR57vo7NqDxV9+pqkZqpZWNH0SvWcOJuO0O0CmMYeycmjoehD3FShlqRRjab0pEA4vgzg8cxjLEgLm7NZS5yZVLlXO7ElUzKEx91CmSJUi9PgRwEqFZztAhdXT6KhQyCOkUqM9HPl1ELmHsNjUyhWfQ0YYeHgKI6n9MHcL1oa2O4bEDB3aCWUEtzIwlfQBhQ4FLU5iheM6jD9yPuy3AB12U6kPMoeCnEI68HjWgT9bYmE8rygFkePo+sl3fXy5euVj/nTA0Zr47jTjgCv3n4KeTzsSjWbH3qLuImbXCm/tC6yqkZxvaI743YHYZbpWdkXN5GEzfxloqwPTONUcbEcQt0A7q/ugFpckfS0mO02mZmNlrminVTuXNLiSua/c3hJozxn6/uC3zIh+4lgWKVYnagoj67bWhvy6GQjQVwrd5AXyWgYC2iUOqg7vW4jz7kA8rldlTqFWTzOWzYuAFBg4KY8efyRZQK7chlS2jUPYriEuPNoV6vJV00KujsLFPU5tDXr6HaBrjvgOsznM2VmLoCqkxLf0+E1SslmJlWvbhzXwlj90GgH6BY1qx7FPAaGYPHHRTATlSkH/WlbnzdzcxaW1I+KBU2W2a5GwoztiacG3sNY1QwcWwYhpGg6bX1zB1qT81Q8IYUv2rdzVDIhhS3BZSKbchTsPpeHj29FKagSC5OQhDmUKXwLRQmU9jmUCxNgp9t435ZDFQj1BoS0TlkCzlKV+6XCeDnslCXYI9CeaA6wDB9yBV5tKyHfKED9aCNCZrKNExC2OjC4wtfxC9veRg9PVTiGQnkLM1nBE65OPGu9IehPhjUqngM681/E9BZyvQIkGsYhmGkmDg2DMNIcBOgJH0p1TqWjfssIBNRdFIUU82iVlP3hjz6+6pYvnwNSuVpFLAFdG+KkMtNQbEwHZt6JFInc5/JrltGsTCNgnkq4yrCy/mo1HuR1zjFeQpmCu629lncNgkrV/XjN48swg3XP45apRO1ganUvLNQHWhDGHS6uA877CScc+7beNzJTE6eFn+4p77IGT/D+OmnGA4h8awz0XmlwjgVwzTN/BdRVDdrZsMwDMPEsWEYxiAUivHPt/GiWpLdh2xqkc3mnUUhxbL7gM7Hw48sw398/Vb09uSRz82kqH0Yf/u338Tjj61BUO/Epk05iuRp2LARuOI7N+Af//GHWPj4CuTzk9E/EGCgomHjym6dWoZnzXodjjn6VFx08Vvg+ZN4DApglJDJlVBvZNA3MEDxm8fyV5eiFujjPA0N5ztTC3KY8V36U9R1otGo0xcP6xYjV1V/k5lANgzDGEQ1o2EYhuHQaBWxOFa3BE277Fpdo4z7mC5DQZzLFbgNaG/rwplvPA2lwhT86Or78PKL6/HkwpU4+sjX47prHkf3Rg+l4hw89OAS3HvP01j60gAOO+Qk3PiLZ7B+XQ6F/Bw3hvGLL2zAddfeC9+fQsHrI19qQ7aQx6srV+PmW25HrV7D2nWrcOttt1L8Ruju2YiHHnkU/dUBJ9pl8djK6l6hj/Xk1+rYdTPjpctOGNN4PrFfjwC5hmEYRoqJY8MwDEGN6Gm0iUbgFrO5eEIQiUq1IMc9EzxQM1MgF7mcQanUidNPOxoLH1vG3cuo19qw8PEXsXLFAF5drslCSnhxyTo8/sgKrF2Tx5NPvoLly/uSD+YKjLcNXZ37UTjn8OtbnsCGNVl44WysW13Es0/24YdXPIFVK3J44uE1uO6nC7F8aRVLX+xDdaCErN/OOOIW7NhiNBueUIt3va5RMDRZCBPtSJuIU3FsGFtn+Ng1KvN7GqUg7SY01F3IMEYWE8ejjHuwuhab2G/PI2O8kpZV92+CllP11FVLqz5qk6CUqe+xl9GIFTknOLPZHKqVKq7/xW34+P/6Af7fv1yPt7zlZBwwfwF+78PvxrFHH4W5czuQz7W5USkmdc3CggUL8OlPvx9HHXkwpk+joA0DHidAIZfD3Dmz8ImPvx0P3PcgPvNX38UHP/jv+NM/+Tau//m9OOqI/fF3n70aN964EDOmTcW//st1+MlPHsSbXn8GJk+a5KoTXTN19Ej/6QNCrQ9qoRt9Q6NdxBonFRJyh5thtGbo+eX+JraH4KEnat1kjC0mjg3DMBLChj7Ia7gWZHWrUCtsNqt+vBrWLXBiOUdBq/WXXXYB/vMb78PXvv77uPDCM/DEEw/iueeewsrX1mPK5Ono2bQOv7juNtx/330ol+p4cuEivPTSMhx5xDzM2386wno/MlEfMt5GHPy6Iv7m796Nb/73u/C9719O97fxlf94D/7ys5fi2999D/7t3z+E3/uDt+JvPvdWfO1rH8ZpZxxEsd5H4VtVW7aryCnboUlAolAt3hTHPBeJeimKuIWtyXg+JowNwzBaY+LYMAyjCbWUNdR3grjJM6I61w04Qey2aSIPis1cLot8Tv15u5HL92L5iifx7HMP4uCDJ+M97z0Dy5c/Az/bi3e+842oVFbj1VcX4ayzjsCFFx9DUduDjg6J7gpF7Dp0dFYpxtehWAyQzzJuP0KxELr9kdnIdPSiWKpynSYg6eX6CvxMFb7XoCtxrNZj/ot8BHW1fHM5oymmY4Gctv4NieFmcTx8pjPDMIyJjYljwzCMhIznuZbhoC5BLCFMsZpXn90K1q9fR3+BQjjuXuEm78hr0o0+lNv6cPY5x+B/ffzteNOZB2L//dtx6aVvoh2No46Zg/d/4GJ85CMX4JST96MolugOEVG4NuoBOjtKGOhbT0EboFGrcX0GYd1DUK1R8mp7HrVqN+bOmYr99psKNPoZro+JrYMpo0UUyDSJ44yHJc+9gMMP25/x5VwLMgM6YT/UP1NiWKYXgEQY20/VhmEYg5g4NgzDSEi7TUhG5nLx9Mxz587FpEmzsXJlN/oHam4INX2s1wjr3D5AAb2BQroHnZ0RNeZG5AsDKBSqtArK5QClIgVvuAGFYgU5tQp7bfCjLtT6iyj4U9GoZlHItbnpoP1MHl6UR87Po5CXC1T6+jG5s0uJQxhUUS7lUSzkkFVfaB5RIj7jWodplMj33nM/zj33PNdHupAvuo/yJI7dqBXCCWGeobpWOHNrDcMwjAQTxy2Iv9Dl38GWlhFEz6LBnzhT/ygcxzBaEJc8iSnnGUZzOZygisnLoE7xq5nvEPrug7ZJkzoxZcr+eO7Zbnj+DGT8LmS8gpvFDhmKaYrQepVCuJijIG2gVGActV4nhMNGzbXsZtCg+FV3DApqzYZHYasuG5pYxEOJ60oUvyUKWIlcpsP1cQ4R1rMU0kW6GeQp1v9/e2ceJtlVnvfvbrV1z6IZjRaEJIQ0WBgQEIRBjhG7hI0kWzKJkW2QQ4yX2CHb4zyP4R/bDzzGjs2TGIP9R2KzxXbksETgYGKwZyQhsQjQgkZIoB1taCSNpnu6lrvlfc+5t7u6pofpqu6uGc28v5mvvu+euvfW0md576lzzg3DEqK8b2netz7ep/FW1MEMzj5rg6Jje/dl9tgP5uz5577IiWWOnfZ/a9Zn9NzgOGSaqn+xGuoLsOO0ThDHJaodRxgt/65SqP2YdihW2m80TSabliH3uTxYs9I+x4uFEWRs6cfp1iKWN2M+//xX2nXX3WMLvVl3O+fuAN9ZAOEKkRyHs9ZKTrBsAAmac/KbF7JcS9jfYY8iG9vw7nyodUsbWJykludd952H1sQjxDWeDCCiA4juKIyxb9P1JvvRD3hAOu98xzvhdWa22P4DpS30G5aWmy1MTrF/+Kfb7NmnP9927DjViWv2hBf8IHi7FON17/JiTzPez0rfg0xGI8vTjnD9MFJXCbFRSBwLIcQi7OVlFyu905Sw0F74wn9mP37BP7c/+9D/tCylYN2CZzbZYNCECG1BgCItnoWHUM0gOKMWDoSo5e2djcKY4rcJvYwqN0phfSth9BYNEENZV1bHw2kWpl40h3hfTkAntn+ub5s3n2bNhOOQN9sdex6xb996v1320z87MsbYDxdxd/ob+lTehBBCjCJxLIQQIwSLwpICMrRsUNpb3/p26/dbds01N9qg17K037YonLGsKC3lLZqjwOJmDOFqSMsghEtnFhYQurkz40S8COnwPva2Ukxf789RECVvRBLyLngU221rtrbbwnxpedqBT+xjH/1/9oqXX2Q7z/5R6/d6buw0qYXyhgwTE0KIYxCJYyGEcFA8QpDC2HvsBDL+FxwOYYkl0ay941/9it3w5T12zWe+CoE8a0GwCSK1Y0EUWz9NIYYpkBsQsRSztUGYOoPQ5TaHbATJ6gyvS5+zBzpoYZt35puxotxkYbDVsnTG9j0V2Pve+zF7wfPPtze+4TIIYy4B55edGwwGzlMgCyGEWB0Sx0IIUcEKkWOM3SoOwI9xDC0rII8bm+y003ba7/3u++173xvYn33403b7bU/Yk0/yrnknYb8TIFpPsCDcbnm+CWfZAtsMcb0ZghbbJeISadinLLci3ur8oWLvue+2yrZbWZyIdPrt9vD3U7v++u/Ye9/7UbvwVW+wq972a3bC5tMsitpuybl+v+9EMVep4LAKIYQQq0PiWAghluGF8RKQyGECgRnZTHu7bd3yLHvPu/+znfWcF9unPnWjfewj/2Sf++zt9uB9sQ26p1o2OM2seI4V6elWZKdbCaP38Rmws6y/8GzLemdYEp6LY063sDgb+5/lrBzyOfcvTrXBYBvE7gk2N9exW29+zP726uvs4x//vN1264P2znf+ir35zZfjbbcszUrjJLs8z9w795PwgqVl3IQQQhyWoNRAtBFKK8rMLr30UvvQh//INm1uGe9CxVvKGr4qzl23kgMA/czZkg3pIea1sLeGPTf1ZJg9e+6wf//vftvOP/9l9vu//14cyQYMjVZQeZ7Lncz3VvE1HFUvlhCTUyAHI/9COJXIv2EQW5aWdvXVn7R3v/v37Gcuv9g+8IE/srwYIM9ib5SB0OXw4+n6meWMPaz0LOMQlq4M8iYg+O5Cfh8FvpuBdTpNOzD/tD30yAP24AP32k1f+5p99+67bO/jC9bthhY3KEhZN4yWXbdWhHVmzObnKWQTi6MBzulf42DwujEswt8PwjeG3/m8E+3FL36ZPfe559q5O19oW7aeDOHNFTEgjnP+nVO8V9Yr1SmEmBDmYdYVvCX5t7+9x37zN/+TvelNr7ff/u3fQv5iu8U8Pp0LL06RLYuGXXbZz9mu3btdm0r1Erox+EKsLxLHByFxLI5FJI4PD8oZlz1z8HPjG6jEMatJ9sjioSq3SOUEubKwNEstCWO3vFrpbjvNOoF310td2eW/uorgebhW8UK3a08++ZR98E8+bO993++4eoLfttsHxqgu9QXqD8ZxHLkbk/DZLMutkbTtwMICXpNLx7WduGZPcRnwPUgci7UjcSyOV46nlk8IIX4IVJO8JPCR05ZO3FJoQhLn7OHFBW91B71emlqGbWgHswQiGRcWtAwXFmnB1StQvfImHBCsUK3eQn/D59nN29xyb3MHIHohbC3EOSGw3WoUQ57pUWMT9tlsWdG0+fncuj2easZ6fa6F3KwmBOLdOpFS93wLIYSYFIljIYRYhu81XgSi068vXFqa9SCSIXxD3jAkgn6FKA0LGyB9kHWtQBwmeA5WhLxhB/9RXlcWUMQmBl2N87B/N8Q5kQSRmxe8JfVy40TAKMZz7n1E1uzMYN/Y9u2fw3G+R3lhYcF6va41mgn2gZivbvohhBBiMiSOJ2K0Z4bboyaEeOYBVVkPZ4J09cMTOM6YPcahxc3IBmnfBoOu5WWGOLcspVBu26bNO6zV2gzRS/HLiXAdCNnlFoZtnK+BmjeBmIXQxUvFjQ7OQ/HdOMhC7LfQO+CWgaMQH/A2fFFgJ2zbZlES49gEr7vJ2p02xPTAD6ngSYVYV4bbtJXaOLV74thC4nhF6sblUI3McEXgG89lhjTfPh1cWaj6EOJoBgV3UVzSe/PLoRUWR7ElEKW0BuM4sQgeOtl63YH1e6mrAnjb6DIrnRVZAe+twDnc2YvAcgjiQQ8xxTgXQOYEvhL7wZzHa9IaeK0Az3E8c+LGJpe2cGCendduHeMBTsLVKTi3geOi/Z3whFgfXHFwv0iwbRtu+4bx7d7KzwnxzEO16EH4SUiL93J3k3BYQdTb/udVb9XPrWgNlxkOCSMcw0Or43yD5ZrFxTSZbNrm8597XJZGhvdj8vLt48SoOBeNBZl1AdcxThBGVnLVCvyLAhRwfmfQAhGejyKmQRRjf8ZhWdZDjpHmfR3jvzt9xH1xbAhxnOBJTvDz+xTwEOLO8J7wPF+PxhuT8PhGwkmVBrHsxTDfewRBzr8rOehzyWQTGFdo8cZctTSe3bWDbh96GtNqO/g862VV9hZiw3FZXgghxHiwnT6k4WFFG9mPjKYtGh5WOoYmxNRRJhTHERLHQgghhBBCVEgcCyGEEEIIUSFxLIQQQgghRIXE8Qj1DQMrJ8RxifK/EIKwTVy8kS6dKgdxHCBxfChQ/t3sWOBWrBDiGGbZjHAhhABL9YFfnUKI4wWpPiGEEEIIISokjoUQQgghhKiQOBZCCCGEEKJC4niqrGYiQ72Pm/kgk62TkdF42JP6edl0jYxuDzP8nEx2JIzUHgyFB+8nxDMfieMVWJyZW7Oq2bmcrEAb/UqHKw7O+jXLi9wKBPUEKMa0ZXcf4n1pQ6b542SytVp9m9eyLLBVWhgFVV6vZ6MjjbcrRhYuyxxbxbLjZetgLM9B4W7HmxeZlW4bTw2X+2XbsJXOI5NtuKGeKJFHLXP1Qp3u64q6nXMZFCDNtVVCHBtIHI+wOCO3cpG/qTxYms2/ZNEPsRCGfXD4qOUUw6hMKD0oQQK8RhDhCfz3hkrGGfaAhYhlsrUaG7uiauwolEPkuwJCOUAeo2AuIIjZyDHLx3GIvI/sp/y3rkZhnOP7txjlPsK3jXqmRDr9UvlfbsHIOWSyaRjrhaSBC2jk1zgxy7IUmdELYNe+IXP6dpDbtQ23j+tvQkwLVr9izfBrZME9fOHlRXcURhZFkeV5bkVRQogkqIwi95w3f3V++Hh4/0li+nFj+rXE9OPG9GuJ6ceN6dcS048b068lpj9UjFyKPMY82khalsRNGwwy5MMYKbHLj4zzvED6APmSl2/sWa5fY+k8y+PR11lNTL+WmH7cmH4tMf24Mf3ymPDv0F3o4vuG4sB3zF45XqgsPwaGa+MS9YPfpl9NTL+WmH7cmH4tMf24Mf1aYvpxY/q1xPTjxvRrienHjelhyHtpmrk6gW0V82ocB5YkPt8u2ZIT4lhB4vgIUJYQHewUDhOL0UD2egPrdQdIo0CujLHbjpfSZLI1WGD8RSNGfkttAeKM+bBAw8cGMR3klmfsMYohnFv+mILi+ODzyCY3XBrjezZrNNr4O/QtS3N8z6FlGf8OEMh1uV+sCyia61gmm66FQQNtVBP1RhMNFy6es8C1V0Ic60gcTxn/UzW/dv4sFbir8jhuoLFsuTRDY2iolNiIOmPs0mSytVk6KJH//AUZ81yn3fH5MCgtaTRcTyYv2thJFFiC9GTF88gmtwIXHCzXvABpNTuWJI3quaqsuyq5troO8MfKZNM1CmT+stTARTSyIvKkG24VMV+OUFZeiGMElAAxTUKoYw6l4M9U9VCKLMvhKZar3r1Fo3Chscev9sPx6PPjxvTjxvRrienHjenXEtOPG9OvJaYfN6ZfS0x/6Ji9wuz5oWev8cLCQjWcgr2Z/Om08PtBFBfuJ32I5MVzDL/OcOzPPV5Mv5aYftyYfi0x/bgx/fI4Ctgz38R337Nut2ezs23r9zNrNmf8fizzi8bt4fOtJqZfS0w/bky/lph+3Jh+LTH9uDH9WmL6cWP6tcT048b0tBh1AQwX1LxIq4db+CEWw1TDK9zAeSGODYKSv6mKZRS4TL70skvsz/78A7ZlSxspA1wYQzhwspLbgxUBKg9WGJxWd4g6gZVIHMcQvxzbGdm3v327vetd77E0ze11r3uNZXmKvfhTNk4RBO51l062dFLIaTxyu/5T1XG9z6QxPRknpieTxvRknJieTBrTk3FiejJpTE/GienJpDE9WTmOktjm5xcgxNqLgviuu+62f/zH3fac5zzLLr30EjuwcMA6nbabfBNAHftJMKOvQ1b3mivH9GTSmJ6ME9OTSWN6Mk5MT5bHA1wMt1pt27dvzr76lZtcXeDnGmG/gGV9eH/UM2WO50fPTVaK6+MmjenJODE9mTSmJ+PE9GTSmJ6ME9OTSWN6Mk5MTyaN6ck4Mb1/5IV0v89hFAHqjnn7+7//kr3znVfZb/3Wf0Aaf2LC/kHmY0f968f6wzkQeR7bZZf+nO3avRvvjUOO8GpBo9pDiPVD4ngF1kMcUxjXvXL9ft/5e++5z/7wv/yp7dnzPb+TO27p6/cNZH2yyuPPo+59sR4EaLdyai/ASWAs+llW2tz+OUsakbXbHeTTBOncKff5Tr1B606Bgs6l8ngt/PDDj9qZZ57ue+q5WsgKXzf/DvoriGnj2yPCXzsLSxLvr7zyLfbLv/wO7EBBTHHs6wsPc+vGtFgSx2KaSByvwHqIY4rhNE1dZeKWzIKn5rj3voes12ePMWGlMnK8EyO0qkl04njl1xBiLMLI5UNmpiVxnNnc3Lw1m02bmZlx+ZZpeZ75Zs6tbyrWkwDfsRtWsdC3D33oz+0973k3vnc0/IX/JclbTcBKekioCDElkO84/KrRaLjJo81mYhnqhVNPPcm2b99W7cS2aXl+3SgkjsU0kThegfUQxxQhfqgEr7gTtzwWl3ArLbZi8RunUBk+nuflBq0Sx+41eVXuY08d05NJY3oyTkxPJo3pyTgxPZk0pifjxPRk0piejBPTk0ljerJSjNwbOLnrtim2WPR5Iwo2fmSAi7Y0S92kvUYj4RG4oONPpqOvQ1bzmmSlmJ5MGtOTcWJ6MmlMT8aJ6clIHMb4/kN76KHH7D3v/l37i7/4c5fO9WT9vvV5SC2O67QJX3PVMT0ZJ6Ynk8b0ZJyYnkwa05NxYnoyaUxPxonpyaQxPRknpvehE58QoYN0YHEcuXX6U8RNV2fUxw1RHboRSByLaSJxvALrIY7Za0zRQXHMIRaMBwMID/5s7bqB6q996XiuXlGf+2BxLMRaQMNSZzkntNgrRPNLuVGs+fW2ubwbJ4wi32E/dRyvL+6CBD7E9/3gg4/Y+973B/bBD/43Jzz8T9ND9Yn7e3Fqnr+YEWK6+F+X+CtSs8n2q+/uqrkM15njW0WHG2KxMUgci2kylKvFesKJeBTF7D3mz9TcjriOmxMmrEBobAyXjM2mv7VvZU64VGky2ZrMT+pyncfIXa6p4W2Mo9KimHefyi3Nem58PCeKLuU/2Xoa/6FNd9+xuxAp+AfBRQicK//ue2eZZ8x/2NbfQnYEjHfTpNhlzPsH8U6NOesGjo13bRbbMHcFJ8Qxh2sqxShePHiG/XBFMLq9HIphCg32GNMolCmS/YoU7B2i4Xgnlsmwr8SzuwrndrWfTLYG4+2hmf9KGD232fCxV5JLDFKs0XhB537Gl62/oSz7nrim+87TQeomOnG8sbt4ceb/Jt4P1RMy2TQNedXVCbiAZq8x6wW2ZawzsENlZKidmgLsLR72QmwEEscrUZV510BVgoE9O+x1841XLSC4XcfLjcMpOp2OG17BSU7cZsUSI45wIjyu/I/P4XgO2HDG11sULDLZ5BYjH8XIwzFEWYJ8mPCGIFzHtET+LkPE0dI+sEj5bt0tQkXC775IM5Rv/i2QDrERoy7hNsu7t6IyP7RlpXPJZBtpftgC8mLEGwL59Y/RjFXbHDfPMcihb58W28eDz7OexrYULaKLhdhIkJ3F4Rm6RF33Msk/AU868qdgEhrG9X89IYZxGc2H4iiCdY66xsTRRF1XSDaIYx/lciGEEEIIISokjoUQQgghhKiQOBZCCCGEEKJC4lgIIYQQQogKiWMhhBBCCCEqJI6FEEIIIYSokDgWQgghhBCiQuJYCCGEEEKIColjIYQQQgghKiSOhRBi6qx0BzxuFz4UQghxxJA4XjN1IyeTyY5PO5gwjKysngrD0IIgcD7P88W0+rbdfM75MEAcWq/XtSjGMdgl4C3kV3xNmex4NDx6B18FQmwAEserhg3XSsYGTCaTHb92cL1QFDka78IajQZi3xu8sLDgtoep968F9GAwsC1bttr8/Lylg7QS0aOvJ5Mdp+ZKA2MfofQ4L8R6I3EshBDrDBvvKIosyzJL09T1GLdabet2u1XDvtSoc5vGfSiG+/2+ddoz1my2nFgWQggxXSSOhRBinaHY5c++FLfsLU6SxPbvf9riOF4UwzXsWaZxP4rpWhB3uz0I7NjFQgghpofEsRBCbADsBa6HUfR6Pbvuuuvsq1/9KgRw7sTwkkDmMIzSHn3kB3b11X9rjz32mBPWFNIaVimEENNH4lgIIdYZitt6mASFMHuOn/WsZ9knPvFXNuinTiBT+HLMZMiZd/C33HKL3X///TYzM+NPAjTpSAghpo/EsRBCbCD1pLqdO3faySfvsC9+8YsQy+xR5jjjwsIosYWFrl133fX28pe/wnbsONkGg8z1JgdB5I4VQggxPSSOhRBinWGPL3uM6+ERZMeOHXb5z1xu1157nRs6wYl3SRLY/qeftjvuuMMef3yvvebVr7UDB7qu95jLutVjlIUQQkwPiWMhhFhnKGjrCXZcrYJwpYqzzz7btm/fZjfd9A1L4gaey92ku49//BN21VVvd8e02213DIUxBbYQQojpInEshBDrDEVt3XNMocsxxyROYrvggh+3r331624t40YjsRtuuME9/5KXvNQdw7HKWUZR7CfqadixEEJMF4ljIYRYZyiKaZ1Ox/Uis9eY6x63Wi07//zzkWZ27bW77cknH7e/+7v/a7/4C29zPcg0CmI/Trle8k3DKoQQYppIHE+EunKEOKZhEXddtkPG7cXN4e3aL1kMIRxB4Pa6PWs2Gm5FiiIvLM9y27xpk1188UVuYt6tt9xuJ520w55z5pnYx99ZL4l5bFSdqzph5Sa2oXDJhreEEELUSByPwFu+ltU4v3qN0oM7boYbFT7Jr1Emkx2dVhdgX2bLoC675pZUazQ6ZjnEaB5jzwTlH8+hHgjKzMI8swhGH0K4BpWFBbfrNO4LP2wcUoFjDPswTqIA76SwEGI3gl3wih+zrbMz1mm27JXnv8S2buJ7yCyBQA7w+hHeQojjQudLnHOVhqqLr9RozFqQhxYhhtS2Qa+0vIysCGPLgsQKfCUldg4sd9+D6jHZkbEaxlyZhZNXh235ai0BLjj5o8pgwHH8oSu/QmwEqE9Ro4pFcjRQARrPSy691P7yIx+yViuwKOZPpExHY8WdSjyWboVSNLFoVNxPn0KIoxNWcTQIVv5D+c7T3N2iuddLrcgDaOHA5vZ37cG777JWE3LSiWNeJA9NiEOZ9424P19d6kuXtro6oMhzG7iL78IeuOde273rWnvLW66wLVu2HvJueO5lx+BA94DFHKIBFcG6LEP9FLc328lnnGazW2chjHkRkMIGToSzHvMiRPWYmDYsCyxPvk31eXA4HzKDUgCz7LJ97thP/eRbbNeu3cjbzLfIuZEfzy/EeiJxPEKWodEIIY4vucw++rEPW7PpxTGegdXiGIVX4liIZwgsv7Qlccw2mSWYC0k02XOM8vzJv/mU/eUH/9See/KJFkMYu9Jd146uzYaIZsAeWmzyeXdmtxNThneu08jyOIc4biTwGWoQNOxBmeJ9lEPiePn5Sle/jJ6brBwHIcUEDJv9HA+Npt3/6F57x7/9dbvkX1wOsdzETjmOQF2HC30v7Xm8ENOE+XVIHDMPOoHsRa9Phy2KY96SfZO96eIrbPfua93EVU5k1VrgYiOQOB6BY/5KFMRLLrnUPvLRD1unwwYLwjgY7jn2hVjiWIhnAlUjOySOS4hGjgOOopYNehCng9yu/dL1dtPnr7YrLnyBRRCsIQQme49Z0v0Z6kYbKS69OpdrvFkH1FVpHdf1wlLMccUNiNX5uTlrtVtIhUTFBTmXbeN4ZE+9vz/fOOKY50vwNrMsgwiPIITxGTdtt0//wzftvJ+40N78c5dbGs6w+sIhECauHqsuBNx5hJgW/hcUbyuJY+AuPFkuWHI5pGKLvfENPwNxvNs9zYmrEsdiIxjKhcLDBqOwzZvbtm/fPuPwQ7fWKAuts2o3IcQzFvY4pWnmRCTnFrj5BSjsM0HXtkU/sO21xfSPuZjp26LH/fNx5UOkhU/A73V+OKYfjbfaY5bM320nJk9Yq3u/zWYP2Wz6kG3KH8ZrYB9n2H/RL51v+NyHircHe+2Ecq9tyZ6yE6MeXmdgUfdJ2wSRwbHTUTWO2YvpylSviSMGM15taGfdoHmIYYpixosZ0+fVAwcOWKvVNPbpcSUX9e2JjULieASWtTAK7ZSTT7ZHH33ElU0/pqm6sl30QohnKrzgTZLYFXjGXGYt7Xct5jjcdL9F2dPwT1uMOM68JfmcJVlt3J6HHbBG1oX1VmVN2EyY2WyY27Z2bJ0gtS3Q5R1Lcc6FFW2c8yd5z8L+gs1GpTWK1GzQ5ewlS4KwmuhXOnHspQbMbavXWBwp6sxID3O9yLWvYZsLw0Xc3r24GNy2zQljDquQOBYbhcTxQXAsYG47d+6022673Qljdhxz8H+W4bm8cD+BZnmGPd0T1XFCiGcW1XAJCsQwhEdZLkOLUebjcAUL6GNnkduOIToTWANxw/nhmH40jsMmjm2i7Ucdwgn3JQU6DNtRgOdg4ZCPnR187kPF9G4cM5eCCzlfomGNZhvbDSs4kRhVPj91yDHVXG2j+slaiKMJjr/vdnHB12ih3S0sHRRoahN74P4HXdtMcUxzv+oKsQFIHI/AAjcY9O2tV15pX/zil2xubt7N/Gajydu9xnECgVw3piiYunIV4hmLH7Pof56NeLtmVIkFhGQJkVlCxNIXQQueMZdAq43ptXEbx67KEpwX+1O8ol4pIbSdIWYarRzyOeMVz3Nos6jB/m8ci9eKmpai7sooifk5afjcXMItQGrEZ5b9fC3EkafbXbCZmVnrLvTchWi7PYuLydK+cdO37JWveKUTxTR2VAmxEUgcj5Dl/lavW7dutec//0ftppu+gYYTDSga0bzwPceDwcCazZZrWAsKZCHEMUHJMg2xWjgBG1vOX47oXVqdXlkE4RrhIhk6d7VWRCWMPhjDVj7XoYzviaI6c+8f7xmW82KePW1OIPOTst7ipUDdeyzEkcAPlxi9Novjhmtr0fC6X2xpe/bcaY88+pidd9557mKWaFiF2CgkjkdgLzEFLwvmG99wkX3h779gDz/8iPtZh7PbW62OE8X9Xn/xpx0hxLECq0Tfa1tWNyIoORseVgbs5fU9uT6NnmIaMjOE8HR+OKZfHlN8s8Efx7xgHz33ynEJ7w/jz9ClixE47cGRxbUOqfuKuQaA5IU4MjBz0lCWapGMPEoLUc7calDsmEI5G/Qz12u8c+fzbNv27U4Us+1NuRajEBsAc6YYgr3Cbr1RtBgve9nL7IwzzrBrrvmsm9XOccfz8wdQMFGA8Z8TAoQQxxi86PUOxkbYN8RM5DPQny7N7er++Ybc++GYfjSm8SYcq7Xhcwyf+1AxK/UMRw5gfjm60K0AgPcLY9Xl747nfV4JZyGOHMy1NHcl54y3Wudw4kbM5Q4ju+nr37Tbb7/TLnnzpdbpdLCPhx1VQmwEylkjcEkn3j6aY5majaZdccVb7J6777VPfvJT7m5aHHPcbDadgO4PUitwBcvGRSaTHd1Ghv1wOmFJpuiNwtziEGUdFoWZ244W4+E0WmERj0Gbvnrz+3uRDXGNi25vELfOQ+pWz0fYjrB98DkObXGQG0cdJ7QAnwNGgVzLYIriAudlb3NOT4GMtOHvRCabjvneYWfMoXWMDMlBP/ueftpuuOEr9t//x0fs13/tN+z0M87EUb7c1L3HQmwEEscHEeFqtIFCB3Hc7NjZz32e/cZvvMtuvfUO++MP/Ik99MjjNkgD6/ZySxoz2I8/v+Iqt/qXw7g9nLb8n1vjQiaTTdXY2PqfbyFNcVELUYoL3azILYCiTLMBR07gOTS29RAKN3SCVSR9bXHlke7VrWug2UbXgtYl40wlzh1H7M2FBEAatxmzSyxNcwjTpt39/QN22z3z1o22WS/abk/1m7brxrvwMjOWQ8W6IZV8Lfe6q7EEn5OTB9uI+T7xifDivPmIQXRwUHIAowBxA5QNx8D89zP6nclkG2scPsFy5stmgvzaQL7n0MbE5ucGds01X7BPfuoa+5Vf/Td27rk/6laP4gUkj2NHFWMhNoLod0AVC8dwT46Pd+w4yV784pe6scd/+ZGPWbsN0XzWTjZ5lpeZG6McohEMo9gXVhzH5+h9w1bHVaOK15DJZFOwugyiPHLoQS10k6SFcotUlFneDCSIQrv3e/faE/fcbuedfSL2Qtmv9qVnA84LZo4x5vncXbncuX0vL/eut2mcwMvVL3r9ntuO0JjTOJGX84zCZtuysG233vWk3f9oz046/Uz78k232aevud7mD8zbeS88xzpNiIQ85Zv0Vr32DzPWOwGXhqNIxjEZPlcKEf7dB+Ztyymn24+c9yKI8gaex4eHhRQk7nvB+5bJpmqh+/XVXZAiTt3EO877adr37r7P3v8Hf+yWO/zXv/yr9oIXnGeNVsv1KHNNcr/KDEUy864Q649uHz3C8LfhxxXSCqQXNkj7dt/999onPvExu/PO79iLXvRCO+ec51qjkbhGlhP2XDnHSdw2W02XQHieKnavMZruEsE4MT2ZNKYn48T0ZNKYnowT05NJY3oyTkxPJo3pyTgxPZk0pifjxPRk0piejBPTk0ljenL42N16mT+/ujSXAgtswJ5iJDUbbaNaTVG2b77h69bce7v94uvPtkY5cGsBsz+1PhulZP0Kvknm7aV5bn9OP8CKeyOG45hJ1gMDCIAWGvb5+Xk3bCtHi59DlJbJZvvKLY/YI3sX7LEf3G0H5hbszW+60F5wzulWdPdaJ+bwjsIydrGxblkNeAshVT/IcEgKgT5XbrLPXfugLbRPtFe+/rU24Eobbvm2HLKfvXbVp+KbruPFT00OF9OTSWN6Mk5MTyaN6ck4MT2ZNKYn48T0ZNKYnowT05NJY3py+JgXkOlg4NK4NNt9991nN3/rVut0Zu3yy6+wC175E+6Cku0ye4sjXOwJMQ0kjkcY/jbYePpCnFu313VLvJVljrY0t0cffdj27LnD7tjzHet2u5a5CQRoSHGQF8UoxK6xEUIcKerifFBJxIUv1zNvJGh43fCH0O674y47p/2Uvf2Nz7WkTCGO80oO+7NwDGStH9lEDwtnbrk9XULgeoe5f1Sti96HAFjo9uzE7dvwPORoEFsvj+26r33X9i9Qng7s8ccetItf/xo7ZXvbOkHfynTOYopYt5ZrxBc5LLyeD6nKQY56iOJ4v0Ec737Abntowc556UsgmimOsSM+X1BWPeq+shNiyrhS4x6TOLRzz/0R9yvts599Ospm060axTaZQyi4MgV7itkOC7HRSByPsLI4Lqzf5916Gm7VChblnD93ollpJLz7FBrNgqnYl62j/19RRzzPD4vpyTgxPZk0pifjxPRk0piejBPTk0ljejJOTE8mjenJODE9mTSmJ+PE9GTSmJ6ME9OTSWN6cvjY/2R7cM8x//OCt9PuWNpPnTi++qMfsYe+9r/t5193DsTxAJIR4pgVAgUqRKSbuOZPQpmMU0AcI8ENofJbKP7cJ7Qwalg/KyCI+7Z124l2/wMP2k3f/Ja99tWvstlOC/tH1i9ju/7Gu2xuIbVXv/Z8u/GG6+2Be+60Sy660M496xTrzT9hSVRL8Pr9/3C8OPafmuJ4QHFczkIcP2hnvuxCu+Jtb0P6jBUhBXSGz8dhIxTf9WvUn3CcmJ5MGtOTcWJ6MmlMT8aJ6cmkMT0ZJ6Ynk8b0ZJyYnkwa05PDx3nO1aFYXtiZhJaW5Q1tKJ/N0sy1t0nScBPguToUJ8pzWIUQG43E8QjDX4efCeu3syyHDVwBZWGOEw6jiKwo0OwGHP80VOSrU3hxLYQ4UvBaleVxtCjmSONQqfn5BWs3m5bEkX3m6qvtrn/6qP3SGymOUxxD8VjJazww8ls8Xy2OIZoplStRzIlFjNPc7PY9d9nNt3/XLrr4InvyqX325S/faD//C/8SAvhu+9rXb7aLf/Kn7L4HnrSHHtlrr33dy63TatjnP/tZvHbPLv3Jn7BGyJ7dvHrN0U+wMm6v3Mtp3kDEieNis31u1wMQx6+yK97+S1ZGs67nmO8/5MQ87s0DqnpLiKmBfFi3ub695IMLXFtLiiJzothvB04sC7HRsGYUP5SlwtpqtZ01m22kRCispb/qrcYWu/WPWc6dUq6Pk8lkR5v54U+hzc7OWKOZQE9S4rJ/Gc/jOQpcPyHXb9dWpzmjKMbZfLqfMMdtTt6Lkpad8uzT7Y475+3T19xgX9r1DTv5tNPNoqadeNKptm9/5i6st25p24P3P2Sf+z+77JNXf9Eee/QJm5lpujHKHKpFCbvsNQ9jeMDboHGoBC/aOXmpem+uflryfP9uAjE/s7uKkMmmay4vLm77vFhUY+ZrKIyZt9ljrCEVYlqo53jNuOYQxsJNJo3pyTgxPZk0pifjxPRk0piejBPTk0ljejJOTE8mjenJODE9mTSmJ+PE9GTSmJ6ME9OTSWN6cvjY97o6iVkl4QENLUP2HLt9OQwB7jN//b/szl2fsF+6aKfF1bAK7knzZ6P4rc+HFFSd/PWIYtgtzYbUpNFyvcdzCz27+bY99pWvf8fO/7ELrDPbsnN2PscacWTfvvVb7rb0V175VnfHzUcefsq+//2HLIAY7rQze97Zp9rJJ2627sJ+Syh0nYBdPbx1COHArzxp2P5ys33mS/fYGS+90N5y1TusiPge3dfgBlQ43AQ9/9k848T0ZNKYnowT05NJY3oyTkxPJo3pyTgxPZk0pifjxPRk0pieHC7mhVoV1qcYgvnTw7xZw8QVdhZinZE4XjMsuMOFVwhxtDDcHA9v+Da5SsgpjgMnju/a9Vd21cU/siiOOVBiiWFx7NPZ81WwFxYCudFqu0l337z5NvvyjbdYVrTt53/xzZbh/Hfdfa8N0tRuufk71kg2209fcoGdtGOHsYM3wkOzkVjMX6CC3AYLB3C+zBoNLuWWsZIeSw5wRCY75DL4LG7YnBPHd9sZLxkWx/zM2Jc7cogFXleI6cKe4+qXixWQOBZHEonjNSNxLMTRyjJxPMQycex6jr04/u6uv7ar3kRxzNUqMieHl84SIeKZ+Mi0AsfFiEK3XBvXOmcv8hNPPGlPPr3fzjrrHMtxbqYHUWz79j1t8wfm7JSTT8IR5iYBJm5yUWH9XtfKPLdms4Hz8f3AIJbTQQ/7hP4mHqsBb4sam++OcjeLk6rn+G478yWvsp+lOA4pjvne+Yn4ThirDhNHgkOL4yXq8ke47yrLghBrgDlTrBl+jas1FWwhjkrYBgecQ8D1VGmcGe9nx7t1y12atzrm0Az27nIlmzjmXbsCO+WUHfb85/EmHti2zDqt2CxdsNN2bLVnn7TdEt5ympPtioENevMWFam1k9A2dRpOkDdwDp67yAtrtjqIuY66f83VmBtLTONwDDcsww0qqcCHdPqils/DwkOIacOLMubD2rjNPDlszLBqP8V0YW4Tq4Ad7GwIuc7xknHbtTRjWF3IZTLZVI0/4bqfcUe2F9MrIQlRWXs8VNve3KoUTHNDIPz+FKQcAhEhzd04BHUD10juL8zZDIRxI8hdT3QCQRwjbkTssc1t8+YORHFgRdZ3aTyOwzVcTcHzQqSzfvHvZRxzb61+cFbLDD+2mDH+caUAJ0YIP79MNk1j3iTDQpj5sRbIQhw5mEPFWCw1OEsMp63GRisJmUy2kcahD7z1s7v9M2L2rFIQcym2xX0gJt2wicq7eNGIO4sz/ucx7FGul5niTYC4AgbHEHNYRKfTcr7fW7B2u2kDeC7XFkBAt5LYunNzTr/69dNT97rsMXZLVuWZxRG2XQ8voFuNgSDkbXj7ENZ4r0GC08Ig3OvreC7jxjWbuT6HW7vZfd6l70Emm47V5arKmItGai/EkYE5VKwC3yOz1IO0ZCrEQjzjgJAcbY49/IUIAhKi2YlHeDcrg8tL8c5zNPcrEgSlew4iE2kUoqwL6LlN6GluiAQ8l1fLIXqhea2s0jmMI+cLQGSzz5jinQLb1Ss8Dw1P+9c7vHFfnrfR6VgjblmRJUjza1Lg1IDSnv/8msz8jP4iQIhpwwzJMfcrWS2gacqfYvq46lIIIY436iaXvo6jILZGmFgj8pZU1ogbsOYyS5wdnD6ZtVZIG9/4nha6KTR1aL0UEjhpW3tmi1uTncIZChqVfumWe4sRR24YCJ8Q4khQl75RE+LIInEshDhuWKnZdZrRh+7OeYMitkFOSxAnluYN5106rO+e877Pfarto8H4fppbT7Ze0LKwc4IdyAJLIYWLEOY+KJen8wLZ9Y1DHLtx0ovfgBBCCIljIcRxTS0L6fOwZWmy1bLkBBtU1qfFsKgyxL14qw2c+bgPox+O6dcS048b0x8oOjaXN63obLP9g8CC1qyFrbb/nBweBufWcKYoLrgash8GIoQQwqN1joUQxyyjldtizzGfqKq+Ap5jfP/2b/7abr3+C/bWn3qNcTSuv/lG3avKccVud3eSpcl6hOKS8dAOLq6fnzSmJ+PFQVRar3fA4kbb+mlhUXur/dWnP2/nX/g6+9kr3wZlzFvwYt+isJBjmnl76ZDjknkOIYQQEsdCiOMP1noj4vja3bvsv/7h+y3BNocdEMpFt2BEvWoE8IdVQvKo05P+fYYR11+GDwNLC7zJRmi/9q7/aK9+/RutCLgWModT5F4cc6aexLEQQiwicSyEOD45qOYrreQwA6hK31tc77BSFXm0Ckm8V94KOuDn4CbfJ4RvnFgexJZBCHOFCor/pYsA7MPVMSSOhRDCIXEshDg+WaHm48192Et80AS1lWrJRS250VM3xhsTXN/Yw709VO9uibcwhjgOLa2e4TvmzbD9Im9EwlgIIWokjoUQQgghhKjQahVCCCGEEEJUSBwLIYQQQghRIXEshBBCCCFEhcSxEEIIIYQQFRLHQgghhBBCVEgcCyGEEEIIUSFxLIQQQgghRIXEsRBCCCGEEBUSx0IIIYQQQlRIHAshhBBCCFEhcSyEEEIIIUSFxLEQQgghhBAVEsdCCCGEEEJUSBwLIYQQQghRIXEshBBCCCFEhcSxEEIIIYQQFRLHQgghhBBCVEgcCyGEEEIIUSFxLIQQQgghRIXEsRBCCCGEEBUSx0IIIYQQQlRIHAshhBBCCFEhcSyEEEIIIUSFxLEQQgghhBAVEsdCCCGEEEJUSBwLIYQQQghRIXEshBBCCCFEhcSxEEIIIYQQFRLHQgghhBBCVEgcCyGEEEIIUSFxLIQQQgghRIXEsRBCCCGEEBUSx0IIIYQQQlRIHAshhBBCCFEhcSyEEEIIIUSFxLEQQgghhBAOs/8PEoPs8rnXbdQAAAAASUVORK5CYII=;" vertex="1" parent="1">
          <mxGeometry x="40" y="1060" width="711" height="708" as="geometry" />
        </mxCell>
      </root>
    </mxGraphModel>
  </diagram>
</mxfile>
